{
.appVersion = "1339";
DisplayStrings = (
"THE/space QUICK/space BROWN/space FOX/space JUMPS/space \012OVER/space THE/space LAZY/space DOG\012\012AMAZINGLY/space FEW/space DISCOTHEQUES/space \012PROVIDE/space JUKEBOXES\012\012the/space quick/space brown/space fox/space jumps/space over/space the/space lazy/space dog!\012/space \012League/space Spartan\012Amazingly/space few/space discotheques\012provide/space jukeboxes\012\012Allison/space Usavage\012Instagram\012Facebook\012SNAPCHAT\0120123456789",

glyphs = (
{
glyphname = A;
lastChange = "2020-04-11 19:54:09 +0000";
layers = (
{
anchors = (
{
name = bottom;
position = "{702, 0}";
},
{
name = ogonek;
position = "{1245, 16}";
},
{
name = top;
position = "{702, 1320}";
}
);
layerId = "C45C3DCC-6617-4D42-8E57-0A4EECAD9C2E";
paths = (
{
closed = 1;
nodes = (
"-32 0 LINE",
"382 0 LINE",
"467 229 LINE",
"938 229 LINE",
"1022 0 LINE",
"1435 0 LINE",
"891 1320 LINE",
"512 1320 LINE"
);
},
{
closed = 1;
nodes = (
"701 856 LINE",
"704 856 LINE",
"808 565 LINE",
"597 565 LINE"
);
}
);
width = 1451;
},
{
anchors = (
{
name = bottom;
position = "{547, 0}";
},
{
name = ogonek;
position = "{938, 16}";
},
{
name = top;
position = "{547, 1320}";
}
);
layerId = "9D4C2422-5CE9-4C2E-AAC7-BF869A02F5C8";
paths = (
{
closed = 1;
nodes = (
"46 0 LINE",
"114 0 LINE",
"245 362 LINE",
"850 362 LINE",
"979 0 LINE",
"1046 0 LINE",
"586 1320 LINE",
"509 1320 LINE"
);
},
{
closed = 1;
nodes = (
"546 1237 LINE",
"549 1237 LINE",
"834 426 LINE",
"262 426 LINE"
);
}
);
width = 1086;
}
);
leftKerningGroup = A;
rightKerningGroup = A;
unicode = 0041;
},
{
glyphname = AE;
lastChange = "2020-04-11 19:54:09 +0000";
layers = (
{
components = (
{
alignment = -1;
name = E;
transform = "{1, 0, 0, 1, 717, 0}";
}
);
layerId = "C45C3DCC-6617-4D42-8E57-0A4EECAD9C2E";
paths = (
{
closed = 1;
nodes = (
"-34 0 LINE",
"387 0 LINE",
"501 229 LINE",
"978 229 LINE",
"1064 1320 LINE",
"664 1320 LINE"
);
},
{
closed = 1;
nodes = (
"798 802 LINE",
"802 802 LINE",
"802 517 LINE",
"645 517 LINE"
);
}
);
width = 1763;
},
{
components = (
{
alignment = -1;
name = E;
transform = "{1, 0, 0, 1, 670, 0}";
}
);
layerId = "9D4C2422-5CE9-4C2E-AAC7-BF869A02F5C8";
paths = (
{
closed = 1;
nodes = (
"27 0 LINE",
"94 0 LINE",
"301 362 LINE",
"867 362 LINE",
"853 1320 LINE",
"774 1320 LINE"
);
},
{
closed = 1;
nodes = (
"810 1266 LINE",
"813 1250 LINE",
"813 426 LINE",
"330 426 LINE"
);
}
);
width = 1603;
}
);
leftKerningGroup = A;
rightKerningGroup = E;
unicode = 00C6;
},
{
glyphname = B;
lastChange = "2020-04-11 19:54:09 +0000";
layers = (
{
anchors = (
{
name = bottom;
position = "{541, 0}";
},
{
name = top;
position = "{541, 1320}";
}
);
layerId = "C45C3DCC-6617-4D42-8E57-0A4EECAD9C2E";
paths = (
{
closed = 1;
nodes = (
"78 0 LINE",
"629 0 LINE SMOOTH",
"902 0 OFFCURVE",
"1070 152 OFFCURVE",
"1070 378 CURVE SMOOTH",
"1070 589 OFFCURVE",
"960 688 OFFCURVE",
"806 710 CURVE",
"931 742 OFFCURVE",
"1021 843 OFFCURVE",
"1021 994 CURVE SMOOTH",
"1021 1229 OFFCURVE",
"822 1320 OFFCURVE",
"590 1320 CURVE SMOOTH",
"78 1320 LINE"
);
},
{
closed = 1;
nodes = (
"466 525 LINE",
"520 525 LINE SMOOTH",
"606 525 OFFCURVE",
"661 506 OFFCURVE",
"661 418 CURVE SMOOTH",
"661 330 OFFCURVE",
"606 306 OFFCURVE",
"520 306 CURVE SMOOTH",
"466 306 LINE"
);
},
{
closed = 1;
nodes = (
"466 1014 LINE",
"518 1014 LINE SMOOTH",
"592 1014 OFFCURVE",
"637 1000 OFFCURVE",
"637 923 CURVE SMOOTH",
"637 846 OFFCURVE",
"592 824 OFFCURVE",
"518 824 CURVE SMOOTH",
"466 824 LINE"
);
}
);
width = 1154;
},
{
anchors = (
{
name = bottom;
position = "{491, 0}";
},
{
name = top;
position = "{491, 1320}";
}
);
layerId = "9D4C2422-5CE9-4C2E-AAC7-BF869A02F5C8";
paths = (
{
closed = 1;
nodes = (
"126 0 LINE",
"514 0 LINE SMOOTH",
"787 0 OFFCURVE",
"899 155 OFFCURVE",
"899 368 CURVE SMOOTH",
"899 582 OFFCURVE",
"701 678 OFFCURVE",
"624 682 CURVE",
"701 688 OFFCURVE",
"829 829 OFFCURVE",
"829 1005 CURVE SMOOTH",
"829 1254 OFFCURVE",
"629 1320 OFFCURVE",
"421 1320 CURVE SMOOTH",
"126 1320 LINE"
);
},
{
closed = 1;
nodes = (
"187 643 LINE",
"522 643 LINE SMOOTH",
"728 643 OFFCURVE",
"837 517 OFFCURVE",
"837 360 CURVE SMOOTH",
"837 219 OFFCURVE",
"784 62 OFFCURVE",
"542 62 CURVE SMOOTH",
"187 62 LINE"
);
},
{
closed = 1;
nodes = (
"187 1258 LINE",
"453 1258 LINE SMOOTH",
"642 1258 OFFCURVE",
"766 1187 OFFCURVE",
"766 997 CURVE SMOOTH",
"766 867 OFFCURVE",
"682 704 OFFCURVE",
"493 704 CURVE SMOOTH",
"187 704 LINE"
);
}
);
width = 1021;
}
);
leftKerningGroup = H;
rightKerningGroup = B;
unicode = 0042;
},
{
glyphname = C;
lastChange = "2020-06-16 20:35:45 +0000";
layers = (
{
anchors = (
{
name = bottom;
position = "{771, 0}";
},
{
name = top;
position = "{709, 1320}";
}
);
layerId = "C45C3DCC-6617-4D42-8E57-0A4EECAD9C2E";
paths = (
{
closed = 1;
nodes = (
"550 360 OFFCURVE",
"470 523 OFFCURVE",
"470 661 CURVE SMOOTH",
"470 797 OFFCURVE",
"550 960 OFFCURVE",
"803 960 CURVE SMOOTH",
"896 960 OFFCURVE",
"992 923 OFFCURVE",
"1040 894 CURVE",
"1205 1222 LINE",
"1141 1275 OFFCURVE",
"979 1344 OFFCURVE",
"771 1344 CURVE SMOOTH",
"381 1344 OFFCURVE",
"50 1053 OFFCURVE",
"50 658 CURVE SMOOTH",
"50 264 OFFCURVE",
"382 -24 OFFCURVE",
"771 -24 CURVE SMOOTH",
"979 -24 OFFCURVE",
"1141 45 OFFCURVE",
"1205 98 CURVE",
"1040 426 LINE",
"992 397 OFFCURVE",
"896 360 OFFCURVE",
"803 360 CURVE SMOOTH"
);
}
);
width = 1306;
},
{
anchors = (
{
name = bottom;
position = "{741, 0}";
},
{
name = top;
position = "{725, 1320}";
}
);
layerId = "9D4C2422-5CE9-4C2E-AAC7-BF869A02F5C8";
paths = (
{
closed = 1;
nodes = (
"406 37 OFFCURVE",
"126 283 OFFCURVE",
"126 661 CURVE SMOOTH",
"126 1037 OFFCURVE",
"406 1283 OFFCURVE",
"725 1283 CURVE SMOOTH",
"925 1283 OFFCURVE",
"1067 1216 OFFCURVE",
"1120 1166 CURVE",
"1149 1222 LINE",
"1091 1275 OFFCURVE",
"939 1344 OFFCURVE",
"731 1344 CURVE SMOOTH",
"341 1344 OFFCURVE",
"59 1037 OFFCURVE",
"59 658 CURVE SMOOTH",
"59 280 OFFCURVE",
"342 -24 OFFCURVE",
"731 -24 CURVE SMOOTH",
"939 -24 OFFCURVE",
"1091 45 OFFCURVE",
"1149 98 CURVE",
"1120 154 LINE",
"1067 104 OFFCURVE",
"925 37 OFFCURVE",
"725 37 CURVE SMOOTH"
);
}
);
width = 1242;
}
);
leftKerningGroup = O;
rightKerningGroup = C;
unicode = 0043;
},
{
glyphname = C.ss01;
lastChange = "2020-06-16 20:34:57 +0000";
layers = (
{
anchors = (
{
name = bottom;
position = "{698, 0}";
},
{
name = top;
position = "{698, 1320}";
}
);
layerId = "C45C3DCC-6617-4D42-8E57-0A4EECAD9C2E";
paths = (
{
closed = 1;
nodes = (
"1090 1296 LINE",
"1018 1333 OFFCURVE",
"909 1344 OFFCURVE",
"789 1344 CURVE SMOOTH",
"333 1344 OFFCURVE",
"38 1046 OFFCURVE",
"38 661 CURVE SMOOTH",
"38 275 OFFCURVE",
"304 -24 OFFCURVE",
"789 -24 CURVE SMOOTH",
"898 -24 OFFCURVE",
"1027 -8 OFFCURVE",
"1090 18 CURVE",
"1090 406 LINE",
"1054 379 OFFCURVE",
"973 333 OFFCURVE",
"789 333 CURVE SMOOTH",
"570 333 OFFCURVE",
"442 470 OFFCURVE",
"442 661 CURVE SMOOTH",
"442 851 OFFCURVE",
"570 989 OFFCURVE",
"789 989 CURVE SMOOTH",
"973 989 OFFCURVE",
"1054 938 OFFCURVE",
"1090 907 CURVE"
);
}
);
width = 1206;
},
{
anchors = (
{
name = bottom;
position = "{627, 0}";
},
{
name = top;
position = "{627, 1320}";
}
);
layerId = "9D4C2422-5CE9-4C2E-AAC7-BF869A02F5C8";
paths = (
{
closed = 1;
nodes = (
"925 1283 LINE",
"872 1318 OFFCURVE",
"787 1344 OFFCURVE",
"651 1344 CURVE SMOOTH",
"286 1344 OFFCURVE",
"48 1046 OFFCURVE",
"48 661 CURVE SMOOTH",
"48 275 OFFCURVE",
"258 -24 OFFCURVE",
"651 -24 CURVE SMOOTH",
"784 -24 OFFCURVE",
"886 14 OFFCURVE",
"925 45 CURVE",
"925 114 LINE",
"890 91 OFFCURVE",
"806 38 OFFCURVE",
"651 38 CURVE SMOOTH",
"363 38 OFFCURVE",
"114 272 OFFCURVE",
"114 661 CURVE SMOOTH",
"114 1050 OFFCURVE",
"378 1282 OFFCURVE",
"651 1282 CURVE SMOOTH",
"811 1282 OFFCURVE",
"894 1232 OFFCURVE",
"925 1213 CURVE"
);
}
);
width = 1056;
}
);
leftKerningGroup = O;
leftMetricsKey = O;
rightKerningGroup = C;
},
{
glyphname = D;
lastChange = "2020-04-11 19:54:09 +0000";
layers = (
{
anchors = (
{
name = bottom;
position = "{584, 0}";
},
{
name = center;
position = "{370, 661}";
},
{
name = top;
position = "{584, 1320}";
}
);
layerId = "C45C3DCC-6617-4D42-8E57-0A4EECAD9C2E";
paths = (
{
closed = 1;
nodes = (
"72 0 LINE",
"528 0 LINE SMOOTH",
"949 0 OFFCURVE",
"1162 275 OFFCURVE",
"1162 661 CURVE SMOOTH",
"1162 1045 OFFCURVE",
"949 1320 OFFCURVE",
"528 1320 CURVE SMOOTH",
"72 1320 LINE"
);
},
{
closed = 1;
nodes = (
"493 979 LINE SMOOTH",
"659 979 OFFCURVE",
"750 838 OFFCURVE",
"750 659 CURVE SMOOTH",
"750 480 OFFCURVE",
"658 341 OFFCURVE",
"493 341 CURVE SMOOTH",
"459 341 LINE",
"459 979 LINE"
);
}
);
width = 1243;
},
{
anchors = (
{
name = bottom;
position = "{518, 0}";
},
{
name = center;
position = "{166, 661}";
},
{
name = top;
position = "{518, 1320}";
}
);
layerId = "9D4C2422-5CE9-4C2E-AAC7-BF869A02F5C8";
paths = (
{
closed = 1;
nodes = (
"123 0 LINE",
"362 0 LINE SMOOTH",
"786 0 OFFCURVE",
"968 275 OFFCURVE",
"968 661 CURVE SMOOTH",
"968 1045 OFFCURVE",
"784 1320 OFFCURVE",
"362 1320 CURVE SMOOTH",
"123 1320 LINE"
);
},
{
closed = 1;
nodes = (
"358 1256 LINE SMOOTH",
"744 1256 OFFCURVE",
"906 1008 OFFCURVE",
"904 659 CURVE SMOOTH",
"902 310 OFFCURVE",
"741 64 OFFCURVE",
"358 64 CURVE SMOOTH",
"184 64 LINE",
"184 1256 LINE"
);
}
);
width = 1088;
}
);
leftKerningGroup = H;
rightKerningGroup = O;
unicode = 0044;
},
{
glyphname = E;
lastChange = "2020-04-11 19:54:43 +0000";
layers = (
{
anchors = (
{
name = bottom;
position = "{472, 0}";
},
{
name = ogonek;
position = "{870, 16}";
},
{
name = top;
position = "{472, 1320}";
},
{
name = topleft;
position = "{8, 1320}";
}
);
layerId = "C45C3DCC-6617-4D42-8E57-0A4EECAD9C2E";
paths = (
{
closed = 1;
nodes = (
"64 0 LINE",
"950 0 LINE",
"950 336 LINE",
"451 336 LINE",
"451 499 LINE",
"950 499 LINE",
"950 824 LINE",
"451 824 LINE",
"451 984 LINE",
"950 984 LINE",
"950 1320 LINE",
"64 1320 LINE"
);
}
);
width = 1082;
},
{
anchors = (
{
name = bottom;
position = "{451, 0}";
},
{
name = ogonek;
position = "{842, 16}";
},
{
name = top;
position = "{507, 1320}";
},
{
name = topleft;
position = "{51, 1320}";
}
);
layerId = "9D4C2422-5CE9-4C2E-AAC7-BF869A02F5C8";
paths = (
{
closed = 1;
nodes = (
"134 0 LINE",
"862 0 LINE",
"862 64 LINE",
"195 64 LINE",
"195 630 LINE",
"843 630 LINE",
"843 694 LINE",
"195 694 LINE",
"195 1256 LINE",
"862 1256 LINE",
"862 1320 LINE",
"134 1320 LINE"
);
}
);
width = 1035;
}
);
leftKerningGroup = H;
leftMetricsKey = H;
rightKerningGroup = E;
rightMetricsKey = H;
unicode = 0045;
},
{
glyphname = F;
lastChange = "2020-04-11 19:54:09 +0000";
layers = (
{
anchors = (
{
name = bottom;
position = "{462, 0}";
},
{
name = top;
position = "{462, 1320}";
}
);
layerId = "C45C3DCC-6617-4D42-8E57-0A4EECAD9C2E";
paths = (
{
closed = 1;
nodes = (
"78 0 LINE",
"466 0 LINE",
"466 494 LINE",
"858 494 LINE",
"858 829 LINE",
"466 829 LINE",
"466 984 LINE",
"893 984 LINE",
"893 1320 LINE",
"78 1320 LINE"
);
}
);
width = 995;
},
{
anchors = (
{
name = bottom;
position = "{414, 0}";
},
{
name = top;
position = "{414, 1320}";
}
);
layerId = "9D4C2422-5CE9-4C2E-AAC7-BF869A02F5C8";
paths = (
{
closed = 1;
nodes = (
"126 0 LINE",
"187 0 LINE",
"187 630 LINE",
"715 630 LINE",
"715 694 LINE",
"187 694 LINE",
"187 1256 LINE",
"750 1256 LINE",
"750 1320 LINE",
"126 1320 LINE"
);
}
);
width = 867;
}
);
leftKerningGroup = H;
rightKerningGroup = F;
unicode = 0046;
},
{
glyphname = G;
lastChange = "2020-06-16 20:39:20 +0000";
layers = (
{
anchors = (
{
name = bottom;
position = "{765, 0}";
},
{
name = top;
position = "{733, 1320}";
}
);
layerId = "C45C3DCC-6617-4D42-8E57-0A4EECAD9C2E";
paths = (
{
closed = 1;
nodes = (
"727 462 LINE",
"965 462 LINE",
"952 378 OFFCURVE",
"870 338 OFFCURVE",
"731 338 CURVE SMOOTH",
"557 338 OFFCURVE",
"442 483 OFFCURVE",
"442 661 CURVE SMOOTH",
"442 838 OFFCURVE",
"557 984 OFFCURVE",
"731 984 CURVE SMOOTH",
"875 984 OFFCURVE",
"939 916 OFFCURVE",
"976 852 CURVE",
"1348 1020 LINE",
"1276 1154 OFFCURVE",
"1116 1344 OFFCURVE",
"731 1344 CURVE SMOOTH",
"308 1344 OFFCURVE",
"38 1046 OFFCURVE",
"38 661 CURVE SMOOTH",
"38 275 OFFCURVE",
"308 -24 OFFCURVE",
"731 -24 CURVE SMOOTH",
"1142 -24 OFFCURVE",
"1404 275 OFFCURVE",
"1404 661 CURVE SMOOTH",
"1404 752 LINE",
"727 752 LINE"
);
}
);
width = 1492;
},
{
anchors = (
{
name = bottom;
position = "{706, 0}";
},
{
name = top;
position = "{686, 1320}";
}
);
layerId = "9D4C2422-5CE9-4C2E-AAC7-BF869A02F5C8";
paths = (
{
closed = 1;
nodes = (
"661 637 LINE",
"1258 637 LINE",
"1246 312 OFFCURVE",
"1011 40 OFFCURVE",
"686 40 CURVE SMOOTH",
"354 40 OFFCURVE",
"112 325 OFFCURVE",
"112 661 CURVE SMOOTH",
"112 997 OFFCURVE",
"354 1280 OFFCURVE",
"686 1280 CURVE SMOOTH",
"870 1280 OFFCURVE",
"1026 1194 OFFCURVE",
"1128 1059 CURVE",
"1174 1099 LINE",
"1061 1248 OFFCURVE",
"886 1344 OFFCURVE",
"686 1344 CURVE SMOOTH",
"323 1344 OFFCURVE",
"48 1030 OFFCURVE",
"48 661 CURVE SMOOTH",
"48 291 OFFCURVE",
"323 -24 OFFCURVE",
"686 -24 CURVE SMOOTH",
"1042 -24 OFFCURVE",
"1322 278 OFFCURVE",
"1322 637 CURVE SMOOTH",
"1322 699 LINE",
"661 699 LINE"
);
}
);
width = 1411;
}
);
leftKerningGroup = O;
leftMetricsKey = O;
rightKerningGroup = O;
rightMetricsKey = O;
unicode = 0047;
},
{
glyphname = H;
lastChange = "2020-04-11 19:54:09 +0000";
layers = (
{
anchors = (
{
name = bottom;
position = "{618, -298}";
},
{
name = center;
position = "{618, 958}";
},
{
name = top;
position = "{618, 1320}";
},
{
name = topleft;
position = "{0, 1320}";
}
);
layerId = "C45C3DCC-6617-4D42-8E57-0A4EECAD9C2E";
paths = (
{
closed = 1;
nodes = (
"784 0 LINE",
"1170 0 LINE",
"1170 1320 LINE",
"784 1320 LINE",
"784 829 LINE",
"451 829 LINE",
"451 1320 LINE",
"64 1320 LINE",
"64 0 LINE",
"451 0 LINE",
"451 494 LINE",
"784 494 LINE"
);
}
);
width = 1302;
},
{
anchors = (
{
name = bottom;
position = "{586, -165}";
},
{
name = center;
position = "{586, 826}";
},
{
name = top;
position = "{586, 1320}";
},
{
name = topleft;
position = "{118, 1320}";
}
);
layerId = "9D4C2422-5CE9-4C2E-AAC7-BF869A02F5C8";
paths = (
{
closed = 1;
nodes = (
"978 0 LINE",
"1038 0 LINE",
"1038 1320 LINE",
"978 1320 LINE",
"978 694 LINE",
"195 694 LINE",
"195 1320 LINE",
"134 1320 LINE",
"134 0 LINE",
"195 0 LINE",
"195 630 LINE",
"978 630 LINE"
);
}
);
width = 1211;
}
);
leftKerningGroup = H;
rightKerningGroup = H;
unicode = 0048;
},
{
glyphname = Hbar;
lastChange = "2020-06-16 19:51:02 +0000";
layers = (
{
components = (
{
name = H;
}
);
layerId = "C45C3DCC-6617-4D42-8E57-0A4EECAD9C2E";
paths = (
{
closed = 1;
nodes = (
"-34 954 LINE",
"1258 954 LINE",
"1258 1194 LINE",
"-34 1194 LINE"
);
}
);
width = 1302;
},
{
components = (
{
name = H;
}
);
layerId = "9D4C2422-5CE9-4C2E-AAC7-BF869A02F5C8";
paths = (
{
closed = 1;
nodes = (
"79 1006 LINE",
"1098 1006 LINE",
"1098 1069 LINE",
"79 1069 LINE"
);
}
);
width = 1211;
}
);
leftKerningGroup = H;
rightKerningGroup = H;
unicode = 0126;
},
{
glyphname = I;
lastChange = "2020-04-11 19:54:09 +0000";
layers = (
{
anchors = (
{
name = bottom;
position = "{266, 0}";
},
{
name = ogonek;
position = "{491, 16}";
},
{
name = top;
position = "{266, 1320}";
},
{
name = topleft;
position = "{16, 1320}";
}
);
layerId = "C45C3DCC-6617-4D42-8E57-0A4EECAD9C2E";
paths = (
{
closed = 1;
nodes = (
"72 0 LINE",
"459 0 LINE",
"459 1320 LINE",
"72 1320 LINE"
);
}
);
width = 592;
},
{
anchors = (
{
name = bottom;
position = "{182, 0}";
},
{
name = ogonek;
position = "{299, 16}";
},
{
name = top;
position = "{182, 1320}";
},
{
name = topleft;
position = "{67, 1320}";
}
);
layerId = "9D4C2422-5CE9-4C2E-AAC7-BF869A02F5C8";
paths = (
{
closed = 1;
nodes = (
"152 0 LINE",
"216 0 LINE",
"216 1320 LINE",
"152 1320 LINE"
);
}
);
width = 405;
}
);
leftKerningGroup = H;
rightKerningGroup = H;
unicode = 0049;
},
{
glyphname = J;
lastChange = "2020-04-11 19:54:09 +0000";
layers = (
{
anchors = (
{
name = bottom;
position = "{416, 0}";
},
{
name = top;
position = "{544, 1320}";
}
);
layerId = "C45C3DCC-6617-4D42-8E57-0A4EECAD9C2E";
paths = (
{
closed = 1;
nodes = (
"730 1320 LINE",
"342 1320 LINE",
"342 493 LINE SMOOTH",
"342 360 OFFCURVE",
"266 350 OFFCURVE",
"219 350 CURVE SMOOTH",
"173 350 OFFCURVE",
"118 387 OFFCURVE",
"93 419 CURVE",
"-45 82 LINE",
"-26 58 OFFCURVE",
"101 -24 OFFCURVE",
"280 -24 CURVE SMOOTH",
"544 -24 OFFCURVE",
"730 134 OFFCURVE",
"730 410 CURVE SMOOTH"
);
}
);
width = 850;
},
{
anchors = (
{
name = bottom;
position = "{368, 0}";
},
{
name = top;
position = "{582, 1320}";
}
);
layerId = "9D4C2422-5CE9-4C2E-AAC7-BF869A02F5C8";
paths = (
{
closed = 1;
nodes = (
"614 1320 LINE",
"552 1320 LINE",
"552 386 LINE SMOOTH",
"552 203 OFFCURVE",
"496 38 OFFCURVE",
"290 38 CURVE SMOOTH",
"117 38 OFFCURVE",
"56 131 OFFCURVE",
"37 170 CURVE",
"-6 118 LINE",
"10 83 OFFCURVE",
"93 -24 OFFCURVE",
"290 -24 CURVE SMOOTH",
"522 -24 OFFCURVE",
"614 138 OFFCURVE",
"614 397 CURVE SMOOTH"
);
}
);
width = 742;
}
);
leftKerningGroup = J;
rightKerningGroup = J;
unicode = 004A;
},
{
glyphname = K;
lastChange = "2020-04-11 19:54:09 +0000";
layers = (
{
anchors = (
{
name = bottom;
position = "{618, 0}";
},
{
name = top;
position = "{618, 1320}";
}
);
layerId = "C45C3DCC-6617-4D42-8E57-0A4EECAD9C2E";
paths = (
{
closed = 1;
nodes = (
"1165 1320 LINE",
"730 1320 LINE",
"416 824 LINE",
"416 1320 LINE",
"29 1320 LINE",
"29 0 LINE",
"416 0 LINE",
"416 555 LINE",
"763 0 LINE",
"1224 0 LINE",
"749 693 LINE"
);
}
);
width = 1258;
},
{
anchors = (
{
name = bottom;
position = "{458, 0}";
},
{
name = top;
position = "{458, 1320}";
}
);
layerId = "9D4C2422-5CE9-4C2E-AAC7-BF869A02F5C8";
paths = (
{
closed = 1;
nodes = (
"824 1320 LINE",
"747 1320 LINE",
"214 661 LINE",
"214 1320 LINE",
"150 1320 LINE",
"150 0 LINE",
"214 0 LINE",
"214 637 LINE",
"778 0 LINE",
"856 0 LINE",
"285 654 LINE"
);
}
);
width = 890;
}
);
leftKerningGroup = H;
rightKerningGroup = K;
unicode = 004B;
},
{
glyphname = L;
lastChange = "2020-04-11 19:54:09 +0000";
layers = (
{
anchors = (
{
name = bottom;
position = "{498, 0}";
},
{
name = center;
position = "{235, 958}";
},
{
name = top;
position = "{461, 1320}";
},
{
name = topright;
position = "{906, 1320}";
}
);
layerId = "C45C3DCC-6617-4D42-8E57-0A4EECAD9C2E";
paths = (
{
closed = 1;
nodes = (
"78 0 LINE",
"917 0 LINE",
"917 336 LINE",
"466 336 LINE",
"466 1320 LINE",
"78 1320 LINE"
);
}
);
width = 1024;
},
{
anchors = (
{
name = bottom;
position = "{434, 0}";
},
{
name = center;
position = "{131, 826}";
},
{
name = top;
position = "{413, 1320}";
},
{
name = topright;
position = "{763, 1320}";
}
);
layerId = "9D4C2422-5CE9-4C2E-AAC7-BF869A02F5C8";
paths = (
{
closed = 1;
nodes = (
"126 0 LINE",
"742 0 LINE",
"742 64 LINE",
"189 64 LINE",
"189 1320 LINE",
"126 1320 LINE"
);
}
);
width = 864;
}
);
leftKerningGroup = H;
rightKerningGroup = L;
unicode = 004C;
},
{
glyphname = Lslash;
lastChange = "2020-04-11 19:54:09 +0000";
layers = (
{
layerId = "C45C3DCC-6617-4D42-8E57-0A4EECAD9C2E";
paths = (
{
closed = 1;
nodes = (
"936 0 LINE",
"936 336 LINE",
"518 336 LINE",
"518 741 LINE",
"704 888 LINE",
"704 1184 LINE",
"518 1035 LINE",
"518 1320 LINE",
"131 1320 LINE",
"131 731 LINE",
"19 645 LINE",
"19 350 LINE",
"131 435 LINE",
"131 0 LINE"
);
}
);
width = 1050;
},
{
layerId = "9D4C2422-5CE9-4C2E-AAC7-BF869A02F5C8";
paths = (
{
closed = 1;
nodes = (
"824 0 LINE",
"824 64 LINE",
"270 64 LINE",
"270 706 LINE",
"386 797 LINE",
"386 901 LINE",
"270 810 LINE",
"270 1320 LINE",
"210 1320 LINE",
"210 763 LINE",
"59 645 LINE",
"59 541 LINE",
"210 659 LINE",
"210 0 LINE"
);
}
);
width = 944;
}
);
leftKerningGroup = H;
rightKerningGroup = L;
unicode = 0141;
},
{
glyphname = M;
lastChange = "2020-04-11 19:54:09 +0000";
layers = (
{
anchors = (
{
name = bottom;
position = "{848, 0}";
},
{
name = top;
position = "{848, 1320}";
}
);
layerId = "C45C3DCC-6617-4D42-8E57-0A4EECAD9C2E";
paths = (
{
closed = 1;
nodes = (
"1062 1320 LINE",
"862 547 LINE",
"840 416 LINE",
"818 547 LINE",
"618 1320 LINE",
"64 1320 LINE",
"64 0 LINE",
"451 0 LINE",
"451 656 LINE",
"435 928 LINE",
"496 611 LINE",
"650 128 LINE",
"1029 128 LINE",
"1184 611 LINE",
"1245 928 LINE",
"1229 656 LINE",
"1229 0 LINE",
"1616 0 LINE",
"1616 1320 LINE"
);
}
);
width = 1760;
},
{
anchors = (
{
name = bottom;
position = "{646, 0}";
},
{
name = top;
position = "{646, 1320}";
}
);
layerId = "9D4C2422-5CE9-4C2E-AAC7-BF869A02F5C8";
paths = (
{
closed = 1;
nodes = (
"1088 1320 LINE",
"646 152 LINE",
"638 117 LINE",
"630 152 LINE",
"190 1320 LINE",
"126 1320 LINE",
"126 0 LINE",
"189 0 LINE",
"189 1101 LINE",
"184 1184 LINE",
"206 1101 LINE",
"606 48 LINE",
"670 48 LINE",
"1070 1101 LINE",
"1093 1184 LINE",
"1088 1101 LINE",
"1088 0 LINE",
"1150 0 LINE",
"1150 1320 LINE"
);
}
);
width = 1333;
}
);
leftKerningGroup = M;
rightKerningGroup = M;
unicode = 004D;
},
{
glyphname = N;
lastChange = "2020-04-11 19:54:43 +0000";
layers = (
{
anchors = (
{
name = bottom;
position = "{720, 0}";
},
{
name = top;
position = "{720, 1320}";
}
);
layerId = "C45C3DCC-6617-4D42-8E57-0A4EECAD9C2E";
paths = (
{
closed = 1;
nodes = (
"850 0 LINE",
"1376 0 LINE",
"1376 1320 LINE",
"989 1320 LINE",
"989 354 LINE",
"1018 360 LINE",
"587 1320 LINE",
"64 1320 LINE",
"64 0 LINE",
"451 0 LINE",
"451 963 LINE",
"422 968 LINE"
);
}
);
width = 1508;
},
{
anchors = (
{
name = bottom;
position = "{661, 0}";
},
{
name = top;
position = "{661, 1320}";
}
);
layerId = "9D4C2422-5CE9-4C2E-AAC7-BF869A02F5C8";
paths = (
{
closed = 1;
nodes = (
"1006 0 LINE",
"1107 0 LINE",
"1107 1320 LINE",
"1045 1320 LINE",
"1045 67 LINE",
"1046 67 LINE",
"235 1320 LINE",
"134 1320 LINE",
"134 0 LINE",
"197 0 LINE",
"197 1253 LINE",
"195 1253 LINE"
);
}
);
width = 1280;
}
);
leftKerningGroup = H;
leftMetricsKey = H;
rightKerningGroup = H;
rightMetricsKey = H;
unicode = 004E;
},
{
glyphname = Eng;
lastChange = "2020-04-11 19:54:09 +0000";
layers = (
{
components = (
{
name = N;
}
);
layerId = "C45C3DCC-6617-4D42-8E57-0A4EECAD9C2E";
paths = (
{
closed = 1;
nodes = (
"1376 -24 LINE SMOOTH",
"1376 -222 OFFCURVE",
"1278 -440 OFFCURVE",
"1019 -440 CURVE SMOOTH",
"861 -440 OFFCURVE",
"779 -405 OFFCURVE",
"725 -381 CURVE",
"846 -80 LINE",
"864 -88 OFFCURVE",
"894 -98 OFFCURVE",
"912 -98 CURVE SMOOTH",
"942 -98 OFFCURVE",
"973 -78 OFFCURVE",
"973 -40 CURVE SMOOTH",
"973 0 LINE",
"1376 0 LINE"
);
}
);
width = 1509;
},
{
components = (
{
name = N;
}
);
layerId = "9D4C2422-5CE9-4C2E-AAC7-BF869A02F5C8";
paths = (
{
closed = 1;
nodes = (
"1107 -46 LINE SMOOTH",
"1107 -282 OFFCURVE",
"1029 -424 OFFCURVE",
"877 -424 CURVE SMOOTH",
"808 -424 OFFCURVE",
"731 -389 OFFCURVE",
"722 -382 CURVE",
"762 -328 LINE",
"781 -342 OFFCURVE",
"826 -360 OFFCURVE",
"880 -360 CURVE SMOOTH",
"998 -360 OFFCURVE",
"1046 -243 OFFCURVE",
"1046 -40 CURVE SMOOTH",
"1046 0 LINE",
"1107 0 LINE"
);
}
);
width = 1280;
}
);
leftKerningGroup = Eng;
rightKerningGroup = Eng;
unicode = 014A;
},
{
glyphname = O;
lastChange = "2020-04-11 19:54:09 +0000";
layers = (
{
anchors = (
{
name = bottom;
position = "{731, -298}";
},
{
name = center;
position = "{731, 958}";
},
{
name = ogonek;
position = "{1021, 16}";
},
{
name = top;
position = "{731, 1320}";
},
{
name = topleft;
position = "{40, 1320}";
},
{
name = topright;
position = "{1138, 1197}";
}
);
layerId = "C45C3DCC-6617-4D42-8E57-0A4EECAD9C2E";
paths = (
{
closed = 1;
nodes = (
"442 838 OFFCURVE",
"557 984 OFFCURVE",
"731 984 CURVE SMOOTH",
"906 984 OFFCURVE",
"1021 838 OFFCURVE",
"1021 661 CURVE SMOOTH",
"1021 483 OFFCURVE",
"906 338 OFFCURVE",
"731 338 CURVE SMOOTH",
"557 338 OFFCURVE",
"442 483 OFFCURVE",
"442 661 CURVE SMOOTH"
);
},
{
closed = 1;
nodes = (
"38 275 OFFCURVE",
"310 -24 OFFCURVE",
"731 -24 CURVE SMOOTH",
"1142 -24 OFFCURVE",
"1424 275 OFFCURVE",
"1424 661 CURVE SMOOTH",
"1424 1046 OFFCURVE",
"1130 1344 OFFCURVE",
"731 1344 CURVE SMOOTH",
"338 1344 OFFCURVE",
"38 1046 OFFCURVE",
"38 661 CURVE SMOOTH"
);
}
);
width = 1512;
},
{
anchors = (
{
name = bottom;
position = "{686, -165}";
},
{
name = center;
position = "{686, 826}";
},
{
name = ogonek;
position = "{1021, 16}";
},
{
name = top;
position = "{686, 1320}";
},
{
name = topleft;
position = "{75, 1320}";
},
{
name = topright;
position = "{1075, 1202}";
}
);
layerId = "9D4C2422-5CE9-4C2E-AAC7-BF869A02F5C8";
paths = (
{
closed = 1;
nodes = (
"112 1013 OFFCURVE",
"354 1280 OFFCURVE",
"686 1280 CURVE SMOOTH",
"1019 1280 OFFCURVE",
"1258 1013 OFFCURVE",
"1258 661 CURVE SMOOTH",
"1258 309 OFFCURVE",
"1019 40 OFFCURVE",
"686 40 CURVE SMOOTH",
"354 40 OFFCURVE",
"112 309 OFFCURVE",
"112 661 CURVE SMOOTH"
);
},
{
closed = 1;
nodes = (
"48 275 OFFCURVE",
"323 -24 OFFCURVE",
"686 -24 CURVE SMOOTH",
"1050 -24 OFFCURVE",
"1322 275 OFFCURVE",
"1322 661 CURVE SMOOTH",
"1322 1046 OFFCURVE",
"1050 1344 OFFCURVE",
"686 1344 CURVE SMOOTH",
"323 1344 OFFCURVE",
"48 1046 OFFCURVE",
"48 661 CURVE SMOOTH"
);
}
);
width = 1411;
}
);
leftKerningGroup = O;
rightKerningGroup = O;
unicode = 004F;
},
{
glyphname = Oslash;
lastChange = "2020-04-11 19:54:09 +0000";
layers = (
{
components = (
{
name = O;
}
);
layerId = "C45C3DCC-6617-4D42-8E57-0A4EECAD9C2E";
paths = (
{
closed = 1;
nodes = (
"-10 29 LINE",
"118 -85 LINE",
"1429 1283 LINE",
"1301 1397 LINE"
);
}
);
width = 1491;
},
{
components = (
{
name = O;
}
);
layerId = "9D4C2422-5CE9-4C2E-AAC7-BF869A02F5C8";
paths = (
{
closed = 1;
nodes = (
"24 21 LINE",
"69 -21 LINE",
"1338 1266 LINE",
"1293 1307 LINE"
);
}
);
width = 1379;
}
);
leftKerningGroup = O;
rightKerningGroup = O;
unicode = 00D8;
},
{
glyphname = OE;
lastChange = "2020-04-11 19:54:09 +0000";
layers = (
{
anchors = (
{
name = bottom;
position = "{816, 0}";
},
{
name = top;
position = "{816, 1320}";
}
);
layerId = "C45C3DCC-6617-4D42-8E57-0A4EECAD9C2E";
paths = (
{
closed = 1;
nodes = (
"1581 0 LINE",
"1581 336 LINE",
"1176 336 LINE",
"1176 494 LINE",
"1562 494 LINE",
"1562 829 LINE",
"1176 829 LINE",
"1176 984 LINE",
"1581 984 LINE",
"1581 1320 LINE",
"701 1320 LINE SMOOTH",
"338 1320 OFFCURVE",
"13 1045 OFFCURVE",
"13 659 CURVE SMOOTH",
"13 274 OFFCURVE",
"349 0 OFFCURVE",
"701 0 CURVE SMOOTH"
);
},
{
closed = 1;
nodes = (
"573 346 OFFCURVE",
"432 480 OFFCURVE",
"432 661 CURVE SMOOTH",
"432 838 OFFCURVE",
"566 974 OFFCURVE",
"750 974 CURVE SMOOTH",
"789 974 LINE",
"789 346 LINE",
"750 346 LINE SMOOTH"
);
}
);
width = 1704;
},
{
anchors = (
{
name = bottom;
position = "{752, 0}";
},
{
name = top;
position = "{752, 1320}";
}
);
layerId = "9D4C2422-5CE9-4C2E-AAC7-BF869A02F5C8";
paths = (
{
closed = 1;
nodes = (
"1390 0 LINE",
"1390 64 LINE",
"797 64 LINE",
"797 630 LINE",
"1371 630 LINE",
"1371 694 LINE",
"797 694 LINE",
"797 1256 LINE",
"1390 1256 LINE",
"1390 1320 LINE",
"677 1320 LINE SMOOTH",
"314 1320 OFFCURVE",
"70 1046 OFFCURVE",
"70 661 CURVE SMOOTH",
"70 275 OFFCURVE",
"280 0 OFFCURVE",
"677 0 CURVE SMOOTH"
);
},
{
closed = 1;
nodes = (
"315 58 OFFCURVE",
"136 330 OFFCURVE",
"136 661 CURVE SMOOTH",
"136 992 OFFCURVE",
"333 1266 OFFCURVE",
"667 1266 CURVE SMOOTH",
"736 1266 LINE",
"736 58 LINE",
"667 58 LINE SMOOTH"
);
}
);
width = 1542;
}
);
leftKerningGroup = O;
rightKerningGroup = E;
unicode = 0152;
},
{
glyphname = P;
lastChange = "2020-04-11 19:54:09 +0000";
layers = (
{
anchors = (
{
name = bottom;
position = "{541, 0}";
},
{
name = top;
position = "{541, 1320}";
}
);
layerId = "C45C3DCC-6617-4D42-8E57-0A4EECAD9C2E";
paths = (
{
closed = 1;
nodes = (
"61 0 LINE",
"448 0 LINE",
"448 469 LINE",
"614 469 LINE SMOOTH",
"872 469 OFFCURVE",
"1074 634 OFFCURVE",
"1074 904 CURVE SMOOTH",
"1074 1174 OFFCURVE",
"872 1320 OFFCURVE",
"614 1320 CURVE SMOOTH",
"61 1320 LINE"
);
},
{
closed = 1;
nodes = (
"448 1019 LINE",
"506 1019 LINE SMOOTH",
"594 1019 OFFCURVE",
"659 982 OFFCURVE",
"659 894 CURVE SMOOTH",
"659 806 OFFCURVE",
"594 770 OFFCURVE",
"506 770 CURVE SMOOTH",
"448 770 LINE"
);
}
);
width = 1154;
},
{
anchors = (
{
name = bottom;
position = "{469, 0}";
},
{
name = top;
position = "{469, 1320}";
}
);
layerId = "9D4C2422-5CE9-4C2E-AAC7-BF869A02F5C8";
paths = (
{
closed = 1;
nodes = (
"150 0 LINE",
"213 0 LINE",
"213 550 LINE",
"434 550 LINE SMOOTH",
"675 550 OFFCURVE",
"866 666 OFFCURVE",
"866 942 CURVE SMOOTH",
"866 1219 OFFCURVE",
"675 1320 OFFCURVE",
"434 1320 CURVE SMOOTH",
"150 1320 LINE"
);
},
{
closed = 1;
nodes = (
"213 1256 LINE",
"418 1256 LINE SMOOTH",
"627 1256 OFFCURVE",
"802 1187 OFFCURVE",
"802 942 CURVE SMOOTH",
"802 698 OFFCURVE",
"627 614 OFFCURVE",
"418 614 CURVE SMOOTH",
"213 614 LINE"
);
}
);
width = 978;
}
);
leftKerningGroup = H;
rightKerningGroup = P;
unicode = 0050;
},
{
glyphname = Thorn;
lastChange = "2020-04-11 19:54:09 +0000";
layers = (
{
layerId = "C45C3DCC-6617-4D42-8E57-0A4EECAD9C2E";
paths = (
{
closed = 1;
nodes = (
"64 0 LINE",
"451 0 LINE",
"451 245 LINE",
"610 245 LINE SMOOTH",
"867 245 OFFCURVE",
"1077 397 OFFCURVE",
"1077 669 CURVE SMOOTH",
"1077 942 OFFCURVE",
"867 1075 OFFCURVE",
"610 1075 CURVE SMOOTH",
"451 1075 LINE",
"451 1320 LINE",
"64 1320 LINE"
);
},
{
closed = 1;
nodes = (
"451 774 LINE",
"528 774 LINE SMOOTH",
"600 774 OFFCURVE",
"651 739 OFFCURVE",
"651 662 CURVE SMOOTH",
"651 586 OFFCURVE",
"600 546 OFFCURVE",
"528 546 CURVE SMOOTH",
"451 546 LINE"
);
}
);
width = 1154;
},
{
layerId = "9D4C2422-5CE9-4C2E-AAC7-BF869A02F5C8";
paths = (
{
closed = 1;
nodes = (
"134 0 LINE",
"195 0 LINE",
"195 245 LINE",
"485 245 LINE SMOOTH",
"709 245 OFFCURVE",
"864 397 OFFCURVE",
"864 669 CURVE SMOOTH",
"864 942 OFFCURVE",
"709 1075 OFFCURVE",
"485 1075 CURVE SMOOTH",
"195 1075 LINE",
"195 1320 LINE",
"134 1320 LINE"
);
},
{
closed = 1;
nodes = (
"195 1013 LINE",
"480 1013 LINE SMOOTH",
"678 1013 OFFCURVE",
"803 906 OFFCURVE",
"803 672 CURVE SMOOTH",
"803 438 OFFCURVE",
"678 307 OFFCURVE",
"480 307 CURVE SMOOTH",
"195 307 LINE"
);
}
);
width = 962;
}
);
leftKerningGroup = H;
rightKerningGroup = Thorn;
unicode = 00DE;
},
{
glyphname = Q;
lastChange = "2020-04-11 19:54:09 +0000";
layers = (
{
components = (
{
name = O;
}
);
layerId = "C45C3DCC-6617-4D42-8E57-0A4EECAD9C2E";
paths = (
{
closed = 1;
nodes = (
"954 -22 OFFCURVE",
"875 34 OFFCURVE",
"701 34 CURVE SMOOTH",
"506 34 OFFCURVE",
"342 -43 OFFCURVE",
"262 -147 CURVE",
"411 -325 LINE",
"414 -318 OFFCURVE",
"491 -254 OFFCURVE",
"616 -254 CURVE SMOOTH",
"834 -254 OFFCURVE",
"875 -374 OFFCURVE",
"1080 -374 CURVE SMOOTH",
"1246 -374 OFFCURVE",
"1368 -290 OFFCURVE",
"1413 -206 CURVE",
"1291 42 LINE",
"1283 29 OFFCURVE",
"1186 -22 OFFCURVE",
"1075 -22 CURVE SMOOTH"
);
}
);
width = 1491;
},
{
components = (
{
name = O;
}
);
layerId = "9D4C2422-5CE9-4C2E-AAC7-BF869A02F5C8";
paths = (
{
closed = 1;
nodes = (
"918 -90 OFFCURVE",
"822 0 OFFCURVE",
"675 0 CURVE SMOOTH",
"558 0 OFFCURVE",
"485 -43 OFFCURVE",
"397 -109 CURVE",
"448 -165 LINE",
"454 -158 OFFCURVE",
"550 -64 OFFCURVE",
"672 -64 CURVE SMOOTH",
"819 -64 OFFCURVE",
"883 -157 OFFCURVE",
"1059 -157 CURVE SMOOTH",
"1197 -157 OFFCURVE",
"1269 -110 OFFCURVE",
"1296 -93 CURVE",
"1250 -34 LINE",
"1245 -40 OFFCURVE",
"1179 -90 OFFCURVE",
"1064 -90 CURVE SMOOTH"
);
}
);
width = 1379;
}
);
leftKerningGroup = O;
rightKerningGroup = O;
unicode = 0051;
},
{
glyphname = Q.ss01;
lastChange = "2020-04-11 19:54:09 +0000";
layers = (
{
anchors = (
{
name = bottom;
position = "{710, 0}";
},
{
name = top;
position = "{710, 1320}";
}
);
components = (
{
name = O;
}
);
layerId = "C45C3DCC-6617-4D42-8E57-0A4EECAD9C2E";
paths = (
{
closed = 1;
nodes = (
"1024 -166 LINE",
"1438 -166 LINE",
"1072 461 LINE",
"658 461 LINE"
);
}
);
width = 1488;
},
{
anchors = (
{
name = bottom;
position = "{669, 0}";
},
{
name = top;
position = "{669, 1320}";
}
);
components = (
{
name = O;
}
);
layerId = "9D4C2422-5CE9-4C2E-AAC7-BF869A02F5C8";
paths = (
{
closed = 1;
nodes = (
"1118 -166 LINE",
"1194 -166 LINE",
"827 461 LINE",
"752 461 LINE"
);
}
);
width = 1376;
}
);
leftKerningGroup = O;
rightKerningGroup = O;
},
{
glyphname = Q.ss02;
lastChange = "2020-04-11 19:54:09 +0000";
layers = (
{
anchors = (
{
name = bottom;
position = "{707, 0}";
},
{
name = top;
position = "{707, 1320}";
}
);
layerId = "C45C3DCC-6617-4D42-8E57-0A4EECAD9C2E";
paths = (
{
closed = 1;
nodes = (
"821 -24 OFFCURVE",
"939 2 OFFCURVE",
"1040 56 CURVE",
"1088 18 OFFCURVE",
"1170 -34 OFFCURVE",
"1285 -82 CURVE",
"1454 264 LINE",
"1328 301 OFFCURVE",
"1317 309 OFFCURVE",
"1291 317 CURVE",
"1346 416 OFFCURVE",
"1379 533 OFFCURVE",
"1379 661 CURVE SMOOTH",
"1379 1046 OFFCURVE",
"1070 1344 OFFCURVE",
"704 1344 CURVE SMOOTH",
"342 1344 OFFCURVE",
"29 1046 OFFCURVE",
"29 661 CURVE SMOOTH",
"29 275 OFFCURVE",
"315 -24 OFFCURVE",
"704 -24 CURVE SMOOTH"
);
},
{
closed = 1;
nodes = (
"494 373 OFFCURVE",
"448 515 OFFCURVE",
"448 661 CURVE SMOOTH",
"448 806 OFFCURVE",
"509 949 OFFCURVE",
"704 949 CURVE SMOOTH",
"902 949 OFFCURVE",
"960 806 OFFCURVE",
"960 661 CURVE SMOOTH",
"960 608 OFFCURVE",
"955 555 OFFCURVE",
"938 507 CURVE",
"784 614 OFFCURVE",
"696 728 OFFCURVE",
"730 694 CURVE",
"570 494 LINE",
"579 475 OFFCURVE",
"626 405 OFFCURVE",
"693 328 CURVE",
"686 355 OFFCURVE",
"693 373 OFFCURVE",
"704 373 CURVE SMOOTH"
);
}
);
width = 1490;
},
{
anchors = (
{
name = bottom;
position = "{683, 0}";
},
{
name = top;
position = "{683, 1320}";
}
);
layerId = "9D4C2422-5CE9-4C2E-AAC7-BF869A02F5C8";
paths = (
{
closed = 1;
nodes = (
"854 -24 OFFCURVE",
"1006 48 OFFCURVE",
"1114 166 CURVE",
"1206 115 OFFCURVE",
"1290 83 OFFCURVE",
"1347 70 CURVE",
"1378 123 LINE",
"1339 130 OFFCURVE",
"1250 168 OFFCURVE",
"1149 219 CURVE",
"1226 331 OFFCURVE",
"1275 485 OFFCURVE",
"1275 661 CURVE SMOOTH",
"1275 1046 OFFCURVE",
"1034 1344 OFFCURVE",
"669 1344 CURVE SMOOTH",
"306 1344 OFFCURVE",
"61 1046 OFFCURVE",
"61 661 CURVE SMOOTH",
"61 275 OFFCURVE",
"278 -24 OFFCURVE",
"669 -24 CURVE SMOOTH"
);
},
{
closed = 1;
nodes = (
"322 40 OFFCURVE",
"126 325 OFFCURVE",
"126 661 CURVE SMOOTH",
"126 997 OFFCURVE",
"336 1280 OFFCURVE",
"669 1280 CURVE SMOOTH",
"1002 1280 OFFCURVE",
"1210 997 OFFCURVE",
"1210 661 CURVE SMOOTH",
"1210 504 OFFCURVE",
"1166 360 OFFCURVE",
"1091 253 CURVE",
"1010 299 OFFCURVE",
"915 360 OFFCURVE",
"824 454 CURVE",
"784 405 LINE",
"864 320 OFFCURVE",
"955 254 OFFCURVE",
"1053 195 CURVE",
"955 91 OFFCURVE",
"813 40 OFFCURVE",
"669 40 CURVE SMOOTH"
);
}
);
width = 1405;
}
);
leftKerningGroup = Q.ss02;
rightKerningGroup = Q.ss02;
},
{
glyphname = R;
lastChange = "2020-04-11 19:54:09 +0000";
layers = (
{
anchors = (
{
name = bottom;
position = "{581, 0}";
},
{
name = top;
position = "{581, 1320}";
}
);
layerId = "C45C3DCC-6617-4D42-8E57-0A4EECAD9C2E";
paths = (
{
closed = 1;
nodes = (
"54 0 LINE",
"442 0 LINE",
"442 501 LINE",
"416 501 LINE",
"688 0 LINE",
"1122 0 LINE",
"806 531 LINE",
"904 552 OFFCURVE",
"1054 650 OFFCURVE",
"1054 904 CURVE SMOOTH",
"1054 1160 OFFCURVE",
"886 1320 OFFCURVE",
"646 1320 CURVE SMOOTH",
"54 1320 LINE"
);
},
{
closed = 1;
nodes = (
"442 1019 LINE",
"509 1019 LINE SMOOTH",
"579 1019 OFFCURVE",
"656 995 OFFCURVE",
"656 891 CURVE SMOOTH",
"656 787 OFFCURVE",
"576 763 OFFCURVE",
"506 763 CURVE SMOOTH",
"442 763 LINE"
);
}
);
width = 1234;
},
{
anchors = (
{
name = bottom;
position = "{480, 0}";
},
{
name = top;
position = "{480, 1320}";
}
);
layerId = "9D4C2422-5CE9-4C2E-AAC7-BF869A02F5C8";
paths = (
{
closed = 1;
nodes = (
"138 0 LINE",
"200 0 LINE",
"200 586 LINE",
"533 586 LINE",
"856 0 LINE",
"930 0 LINE",
"597 590 LINE",
"722 590 OFFCURVE",
"910 714 OFFCURVE",
"910 954 CURVE SMOOTH",
"910 1194 OFFCURVE",
"734 1320 OFFCURVE",
"534 1320 CURVE SMOOTH",
"138 1320 LINE"
);
},
{
closed = 1;
nodes = (
"200 1256 LINE",
"514 1256 LINE SMOOTH",
"714 1256 OFFCURVE",
"846 1162 OFFCURVE",
"846 954 CURVE SMOOTH",
"846 746 OFFCURVE",
"714 646 OFFCURVE",
"514 646 CURVE SMOOTH",
"200 646 LINE"
);
}
);
width = 1046;
}
);
leftKerningGroup = H;
rightKerningGroup = R;
unicode = 0052;
},
{
glyphname = S;
lastChange = "2020-04-11 19:54:09 +0000";
layers = (
{
anchors = (
{
name = bottom;
position = "{546, 0}";
},
{
name = top;
position = "{546, 1320}";
}
);
layerId = "C45C3DCC-6617-4D42-8E57-0A4EECAD9C2E";
paths = (
{
closed = 1;
nodes = (
"350 1344 OFFCURVE",
"118 1198 OFFCURVE",
"118 955 CURVE SMOOTH",
"118 714 OFFCURVE",
"282 605 OFFCURVE",
"450 544 CURVE SMOOTH",
"624 482 OFFCURVE",
"669 448 OFFCURVE",
"669 400 CURVE SMOOTH",
"669 355 OFFCURVE",
"630 330 OFFCURVE",
"546 330 CURVE SMOOTH",
"421 330 OFFCURVE",
"230 430 OFFCURVE",
"202 454 CURVE",
"13 131 LINE",
"45 99 OFFCURVE",
"251 -24 OFFCURVE",
"546 -24 CURVE SMOOTH",
"802 -24 OFFCURVE",
"1072 88 OFFCURVE",
"1072 382 CURVE SMOOTH",
"1072 603 OFFCURVE",
"926 731 OFFCURVE",
"722 798 CURVE SMOOTH",
"563 851 OFFCURVE",
"514 883 OFFCURVE",
"514 931 CURVE SMOOTH",
"514 978 OFFCURVE",
"566 995 OFFCURVE",
"637 995 CURVE SMOOTH",
"726 995 OFFCURVE",
"843 930 OFFCURVE",
"875 906 CURVE",
"1058 1216 LINE",
"1029 1238 OFFCURVE",
"850 1344 OFFCURVE",
"594 1344 CURVE SMOOTH"
);
}
);
width = 1163;
},
{
anchors = (
{
name = bottom;
position = "{482, 0}";
},
{
name = top;
position = "{482, 1320}";
}
);
layerId = "9D4C2422-5CE9-4C2E-AAC7-BF869A02F5C8";
paths = (
{
closed = 1;
nodes = (
"272 1344 OFFCURVE",
"115 1219 OFFCURVE",
"115 1053 CURVE SMOOTH",
"115 880 OFFCURVE",
"259 790 OFFCURVE",
"446 699 CURVE SMOOTH",
"621 614 OFFCURVE",
"819 517 OFFCURVE",
"819 326 CURVE SMOOTH",
"819 162 OFFCURVE",
"698 40 OFFCURVE",
"472 40 CURVE SMOOTH",
"269 40 OFFCURVE",
"147 131 OFFCURVE",
"112 158 CURVE",
"67 99 LINE",
"77 90 OFFCURVE",
"250 -24 OFFCURVE",
"467 -24 CURVE SMOOTH",
"723 -24 OFFCURVE",
"888 126 OFFCURVE",
"888 322 CURVE SMOOTH",
"888 557 OFFCURVE",
"670 664 OFFCURVE",
"498 746 CURVE SMOOTH",
"325 827 OFFCURVE",
"184 907 OFFCURVE",
"184 1051 CURVE SMOOTH",
"184 1194 OFFCURVE",
"299 1280 OFFCURVE",
"488 1280 CURVE SMOOTH",
"664 1280 OFFCURVE",
"757 1200 OFFCURVE",
"787 1173 CURVE",
"827 1229 LINE",
"814 1245 OFFCURVE",
"698 1344 OFFCURVE",
"485 1344 CURVE SMOOTH"
);
}
);
width = 1003;
}
);
leftKerningGroup = S;
rightKerningGroup = S;
unicode = 0053;
},
{
glyphname = Germandbls;
lastChange = "2020-04-11 19:54:43 +0000";
layers = (
{
anchors = (
{
name = bottom;
position = "{624, 0}";
},
{
name = top;
position = "{624, 1320}";
}
);
layerId = "C45C3DCC-6617-4D42-8E57-0A4EECAD9C2E";
paths = (
{
closed = 1;
nodes = (
"531 -10 LINE",
"608 -24 OFFCURVE",
"672 -30 OFFCURVE",
"744 -30 CURVE SMOOTH",
"1002 -30 OFFCURVE",
"1235 93 OFFCURVE",
"1235 370 CURVE SMOOTH",
"1235 693 OFFCURVE",
"1040 749 OFFCURVE",
"874 760 CURVE",
"1096 979 LINE",
"1096 1283 LINE",
"973 1323 OFFCURVE",
"787 1350 OFFCURVE",
"666 1350 CURVE SMOOTH",
"309 1350 OFFCURVE",
"78 1222 OFFCURVE",
"78 938 CURVE SMOOTH",
"78 0 LINE",
"458 0 LINE",
"458 773 LINE SMOOTH",
"458 909 OFFCURVE",
"475 1035 OFFCURVE",
"624 1035 CURVE SMOOTH",
"638 1035 OFFCURVE",
"688 1034 OFFCURVE",
"717 1030 CURVE",
"531 843 LINE",
"531 515 LINE",
"726 533 OFFCURVE",
"845 477 OFFCURVE",
"845 397 CURVE SMOOTH",
"845 325 OFFCURVE",
"768 285 OFFCURVE",
"696 285 CURVE SMOOTH",
"637 285 OFFCURVE",
"589 291 OFFCURVE",
"531 309 CURVE"
);
}
);
width = 1319;
},
{
anchors = (
{
name = bottom;
position = "{581, 0}";
},
{
name = top;
position = "{581, 1320}";
}
);
layerId = "9D4C2422-5CE9-4C2E-AAC7-BF869A02F5C8";
paths = (
{
closed = 1;
nodes = (
"408 26 LINE",
"477 -2 OFFCURVE",
"574 -18 OFFCURVE",
"672 -18 CURVE SMOOTH",
"898 -18 OFFCURVE",
"1074 123 OFFCURVE",
"1074 392 CURVE SMOOTH",
"1074 688 OFFCURVE",
"840 763 OFFCURVE",
"614 736 CURVE",
"949 1246 LINE",
"954 1309 LINE",
"816 1336 OFFCURVE",
"701 1352 OFFCURVE",
"600 1352 CURVE SMOOTH",
"302 1352 OFFCURVE",
"126 1219 OFFCURVE",
"126 882 CURVE SMOOTH",
"126 0 LINE",
"190 0 LINE",
"190 851 LINE SMOOTH",
"190 1170 OFFCURVE",
"314 1291 OFFCURVE",
"611 1291 CURVE SMOOTH",
"691 1291 OFFCURVE",
"797 1280 OFFCURVE",
"886 1258 CURVE",
"544 744 LINE",
"544 670 LINE",
"875 723 OFFCURVE",
"1008 606 OFFCURVE",
"1008 381 CURVE SMOOTH",
"1008 189 OFFCURVE",
"904 46 OFFCURVE",
"667 46 CURVE SMOOTH",
"581 46 OFFCURVE",
"480 66 OFFCURVE",
"408 93 CURVE"
);
}
);
width = 1196;
}
);
leftKerningGroup = Germandbls;
leftMetricsKey = B;
rightKerningGroup = Germandbls;
rightMetricsKey = B;
unicode = 1E9E;
},
{
glyphname = Schwa;
lastChange = "2020-04-11 19:54:43 +0000";
layers = (
{
layerId = "9D4C2422-5CE9-4C2E-AAC7-BF869A02F5C8";
paths = (
{
closed = 1;
nodes = (
"1002 -13 OFFCURVE",
"1227 294 OFFCURVE",
"1227 686 CURVE SMOOTH",
"1227 1106 OFFCURVE",
"987 1344 OFFCURVE",
"632 1344 CURVE SMOOTH",
"350 1344 OFFCURVE",
"144 1165 OFFCURVE",
"94 1050 CURVE",
"154 1010 LINE",
"181 1074 OFFCURVE",
"336 1282 OFFCURVE",
"629 1282 CURVE SMOOTH",
"952 1282 OFFCURVE",
"1158 1061 OFFCURVE",
"1158 691 CURVE",
"50 691 LINE",
"50 682 OFFCURVE",
"48 669 OFFCURVE",
"48 658 CURVE SMOOTH",
"48 293 OFFCURVE",
"274 -13 OFFCURVE",
"624 -13 CURVE SMOOTH"
);
},
{
closed = 1;
nodes = (
"304 51 OFFCURVE",
"118 346 OFFCURVE",
"118 627 CURVE",
"1154 627 LINE",
"1154 339 OFFCURVE",
"968 51 OFFCURVE",
"624 51 CURVE SMOOTH"
);
}
);
width = 1316;
},
{
layerId = "C45C3DCC-6617-4D42-8E57-0A4EECAD9C2E";
paths = (
{
closed = 1;
nodes = (
"1062 -26 OFFCURVE",
"1322 226 OFFCURVE",
"1322 661 CURVE SMOOTH",
"1322 1112 OFFCURVE",
"1022 1344 OFFCURVE",
"664 1344 CURVE SMOOTH",
"368 1344 OFFCURVE",
"163 1194 OFFCURVE",
"99 1128 CURVE",
"387 874 LINE",
"432 926 OFFCURVE",
"514 998 OFFCURVE",
"666 998 CURVE SMOOTH",
"827 998 OFFCURVE",
"933 898 OFFCURVE",
"933 779 CURVE",
"42 779 LINE",
"38 770 OFFCURVE",
"38 680 OFFCURVE",
"38 669 CURVE SMOOTH",
"38 259 OFFCURVE",
"278 -26 OFFCURVE",
"670 -26 CURVE SMOOTH"
);
},
{
closed = 1;
nodes = (
"494 291 OFFCURVE",
"426 419 OFFCURVE",
"426 522 CURVE",
"925 522 LINE",
"925 413 OFFCURVE",
"848 291 OFFCURVE",
"674 291 CURVE SMOOTH"
);
}
);
width = 1410;
}
);
leftKerningGroup = O;
leftMetricsKey = O;
rightKerningGroup = O;
rightMetricsKey = O;
unicode = 018F;
},
{
glyphname = T;
lastChange = "2020-04-11 19:54:09 +0000";
layers = (
{
anchors = (
{
name = bottom;
position = "{485, 0}";
},
{
name = center;
position = "{485, 661}";
},
{
name = top;
position = "{485, 1320}";
}
);
layerId = "C45C3DCC-6617-4D42-8E57-0A4EECAD9C2E";
paths = (
{
closed = 1;
nodes = (
"291 0 LINE",
"678 0 LINE",
"678 984 LINE",
"963 984 LINE",
"963 1320 LINE",
"6 1320 LINE",
"6 984 LINE",
"291 984 LINE"
);
}
);
width = 1042;
},
{
anchors = (
{
name = bottom;
position = "{461, 0}";
},
{
name = center;
position = "{461, 661}";
},
{
name = top;
position = "{461, 1320}";
}
);
layerId = "9D4C2422-5CE9-4C2E-AAC7-BF869A02F5C8";
paths = (
{
closed = 1;
nodes = (
"429 0 LINE",
"493 0 LINE",
"493 1256 LINE",
"885 1256 LINE",
"885 1320 LINE",
"37 1320 LINE",
"37 1256 LINE",
"429 1256 LINE"
);
}
);
width = 962;
}
);
leftKerningGroup = T;
rightKerningGroup = T;
unicode = 0054;
},
{
glyphname = Tbar;
lastChange = "2020-06-16 19:51:57 +0000";
layers = (
{
components = (
{
name = T;
}
);
layerId = "C45C3DCC-6617-4D42-8E57-0A4EECAD9C2E";
paths = (
{
closed = 1;
nodes = (
"6 523 LINE",
"960 523 LINE",
"960 798 LINE",
"6 798 LINE"
);
}
);
width = 1042;
},
{
components = (
{
name = T;
}
);
layerId = "9D4C2422-5CE9-4C2E-AAC7-BF869A02F5C8";
paths = (
{
closed = 1;
nodes = (
"53 701 LINE",
"862 701 LINE",
"862 765 LINE",
"53 765 LINE"
);
}
);
width = 962;
}
);
leftKerningGroup = T;
rightKerningGroup = T;
unicode = 0166;
},
{
glyphname = U;
lastChange = "2020-04-11 19:54:09 +0000";
layers = (
{
anchors = (
{
name = bottom;
position = "{621, 0}";
},
{
name = ogonek;
position = "{1120, 16}";
},
{
name = top;
position = "{621, 1320}";
},
{
name = topright;
position = "{1171, 1320}";
}
);
layerId = "C45C3DCC-6617-4D42-8E57-0A4EECAD9C2E";
paths = (
{
closed = 1;
nodes = (
"784 536 LINE SMOOTH",
"784 389 OFFCURVE",
"731 326 OFFCURVE",
"621 326 CURVE SMOOTH",
"509 326 OFFCURVE",
"456 389 OFFCURVE",
"456 536 CURVE SMOOTH",
"456 1320 LINE",
"69 1320 LINE",
"69 515 LINE SMOOTH",
"69 189 OFFCURVE",
"262 -24 OFFCURVE",
"621 -24 CURVE SMOOTH",
"979 -24 OFFCURVE",
"1171 189 OFFCURVE",
"1171 515 CURVE SMOOTH",
"1171 1320 LINE",
"784 1320 LINE"
);
}
);
width = 1294;
},
{
anchors = (
{
name = bottom;
position = "{594, 0}";
},
{
name = ogonek;
position = "{1006, 16}";
},
{
name = top;
position = "{594, 1320}";
},
{
name = topright;
position = "{1074, 1320}";
}
);
layerId = "9D4C2422-5CE9-4C2E-AAC7-BF869A02F5C8";
paths = (
{
closed = 1;
nodes = (
"1011 496 LINE SMOOTH",
"1011 222 OFFCURVE",
"824 40 OFFCURVE",
"594 40 CURVE SMOOTH",
"363 40 OFFCURVE",
"174 222 OFFCURVE",
"174 496 CURVE SMOOTH",
"174 1320 LINE",
"112 1320 LINE",
"112 493 LINE SMOOTH",
"112 166 OFFCURVE",
"333 -24 OFFCURVE",
"594 -24 CURVE SMOOTH",
"854 -24 OFFCURVE",
"1074 166 OFFCURVE",
"1074 493 CURVE SMOOTH",
"1074 1320 LINE",
"1011 1320 LINE"
);
}
);
width = 1218;
}
);
leftKerningGroup = U;
rightKerningGroup = U;
unicode = 0055;
},
{
glyphname = V;
lastChange = "2020-04-11 19:54:09 +0000";
layers = (
{
anchors = (
{
name = bottom;
position = "{677, 0}";
},
{
name = top;
position = "{677, 1320}";
}
);
layerId = "C45C3DCC-6617-4D42-8E57-0A4EECAD9C2E";
paths = (
{
closed = 1;
nodes = (
"1354 1320 LINE",
"917 1320 LINE",
"677 501 LINE",
"437 1320 LINE",
"0 1320 LINE",
"461 0 LINE",
"893 0 LINE"
);
}
);
width = 1418;
},
{
anchors = (
{
name = bottom;
position = "{563, 0}";
},
{
name = top;
position = "{563, 1320}";
}
);
layerId = "9D4C2422-5CE9-4C2E-AAC7-BF869A02F5C8";
paths = (
{
closed = 1;
nodes = (
"1102 1320 LINE",
"1032 1320 LINE",
"563 61 LINE",
"96 1320 LINE",
"26 1320 LINE",
"520 0 LINE",
"606 0 LINE"
);
}
);
width = 1166;
}
);
leftKerningGroup = V;
rightKerningGroup = V;
unicode = 0056;
},
{
glyphname = W;
lastChange = "2020-04-11 19:54:09 +0000";
layers = (
{
anchors = (
{
name = bottom;
position = "{952, 0}";
},
{
name = top;
position = "{952, 1320}";
}
);
layerId = "C45C3DCC-6617-4D42-8E57-0A4EECAD9C2E";
paths = (
{
closed = 1;
nodes = (
"1870 1320 LINE",
"1424 1320 LINE",
"1294 512 LINE",
"1299 512 LINE",
"1077 1320 LINE",
"803 1320 LINE",
"581 512 LINE",
"586 512 LINE",
"456 1320 LINE",
"10 1320 LINE",
"328 0 LINE",
"789 0 LINE",
"974 782 LINE",
"907 782 LINE",
"1091 0 LINE",
"1550 0 LINE"
);
}
);
width = 1957;
},
{
anchors = (
{
name = bottom;
position = "{726, 0}";
},
{
name = top;
position = "{726, 1320}";
}
);
layerId = "9D4C2422-5CE9-4C2E-AAC7-BF869A02F5C8";
paths = (
{
closed = 1;
nodes = (
"1386 1320 LINE",
"1317 1320 LINE",
"1080 78 LINE",
"1082 78 LINE",
"763 1320 LINE",
"667 1320 LINE",
"349 78 LINE",
"350 78 LINE",
"114 1320 LINE",
"45 1320 LINE",
"302 0 LINE",
"395 0 LINE",
"723 1290 LINE",
"707 1290 LINE",
"1035 0 LINE",
"1128 0 LINE"
);
}
);
width = 1493;
}
);
leftKerningGroup = W;
rightKerningGroup = W;
unicode = 0057;
},
{
glyphname = X;
lastChange = "2020-04-11 19:54:09 +0000";
layers = (
{
anchors = (
{
name = bottom;
position = "{726, 0}";
},
{
name = top;
position = "{726, 1320}";
}
);
layerId = "C45C3DCC-6617-4D42-8E57-0A4EECAD9C2E";
paths = (
{
closed = 1;
nodes = (
"1386 1320 LINE",
"915 1320 LINE",
"730 1008 LINE",
"544 1320 LINE",
"50 1320 LINE",
"475 710 LINE",
"8 0 LINE",
"475 0 LINE",
"714 386 LINE",
"968 0 LINE",
"1475 0 LINE",
"970 710 LINE"
);
}
);
width = 1531;
},
{
anchors = (
{
name = bottom;
position = "{528, 0}";
},
{
name = top;
position = "{528, 1320}";
}
);
layerId = "9D4C2422-5CE9-4C2E-AAC7-BF869A02F5C8";
paths = (
{
closed = 1;
nodes = (
"1000 1320 LINE",
"923 1320 LINE",
"531 760 LINE",
"134 1320 LINE",
"58 1320 LINE",
"483 710 LINE",
"10 0 LINE",
"86 0 LINE",
"531 661 LINE",
"971 0 LINE",
"1048 0 LINE",
"579 710 LINE"
);
}
);
width = 1096;
}
);
leftKerningGroup = X;
rightKerningGroup = X;
unicode = 0058;
},
{
glyphname = Y;
lastChange = "2020-04-11 19:54:09 +0000";
layers = (
{
anchors = (
{
name = bottom;
position = "{598, 0}";
},
{
name = top;
position = "{598, 1320}";
},
{
name = topleft;
position = "{-10, 1320}";
}
);
layerId = "C45C3DCC-6617-4D42-8E57-0A4EECAD9C2E";
paths = (
{
closed = 1;
nodes = (
"405 0 LINE",
"792 0 LINE",
"792 475 LINE",
"1253 1320 LINE",
"784 1320 LINE",
"598 915 LINE",
"413 1320 LINE",
"-58 1320 LINE",
"405 475 LINE"
);
}
);
width = 1266;
},
{
anchors = (
{
name = bottom;
position = "{493, 0}";
},
{
name = top;
position = "{493, 1320}";
},
{
name = topleft;
position = "{75, 1320}";
}
);
layerId = "9D4C2422-5CE9-4C2E-AAC7-BF869A02F5C8";
paths = (
{
closed = 1;
nodes = (
"461 0 LINE",
"525 0 LINE",
"525 475 LINE",
"957 1320 LINE",
"883 1320 LINE",
"493 554 LINE",
"101 1320 LINE",
"27 1320 LINE",
"461 475 LINE"
);
}
);
width = 1026;
}
);
leftKerningGroup = Y;
rightKerningGroup = Y;
unicode = 0059;
},
{
glyphname = Z;
lastChange = "2020-04-11 19:54:09 +0000";
layers = (
{
anchors = (
{
name = bottom;
position = "{624, 0}";
},
{
name = top;
position = "{624, 1320}";
}
);
layerId = "C45C3DCC-6617-4D42-8E57-0A4EECAD9C2E";
paths = (
{
closed = 1;
nodes = (
"83 984 LINE",
"581 984 LINE",
"-10 0 LINE",
"1213 0 LINE",
"1213 336 LINE",
"661 336 LINE",
"1256 1320 LINE",
"83 1320 LINE"
);
}
);
width = 1318;
},
{
anchors = (
{
name = bottom;
position = "{534, 0}";
},
{
name = top;
position = "{534, 1320}";
}
);
layerId = "9D4C2422-5CE9-4C2E-AAC7-BF869A02F5C8";
paths = (
{
closed = 1;
nodes = (
"157 1256 LINE",
"886 1256 LINE",
"64 0 LINE",
"960 0 LINE",
"960 64 LINE",
"187 64 LINE",
"1003 1320 LINE",
"157 1320 LINE"
);
}
);
width = 1107;
}
);
leftKerningGroup = Z;
rightKerningGroup = Z;
unicode = 005A;
},
{
glyphname = a;
lastChange = "2020-04-11 19:54:09 +0000";
layers = (
{
anchors = (
{
name = bottom;
position = "{570, 0}";
},
{
name = ogonek;
position = "{1029, 16}";
},
{
name = top;
position = "{570, 821}";
}
);
layerId = "C45C3DCC-6617-4D42-8E57-0A4EECAD9C2E";
paths = (
{
closed = 1;
nodes = (
"1078 0 LINE",
"1078 821 LINE",
"686 821 LINE",
"686 725 LINE",
"651 776 OFFCURVE",
"566 845 OFFCURVE",
"426 845 CURVE SMOOTH",
"179 845 OFFCURVE",
"32 635 OFFCURVE",
"32 410 CURVE SMOOTH",
"32 184 OFFCURVE",
"179 -24 OFFCURVE",
"426 -24 CURVE SMOOTH",
"573 -24 OFFCURVE",
"669 78 OFFCURVE",
"690 115 CURVE",
"690 0 LINE"
);
},
{
closed = 1;
nodes = (
"418 478 OFFCURVE",
"472 541 OFFCURVE",
"552 541 CURVE SMOOTH",
"632 541 OFFCURVE",
"686 478 OFFCURVE",
"686 410 CURVE SMOOTH",
"686 341 OFFCURVE",
"632 280 OFFCURVE",
"552 280 CURVE SMOOTH",
"472 280 OFFCURVE",
"418 341 OFFCURVE",
"418 410 CURVE SMOOTH"
);
}
);
width = 1174;
},
{
anchors = (
{
name = bottom;
position = "{493, 0}";
},
{
name = ogonek;
position = "{869, 16}";
},
{
name = top;
position = "{493, 821}";
}
);
layerId = "9D4C2422-5CE9-4C2E-AAC7-BF869A02F5C8";
paths = (
{
closed = 1;
nodes = (
"864 0 LINE",
"864 821 LINE",
"802 821 LINE",
"802 638 LINE",
"795 701 OFFCURVE",
"669 845 OFFCURVE",
"472 845 CURVE SMOOTH",
"253 845 OFFCURVE",
"58 690 OFFCURVE",
"58 410 CURVE SMOOTH",
"58 130 OFFCURVE",
"253 -24 OFFCURVE",
"472 -24 CURVE SMOOTH",
"670 -24 OFFCURVE",
"790 125 OFFCURVE",
"802 182 CURVE",
"802 0 LINE"
);
},
{
closed = 1;
nodes = (
"122 642 OFFCURVE",
"294 781 OFFCURVE",
"466 781 CURVE SMOOTH",
"656 781 OFFCURVE",
"798 637 OFFCURVE",
"798 410 CURVE SMOOTH",
"798 182 OFFCURVE",
"656 40 OFFCURVE",
"466 40 CURVE SMOOTH",
"294 40 OFFCURVE",
"122 178 OFFCURVE",
"122 410 CURVE SMOOTH"
);
}
);
width = 1008;
}
);
leftKerningGroup = o;
leftMetricsKey = o;
rightKerningGroup = n;
unicode = 0061;
},
{
glyphname = a.ss01;
lastChange = "2020-06-16 20:42:45 +0000";
layers = (
{
anchors = (
{
name = bottom;
position = "{429, 0}";
},
{
name = ogonek;
position = "{993, 16}";
},
{
name = top;
position = "{448, 821}";
}
);
layerId = "9D4C2422-5CE9-4C2E-AAC7-BF869A02F5C8";
paths = (
{
closed = 1;
nodes = (
"583 -24 OFFCURVE",
"731 50 OFFCURVE",
"773 116 CURVE",
"759 134 LINE",
"759 0 LINE",
"825 0 LINE",
"825 497 LINE SMOOTH",
"825 729 OFFCURVE",
"651 845 OFFCURVE",
"443 845 CURVE SMOOTH",
"225 845 OFFCURVE",
"112 725 OFFCURVE",
"76 654 CURVE",
"140 620 LINE",
"180 689 OFFCURVE",
"259 781 OFFCURVE",
"439 781 CURVE SMOOTH",
"615 781 OFFCURVE",
"759 689 OFFCURVE",
"759 481 CURVE SMOOTH",
"759 398 LINE",
"765 418 LINE",
"730 467 OFFCURVE",
"601 532 OFFCURVE",
"424 532 CURVE SMOOTH",
"238 532 OFFCURVE",
"58 465 OFFCURVE",
"58 255 CURVE SMOOTH",
"58 47 OFFCURVE",
"239 -24 OFFCURVE",
"409 -24 CURVE SMOOTH"
);
},
{
closed = 1;
nodes = (
"277 37 OFFCURVE",
"124 79 OFFCURVE",
"124 255 CURVE SMOOTH",
"124 433 OFFCURVE",
"280 468 OFFCURVE",
"426 468 CURVE SMOOTH",
"584 468 OFFCURVE",
"713 407 OFFCURVE",
"759 344 CURVE",
"759 178 LINE",
"711 114 OFFCURVE",
"577 37 OFFCURVE",
"411 37 CURVE SMOOTH"
);
}
);
width = 974;
},
{
anchors = (
{
name = bottom;
position = "{502, 0}";
},
{
name = ogonek;
position = "{1114, 17}";
},
{
name = top;
position = "{514, 821}";
}
);
layerId = "C45C3DCC-6617-4D42-8E57-0A4EECAD9C2E";
paths = (
{
closed = 1;
nodes = (
"515 -24 OFFCURVE",
"601 66 OFFCURVE",
"617 135 CURVE",
"594 143 LINE",
"594 0 LINE",
"979 0 LINE",
"979 433 LINE SMOOTH",
"979 757 OFFCURVE",
"691 845 OFFCURVE",
"433 845 CURVE SMOOTH",
"208 845 OFFCURVE",
"53 790 OFFCURVE",
"32 778 CURVE",
"182 506 LINE",
"226 535 OFFCURVE",
"306 557 OFFCURVE",
"400 557 CURVE SMOOTH",
"525 557 OFFCURVE",
"594 501 OFFCURVE",
"594 437 CURVE SMOOTH",
"594 395 LINE",
"614 405 LINE",
"594 468 OFFCURVE",
"482 512 OFFCURVE",
"364 512 CURVE SMOOTH",
"230 512 OFFCURVE",
"36 457 OFFCURVE",
"36 255 CURVE SMOOTH",
"36 87 OFFCURVE",
"168 -24 OFFCURVE",
"328 -24 CURVE SMOOTH"
);
},
{
closed = 1;
nodes = (
"459 200 OFFCURVE",
"429 220 OFFCURVE",
"429 252 CURVE SMOOTH",
"429 284 OFFCURVE",
"459 306 OFFCURVE",
"498 306 CURVE SMOOTH",
"540 306 OFFCURVE",
"590 271 OFFCURVE",
"594 215 CURVE",
"594 296 LINE",
"591 233 OFFCURVE",
"540 200 OFFCURVE",
"498 200 CURVE SMOOTH"
);
}
);
width = 1051;
},
{
anchors = (
{
name = bottom;
position = "{458, 0}";
},
{
name = ogonek;
position = "{1043, 16}";
},
{
name = top;
position = "{474, 821}";
}
);
associatedMasterId = "9D4C2422-5CE9-4C2E-AAC7-BF869A02F5C8";
layerId = "71917C00-926A-44BB-A13C-9ADBCE6C9CF8";
name = "Medium{500}";
paths = (
{
closed = 1;
nodes = (
"552 -24 OFFCURVE",
"673 47 OFFCURVE",
"704 114 CURVE",
"686 138 LINE",
"686 0 LINE",
"889 0 LINE",
"889 470 LINE SMOOTH",
"889 741 OFFCURVE",
"666 845 OFFCURVE",
"437 845 CURVE SMOOTH",
"226 845 OFFCURVE",
"85 753 OFFCURVE",
"55 717 CURVE",
"166 591 LINE",
"208 633 OFFCURVE",
"287 685 OFFCURVE",
"430 685 CURVE SMOOTH",
"584 685 OFFCURVE",
"686 608 OFFCURVE",
"686 462 CURVE SMOOTH",
"686 397 LINE",
"698 422 LINE",
"670 474 OFFCURVE",
"548 523 OFFCURVE",
"396 523 CURVE SMOOTH",
"233 523 OFFCURVE",
"47 462 OFFCURVE",
"47 255 CURVE SMOOTH",
"47 64 OFFCURVE",
"207 -24 OFFCURVE",
"372 -24 CURVE SMOOTH"
);
},
{
closed = 1;
nodes = (
"343 127 OFFCURVE",
"253 159 OFFCURVE",
"253 254 CURVE SMOOTH",
"253 349 OFFCURVE",
"335 389 OFFCURVE",
"435 389 CURVE SMOOTH",
"543 389 OFFCURVE",
"658 328 OFFCURVE",
"686 268 CURVE",
"686 253 LINE",
"658 189 OFFCURVE",
"539 127 OFFCURVE",
"436 127 CURVE SMOOTH"
);
}
);
width = 1005;
}
);
leftKerningGroup = o;
leftMetricsKey = o;
rightKerningGroup = n;
rightMetricsKey = n;
},
{
glyphname = ae;
lastChange = "2020-04-11 19:54:43 +0000";
layers = (
{
anchors = (
{
name = bottom;
position = "{838, 0}";
},
{
name = top;
position = "{838, 821}";
}
);
layerId = "C45C3DCC-6617-4D42-8E57-0A4EECAD9C2E";
paths = (
{
closed = 1;
nodes = (
"592 -24 OFFCURVE",
"723 62 OFFCURVE",
"765 126 CURVE",
"845 37 OFFCURVE",
"971 -24 OFFCURVE",
"1112 -24 CURVE SMOOTH",
"1306 -24 OFFCURVE",
"1442 21 OFFCURVE",
"1544 102 CURVE",
"1341 323 LINE",
"1288 275 OFFCURVE",
"1200 256 OFFCURVE",
"1133 256 CURVE SMOOTH",
"1114 256 OFFCURVE",
"982 274 OFFCURVE",
"982 363 CURVE",
"1571 363 LINE",
"1571 373 OFFCURVE",
"1573 398 OFFCURVE",
"1573 410 CURVE SMOOTH",
"1573 714 OFFCURVE",
"1376 845 OFFCURVE",
"1112 845 CURVE SMOOTH",
"971 845 OFFCURVE",
"856 784 OFFCURVE",
"786 723 CURVE",
"741 795 OFFCURVE",
"602 845 OFFCURVE",
"451 845 CURVE SMOOTH",
"246 845 OFFCURVE",
"91 805 OFFCURVE",
"32 774 CURVE",
"184 533 LINE",
"222 552 OFFCURVE",
"312 579 OFFCURVE",
"419 579 CURVE SMOOTH",
"579 579 OFFCURVE",
"618 510 OFFCURVE",
"618 478 CURVE SMOOTH",
"618 466 LINE",
"595 480 OFFCURVE",
"542 514 OFFCURVE",
"416 514 CURVE SMOOTH",
"211 514 OFFCURVE",
"72 394 OFFCURVE",
"72 258 CURVE SMOOTH",
"72 86 OFFCURVE",
"200 -24 OFFCURVE",
"384 -24 CURVE SMOOTH"
);
},
{
closed = 1;
nodes = (
"427 190 OFFCURVE",
"395 222 OFFCURVE",
"395 261 CURVE SMOOTH",
"395 299 OFFCURVE",
"427 331 OFFCURVE",
"466 331 CURVE SMOOTH",
"504 331 OFFCURVE",
"536 299 OFFCURVE",
"536 261 CURVE SMOOTH",
"536 222 OFFCURVE",
"504 190 OFFCURVE",
"466 190 CURVE SMOOTH"
);
},
{
closed = 1;
nodes = (
"998 586 OFFCURVE",
"1058 624 OFFCURVE",
"1122 624 CURVE SMOOTH",
"1194 624 OFFCURVE",
"1221 579 OFFCURVE",
"1232 550 CURVE",
"990 550 LINE"
);
}
);
width = 1637;
},
{
anchors = (
{
name = bottom;
position = "{686, 0}";
},
{
name = top;
position = "{686, 821}";
}
);
layerId = "9D4C2422-5CE9-4C2E-AAC7-BF869A02F5C8";
paths = (
{
closed = 1;
nodes = (
"525 -24 OFFCURVE",
"638 98 OFFCURVE",
"659 158 CURVE",
"694 62 OFFCURVE",
"826 -24 OFFCURVE",
"973 -24 CURVE SMOOTH",
"1142 -24 OFFCURVE",
"1259 102 OFFCURVE",
"1299 171 CURVE",
"1242 208 LINE",
"1222 168 OFFCURVE",
"1130 40 OFFCURVE",
"979 40 CURVE SMOOTH",
"778 40 OFFCURVE",
"696 165 OFFCURVE",
"696 392 CURVE",
"1312 392 LINE",
"1312 402 OFFCURVE",
"1314 398 OFFCURVE",
"1314 410 CURVE SMOOTH",
"1314 698 OFFCURVE",
"1182 845 OFFCURVE",
"973 845 CURVE SMOOTH",
"822 845 OFFCURVE",
"699 720 OFFCURVE",
"677 624 CURVE",
"646 722 OFFCURVE",
"562 845 OFFCURVE",
"382 845 CURVE SMOOTH",
"245 845 OFFCURVE",
"142 784 OFFCURVE",
"102 739 CURVE",
"152 677 LINE",
"187 722 OFFCURVE",
"275 781 OFFCURVE",
"382 781 CURVE SMOOTH",
"464 781 OFFCURVE",
"626 728 OFFCURVE",
"626 478 CURVE SMOOTH",
"626 427 LINE",
"608 450 OFFCURVE",
"515 517 OFFCURVE",
"373 517 CURVE SMOOTH",
"205 517 OFFCURVE",
"58 413 OFFCURVE",
"58 250 CURVE SMOOTH",
"58 59 OFFCURVE",
"203 -24 OFFCURVE",
"366 -24 CURVE SMOOTH"
);
},
{
closed = 1;
nodes = (
"224 42 OFFCURVE",
"123 128 OFFCURVE",
"123 248 CURVE SMOOTH",
"123 382 OFFCURVE",
"261 453 OFFCURVE",
"381 453 CURVE SMOOTH",
"518 453 OFFCURVE",
"626 379 OFFCURVE",
"626 259 CURVE SMOOTH",
"626 154 OFFCURVE",
"512 38 OFFCURVE",
"357 40 CURVE SMOOTH"
);
},
{
closed = 1;
nodes = (
"717 653 OFFCURVE",
"811 781 OFFCURVE",
"979 781 CURVE SMOOTH",
"1208 781 OFFCURVE",
"1238 539 OFFCURVE",
"1240 453 CURVE",
"704 453 LINE"
);
}
);
width = 1412;
}
);
leftKerningGroup = a;
leftMetricsKey = a;
rightKerningGroup = e;
rightMetricsKey = e;
unicode = 00E6;
},
{
glyphname = b;
lastChange = "2020-04-11 19:54:09 +0000";
layers = (
{
anchors = (
{
name = bottom;
position = "{587, 0}";
},
{
name = top;
position = "{587, 1440}";
}
);
layerId = "C45C3DCC-6617-4D42-8E57-0A4EECAD9C2E";
paths = (
{
closed = 1;
nodes = (
"453 0 LINE",
"453 115 LINE",
"506 34 OFFCURVE",
"613 -24 OFFCURVE",
"720 -24 CURVE SMOOTH",
"966 -24 OFFCURVE",
"1110 184 OFFCURVE",
"1110 410 CURVE SMOOTH",
"1110 635 OFFCURVE",
"966 845 OFFCURVE",
"720 845 CURVE SMOOTH",
"579 845 OFFCURVE",
"478 776 OFFCURVE",
"456 725 CURVE",
"456 1376 LINE",
"64 1376 LINE",
"64 0 LINE"
);
},
{
closed = 1;
nodes = (
"725 341 OFFCURVE",
"670 280 OFFCURVE",
"590 280 CURVE SMOOTH",
"510 280 OFFCURVE",
"456 341 OFFCURVE",
"456 410 CURVE SMOOTH",
"456 478 OFFCURVE",
"510 541 OFFCURVE",
"590 541 CURVE SMOOTH",
"670 541 OFFCURVE",
"725 478 OFFCURVE",
"725 410 CURVE SMOOTH"
);
}
);
width = 1165;
},
{
anchors = (
{
name = bottom;
position = "{475, 0}";
},
{
name = top;
position = "{475, 1440}";
}
);
layerId = "9D4C2422-5CE9-4C2E-AAC7-BF869A02F5C8";
paths = (
{
closed = 1;
nodes = (
"184 0 LINE",
"184 182 LINE",
"190 122 OFFCURVE",
"328 -24 OFFCURVE",
"530 -24 CURVE SMOOTH",
"749 -24 OFFCURVE",
"928 130 OFFCURVE",
"928 410 CURVE SMOOTH",
"928 690 OFFCURVE",
"749 845 OFFCURVE",
"530 845 CURVE SMOOTH",
"330 845 OFFCURVE",
"194 706 OFFCURVE",
"187 638 CURVE",
"187 1376 LINE",
"120 1376 LINE",
"120 0 LINE"
);
},
{
closed = 1;
nodes = (
"862 178 OFFCURVE",
"707 40 OFFCURVE",
"536 40 CURVE SMOOTH",
"346 40 OFFCURVE",
"187 182 OFFCURVE",
"187 410 CURVE SMOOTH",
"187 637 OFFCURVE",
"346 781 OFFCURVE",
"536 781 CURVE SMOOTH",
"707 781 OFFCURVE",
"862 642 OFFCURVE",
"862 410 CURVE SMOOTH"
);
}
);
width = 989;
}
);
leftKerningGroup = h;
rightKerningGroup = o;
unicode = 0062;
},
{
glyphname = c;
lastChange = "2020-04-11 19:54:09 +0000";
layers = (
{
anchors = (
{
name = bottom;
position = "{430, 0}";
},
{
name = top;
position = "{430, 821}";
}
);
layerId = "C45C3DCC-6617-4D42-8E57-0A4EECAD9C2E";
paths = (
{
closed = 1;
nodes = (
"477 280 OFFCURVE",
"422 344 OFFCURVE",
"422 411 CURVE SMOOTH",
"422 477 OFFCURVE",
"477 541 OFFCURVE",
"555 541 CURVE SMOOTH",
"616 541 OFFCURVE",
"656 510 OFFCURVE",
"669 499 CURVE",
"850 763 LINE",
"811 795 OFFCURVE",
"699 845 OFFCURVE",
"554 845 CURVE SMOOTH",
"230 845 OFFCURVE",
"46 666 OFFCURVE",
"46 411 CURVE SMOOTH",
"46 157 OFFCURVE",
"230 -24 OFFCURVE",
"554 -24 CURVE SMOOTH",
"704 -24 OFFCURVE",
"806 29 OFFCURVE",
"846 62 CURVE",
"669 325 LINE",
"651 307 OFFCURVE",
"611 280 OFFCURVE",
"555 280 CURVE SMOOTH"
);
}
);
width = 867;
},
{
anchors = (
{
name = bottom;
position = "{386, 0}";
},
{
name = top;
position = "{386, 821}";
}
);
layerId = "9D4C2422-5CE9-4C2E-AAC7-BF869A02F5C8";
paths = (
{
closed = 1;
nodes = (
"306 40 OFFCURVE",
"133 171 OFFCURVE",
"133 411 CURVE SMOOTH",
"133 651 OFFCURVE",
"306 781 OFFCURVE",
"461 781 CURVE SMOOTH",
"589 781 OFFCURVE",
"659 715 OFFCURVE",
"677 698 CURVE",
"715 754 LINE",
"698 771 OFFCURVE",
"600 845 OFFCURVE",
"453 845 CURVE SMOOTH",
"277 845 OFFCURVE",
"69 704 OFFCURVE",
"69 411 CURVE SMOOTH",
"69 118 OFFCURVE",
"277 -24 OFFCURVE",
"453 -24 CURVE SMOOTH",
"600 -24 OFFCURVE",
"710 42 OFFCURVE",
"722 53 CURVE",
"683 109 LINE",
"667 96 OFFCURVE",
"589 40 OFFCURVE",
"461 40 CURVE SMOOTH"
);
}
);
width = 811;
}
);
leftKerningGroup = o;
rightKerningGroup = c;
unicode = 0063;
},
{
glyphname = eth;
lastChange = "2020-04-11 19:54:09 +0000";
layers = (
{
layerId = "C45C3DCC-6617-4D42-8E57-0A4EECAD9C2E";
paths = (
{
closed = 1;
nodes = (
"53 157 OFFCURVE",
"266 -24 OFFCURVE",
"570 -24 CURVE SMOOTH",
"851 -24 OFFCURVE",
"1080 158 OFFCURVE",
"1080 464 CURVE SMOOTH",
"1080 805 OFFCURVE",
"930 1066 OFFCURVE",
"741 1203 CURVE",
"805 1270 LINE",
"666 1421 LINE",
"558 1320 LINE",
"405 1394 OFFCURVE",
"278 1434 OFFCURVE",
"227 1443 CURVE",
"146 1139 LINE",
"174 1133 OFFCURVE",
"240 1110 OFFCURVE",
"315 1078 CURVE",
"230 994 LINE",
"376 846 LINE",
"525 987 LINE",
"578 950 OFFCURVE",
"642 850 OFFCURVE",
"658 802 CURVE",
"634 827 OFFCURVE",
"605 845 OFFCURVE",
"502 845 CURVE SMOOTH",
"314 845 OFFCURVE",
"53 710 OFFCURVE",
"53 410 CURVE SMOOTH"
);
},
{
closed = 1;
nodes = (
"440 480 OFFCURVE",
"490 539 OFFCURVE",
"566 539 CURVE SMOOTH",
"643 539 OFFCURVE",
"693 483 OFFCURVE",
"693 410 CURVE SMOOTH",
"693 339 OFFCURVE",
"643 283 OFFCURVE",
"566 283 CURVE SMOOTH",
"490 283 OFFCURVE",
"440 341 OFFCURVE",
"440 410 CURVE SMOOTH"
);
}
);
width = 1134;
},
{
layerId = "9D4C2422-5CE9-4C2E-AAC7-BF869A02F5C8";
paths = (
{
closed = 1;
nodes = (
"93 155 OFFCURVE",
"251 -24 OFFCURVE",
"528 -24 CURVE SMOOTH",
"810 -24 OFFCURVE",
"957 173 OFFCURVE",
"957 426 CURVE SMOOTH",
"957 835 OFFCURVE",
"766 1032 OFFCURVE",
"531 1162 CURVE",
"670 1288 LINE",
"598 1344 LINE",
"461 1195 LINE",
"429 1211 OFFCURVE",
"314 1253 OFFCURVE",
"235 1274 CURVE",
"208 1216 LINE",
"254 1206 OFFCURVE",
"368 1168 OFFCURVE",
"414 1144 CURVE",
"272 1000 LINE",
"331 944 LINE",
"488 1114 LINE",
"646 1030 OFFCURVE",
"803 864 OFFCURVE",
"846 723 CURVE",
"822 749 OFFCURVE",
"722 845 OFFCURVE",
"515 845 CURVE SMOOTH",
"286 845 OFFCURVE",
"93 680 OFFCURVE",
"93 410 CURVE SMOOTH"
);
},
{
closed = 1;
nodes = (
"157 640 OFFCURVE",
"304 781 OFFCURVE",
"526 781 CURVE SMOOTH",
"765 781 OFFCURVE",
"893 662 OFFCURVE",
"893 410 CURVE SMOOTH",
"893 200 OFFCURVE",
"776 38 OFFCURVE",
"526 38 CURVE SMOOTH",
"298 38 OFFCURVE",
"157 197 OFFCURVE",
"157 410 CURVE SMOOTH"
);
}
);
width = 1070;
}
);
leftKerningGroup = eth;
rightKerningGroup = eth;
unicode = 00F0;
},
{
glyphname = dcroat;
lastChange = "2020-04-11 19:54:09 +0000";
layers = (
{
components = (
{
name = d;
}
);
layerId = "C45C3DCC-6617-4D42-8E57-0A4EECAD9C2E";
paths = (
{
closed = 1;
nodes = (
"1170 990 LINE",
"1170 1216 LINE",
"533 1216 LINE",
"533 990 LINE"
);
}
);
width = 1165;
},
{
components = (
{
name = d;
}
);
layerId = "9D4C2422-5CE9-4C2E-AAC7-BF869A02F5C8";
paths = (
{
closed = 1;
nodes = (
"992 1045 LINE",
"992 1107 LINE",
"573 1107 LINE",
"573 1045 LINE"
);
}
);
width = 989;
}
);
leftKerningGroup = o;
rightKerningGroup = l;
unicode = 0111;
},
{
glyphname = e;
lastChange = "2020-06-16 20:07:06 +0000";
layers = (
{
anchors = (
{
name = bottom;
position = "{504, 0}";
},
{
name = ogonek;
position = "{898, 16}";
},
{
name = top;
position = "{504, 821}";
}
);
layerId = "C45C3DCC-6617-4D42-8E57-0A4EECAD9C2E";
paths = (
{
closed = 1;
nodes = (
"960 333 LINE",
"963 342 OFFCURVE",
"963 384 OFFCURVE",
"963 395 CURVE SMOOTH",
"963 704 OFFCURVE",
"784 845 OFFCURVE",
"498 845 CURVE SMOOTH",
"202 845 OFFCURVE",
"32 658 OFFCURVE",
"32 419 CURVE SMOOTH",
"32 114 OFFCURVE",
"251 -24 OFFCURVE",
"530 -24 CURVE SMOOTH",
"778 -24 OFFCURVE",
"878 27 OFFCURVE",
"917 51 CURVE",
"776 298 LINE",
"733 269 OFFCURVE",
"645 258 OFFCURVE",
"557 258 CURVE SMOOTH",
"475 258 OFFCURVE",
"414 285 OFFCURVE",
"405 333 CURVE"
);
},
{
closed = 1;
nodes = (
"413 494 LINE",
"414 566 OFFCURVE",
"458 592 OFFCURVE",
"504 592 CURVE SMOOTH",
"555 592 OFFCURVE",
"589 560 OFFCURVE",
"592 494 CURVE"
);
}
);
width = 1027;
},
{
anchors = (
{
name = bottom;
position = "{446, 0}";
},
{
name = ogonek;
position = "{786, 16}";
},
{
name = top;
position = "{446, 821}";
}
);
layerId = "9D4C2422-5CE9-4C2E-AAC7-BF869A02F5C8";
paths = (
{
closed = 1;
nodes = (
"819 416 LINE",
"819 426 OFFCURVE",
"821 438 OFFCURVE",
"821 450 CURVE SMOOTH",
"821 678 OFFCURVE",
"675 845 OFFCURVE",
"453 845 CURVE SMOOTH",
"203 845 OFFCURVE",
"58 661 OFFCURVE",
"58 421 CURVE SMOOTH",
"58 178 OFFCURVE",
"197 -24 OFFCURVE",
"456 -24 CURVE SMOOTH",
"626 -24 OFFCURVE",
"725 43 OFFCURVE",
"806 174 CURVE",
"747 214 LINE",
"720 152 OFFCURVE",
"640 38 OFFCURVE",
"459 38 CURVE SMOOTH",
"232 38 OFFCURVE",
"126 222 OFFCURVE",
"126 416 CURVE"
);
},
{
closed = 1;
nodes = (
"131 480 LINE",
"142 616 OFFCURVE",
"216 782 OFFCURVE",
"453 782 CURVE SMOOTH",
"677 782 OFFCURVE",
"746 610 OFFCURVE",
"750 480 CURVE"
);
}
);
width = 919;
},
{
anchors = (
{
name = bottom;
position = "{471, 0}";
},
{
name = ogonek;
position = "{834, 16}";
},
{
name = top;
position = "{471, 821}";
}
);
associatedMasterId = "9D4C2422-5CE9-4C2E-AAC7-BF869A02F5C8";
layerId = "8B5B1568-CF77-49F6-A9DF-EE6C1E7B2984";
name = "Medium{500}";
paths = (
{
closed = 1;
nodes = (
"879 360 LINE",
"881 370 OFFCURVE",
"882 415 OFFCURVE",
"882 426 CURVE SMOOTH",
"882 689 OFFCURVE",
"722 845 OFFCURVE",
"472 845 CURVE SMOOTH",
"203 845 OFFCURVE",
"47 660 OFFCURVE",
"47 420 CURVE SMOOTH",
"47 151 OFFCURVE",
"220 -24 OFFCURVE",
"488 -24 CURVE SMOOTH",
"691 -24 OFFCURVE",
"791 36 OFFCURVE",
"854 121 CURVE",
"759 250 LINE",
"726 202 OFFCURVE",
"642 132 OFFCURVE",
"501 132 CURVE SMOOTH",
"336 132 OFFCURVE",
"249 229 OFFCURVE",
"246 360 CURVE"
);
},
{
closed = 1;
nodes = (
"252 516 LINE",
"259 585 OFFCURVE",
"320 691 OFFCURVE",
"475 691 CURVE SMOOTH",
"625 691 OFFCURVE",
"679 579 OFFCURVE",
"682 516 CURVE"
);
}
);
width = 965;
}
);
leftKerningGroup = o;
leftMetricsKey = o;
rightKerningGroup = o;
rightMetricsKey = o;
unicode = 0065;
},
{
glyphname = f;
lastChange = "2020-04-11 19:54:09 +0000";
layers = (
{
anchors = (
{
name = bottom;
position = "{354, 0}";
},
{
name = top;
position = "{354, 1440}";
}
);
layerId = "C45C3DCC-6617-4D42-8E57-0A4EECAD9C2E";
paths = (
{
closed = 1;
nodes = (
"16 501 LINE",
"130 501 LINE",
"130 0 LINE",
"523 0 LINE",
"523 501 LINE",
"706 501 LINE",
"706 821 LINE",
"523 821 LINE",
"523 995 LINE SMOOTH",
"523 1050 OFFCURVE",
"554 1069 OFFCURVE",
"582 1069 CURVE SMOOTH",
"613 1069 OFFCURVE",
"635 1043 OFFCURVE",
"642 1032 CURVE",
"790 1317 LINE",
"766 1341 OFFCURVE",
"686 1400 OFFCURVE",
"522 1400 CURVE SMOOTH",
"323 1400 OFFCURVE",
"130 1259 OFFCURVE",
"130 1027 CURVE SMOOTH",
"130 821 LINE",
"16 821 LINE"
);
}
);
width = 742;
},
{
anchors = (
{
name = bottom;
position = "{285, 0}";
},
{
name = top;
position = "{285, 1440}";
}
);
layerId = "9D4C2422-5CE9-4C2E-AAC7-BF869A02F5C8";
paths = (
{
closed = 1;
nodes = (
"34 758 LINE",
"229 758 LINE",
"229 0 LINE",
"291 0 LINE",
"291 758 LINE",
"550 758 LINE",
"550 821 LINE",
"291 821 LINE",
"291 1054 LINE SMOOTH",
"291 1298 OFFCURVE",
"382 1339 OFFCURVE",
"466 1339 CURVE SMOOTH",
"542 1339 OFFCURVE",
"582 1307 OFFCURVE",
"590 1301 CURVE",
"621 1357 LINE",
"614 1362 OFFCURVE",
"563 1400 OFFCURVE",
"472 1400 CURVE SMOOTH",
"357 1400 OFFCURVE",
"229 1326 OFFCURVE",
"229 1067 CURVE SMOOTH",
"229 821 LINE",
"34 821 LINE"
);
}
);
width = 610;
}
);
leftKerningGroup = f;
rightKerningGroup = f;
unicode = 0066;
},
{
glyphname = g;
lastChange = "2020-04-11 19:54:09 +0000";
layers = (
{
anchors = (
{
name = bottom;
position = "{566, -416}";
},
{
name = top;
position = "{566, 821}";
}
);
components = (
{
name = a;
}
);
layerId = "C45C3DCC-6617-4D42-8E57-0A4EECAD9C2E";
paths = (
{
closed = 1;
nodes = (
"837 -440 OFFCURVE",
"1078 -299 OFFCURVE",
"1078 -22 CURVE SMOOTH",
"1078 16 LINE",
"690 16 LINE",
"690 0 LINE SMOOTH",
"690 -104 OFFCURVE",
"611 -138 OFFCURVE",
"509 -138 CURVE SMOOTH",
"395 -138 OFFCURVE",
"318 -90 OFFCURVE",
"267 -34 CURVE",
"45 -272 LINE",
"165 -416 OFFCURVE",
"370 -440 OFFCURVE",
"528 -440 CURVE SMOOTH"
);
}
);
width = 1174;
},
{
anchors = (
{
name = bottom;
position = "{523, -416}";
},
{
name = top;
position = "{523, 821}";
}
);
components = (
{
name = a;
}
);
layerId = "9D4C2422-5CE9-4C2E-AAC7-BF869A02F5C8";
paths = (
{
closed = 1;
nodes = (
"693 -438 OFFCURVE",
"864 -293 OFFCURVE",
"864 -24 CURVE SMOOTH",
"864 14 LINE",
"802 14 LINE",
"802 -18 LINE SMOOTH",
"802 -206 OFFCURVE",
"693 -373 OFFCURVE",
"482 -373 CURVE SMOOTH",
"270 -373 OFFCURVE",
"206 -286 OFFCURVE",
"174 -235 CURVE",
"114 -280 LINE",
"160 -355 OFFCURVE",
"270 -438 OFFCURVE",
"482 -438 CURVE SMOOTH"
);
}
);
width = 1018;
}
);
leftKerningGroup = g;
rightKerningGroup = g;
unicode = 0067;
},
{
glyphname = h;
lastChange = "2020-04-11 19:54:09 +0000";
layers = (
{
anchors = (
{
name = bottom;
position = "{565, 0}";
},
{
name = center;
position = "{565, 720}";
},
{
name = top;
position = "{565, 1440}";
}
);
layerId = "C45C3DCC-6617-4D42-8E57-0A4EECAD9C2E";
paths = (
{
closed = 1;
nodes = (
"586 845 OFFCURVE",
"475 781 OFFCURVE",
"450 718 CURVE",
"450 1376 LINE",
"56 1376 LINE",
"56 0 LINE",
"450 0 LINE",
"450 432 LINE SMOOTH",
"450 517 OFFCURVE",
"515 571 OFFCURVE",
"586 571 CURVE SMOOTH",
"656 571 OFFCURVE",
"694 517 OFFCURVE",
"694 432 CURVE SMOOTH",
"694 0 LINE",
"1088 0 LINE",
"1088 493 LINE SMOOTH",
"1088 744 OFFCURVE",
"896 845 OFFCURVE",
"715 845 CURVE SMOOTH"
);
}
);
width = 1160;
},
{
anchors = (
{
name = bottom;
position = "{450, 0}";
},
{
name = center;
position = "{450, 720}";
},
{
name = top;
position = "{450, 1440}";
}
);
layerId = "9D4C2422-5CE9-4C2E-AAC7-BF869A02F5C8";
paths = (
{
closed = 1;
nodes = (
"342 845 OFFCURVE",
"214 725 OFFCURVE",
"203 653 CURVE",
"203 1376 LINE",
"136 1376 LINE",
"136 0 LINE",
"203 0 LINE",
"203 464 LINE SMOOTH",
"203 642 OFFCURVE",
"352 781 OFFCURVE",
"496 781 CURVE SMOOTH",
"640 781 OFFCURVE",
"744 702 OFFCURVE",
"744 501 CURVE SMOOTH",
"744 0 LINE",
"810 0 LINE",
"810 522 LINE SMOOTH",
"810 750 OFFCURVE",
"648 845 OFFCURVE",
"498 845 CURVE SMOOTH"
);
}
);
width = 970;
}
);
leftKerningGroup = h;
rightKerningGroup = n;
unicode = 0068;
},
{
glyphname = hbar;
lastChange = "2020-04-11 19:54:09 +0000";
layers = (
{
components = (
{
name = h;
}
);
layerId = "C45C3DCC-6617-4D42-8E57-0A4EECAD9C2E";
paths = (
{
closed = 1;
nodes = (
"597 990 LINE",
"597 1216 LINE",
"-40 1216 LINE",
"-40 990 LINE"
);
}
);
width = 1160;
},
{
components = (
{
name = h;
}
);
layerId = "9D4C2422-5CE9-4C2E-AAC7-BF869A02F5C8";
paths = (
{
closed = 1;
nodes = (
"442 1045 LINE",
"442 1107 LINE",
"22 1107 LINE",
"22 1045 LINE"
);
}
);
width = 970;
}
);
leftKerningGroup = h;
rightKerningGroup = n;
unicode = 0127;
},
{
glyphname = i;
lastChange = "2020-04-11 19:54:09 +0000";
layers = (
{
anchors = (
{
name = bottom;
position = "{275, 0}";
}
);
layerId = "C45C3DCC-6617-4D42-8E57-0A4EECAD9C2E";
paths = (
{
closed = 1;
nodes = (
"467 0 LINE",
"467 821 LINE",
"74 821 LINE",
"74 0 LINE"
);
},
{
closed = 1;
nodes = (
"392 912 OFFCURVE",
"488 1008 OFFCURVE",
"488 1123 CURVE SMOOTH",
"488 1240 OFFCURVE",
"390 1336 OFFCURVE",
"275 1336 CURVE SMOOTH",
"158 1336 OFFCURVE",
"64 1238 OFFCURVE",
"64 1123 CURVE SMOOTH",
"64 1008 OFFCURVE",
"158 912 OFFCURVE",
"275 912 CURVE SMOOTH"
);
}
);
width = 568;
},
{
anchors = (
{
name = bottom;
position = "{182, 0}";
}
);
layerId = "9D4C2422-5CE9-4C2E-AAC7-BF869A02F5C8";
paths = (
{
closed = 1;
nodes = (
"213 0 LINE",
"213 821 LINE",
"149 821 LINE",
"149 0 LINE"
);
},
{
closed = 1;
nodes = (
"219 1197 OFFCURVE",
"250 1226 OFFCURVE",
"250 1262 CURVE SMOOTH",
"250 1299 OFFCURVE",
"218 1328 OFFCURVE",
"182 1328 CURVE SMOOTH",
"147 1328 OFFCURVE",
"117 1299 OFFCURVE",
"117 1262 CURVE SMOOTH",
"117 1226 OFFCURVE",
"146 1197 OFFCURVE",
"182 1197 CURVE SMOOTH"
);
}
);
width = 405;
}
);
leftKerningGroup = i;
rightKerningGroup = i;
unicode = 0069;
},
{
glyphname = idotless;
lastChange = "2020-04-11 19:54:09 +0000";
layers = (
{
anchors = (
{
name = bottom;
position = "{224, 0}";
},
{
name = ogonek;
position = "{424, 16}";
},
{
name = top;
position = "{224, 821}";
}
);
layerId = "C45C3DCC-6617-4D42-8E57-0A4EECAD9C2E";
paths = (
{
closed = 1;
nodes = (
"405 0 LINE",
"405 821 LINE",
"42 821 LINE",
"42 0 LINE"
);
}
);
width = 470;
},
{
anchors = (
{
name = bottom;
position = "{150, 0}";
},
{
name = ogonek;
position = "{240, 16}";
},
{
name = top;
position = "{150, 821}";
}
);
layerId = "9D4C2422-5CE9-4C2E-AAC7-BF869A02F5C8";
paths = (
{
closed = 1;
nodes = (
"182 0 LINE",
"182 821 LINE",
"118 821 LINE",
"118 0 LINE"
);
}
);
width = 339;
}
);
leftKerningGroup = idotless;
rightKerningGroup = idotless;
unicode = 0131;
},
{
glyphname = j;
lastChange = "2020-04-11 19:54:09 +0000";
layers = (
{
layerId = "C45C3DCC-6617-4D42-8E57-0A4EECAD9C2E";
paths = (
{
closed = 1;
nodes = (
"360 -440 OFFCURVE",
"474 -282 OFFCURVE",
"474 -91 CURVE SMOOTH",
"474 821 LINE",
"80 821 LINE",
"80 -40 LINE SMOOTH",
"80 -94 OFFCURVE",
"46 -114 OFFCURVE",
"16 -114 CURVE SMOOTH",
"-5 -114 OFFCURVE",
"-30 -109 OFFCURVE",
"-54 -91 CURVE",
"-168 -381 LINE",
"-120 -408 OFFCURVE",
"-32 -440 OFFCURVE",
"109 -440 CURVE SMOOTH"
);
},
{
closed = 1;
nodes = (
"395 912 OFFCURVE",
"491 1008 OFFCURVE",
"491 1123 CURVE SMOOTH",
"491 1240 OFFCURVE",
"394 1336 OFFCURVE",
"278 1336 CURVE SMOOTH",
"162 1336 OFFCURVE",
"67 1238 OFFCURVE",
"67 1123 CURVE SMOOTH",
"67 1008 OFFCURVE",
"162 912 OFFCURVE",
"278 912 CURVE SMOOTH"
);
}
);
width = 579;
},
{
layerId = "9D4C2422-5CE9-4C2E-AAC7-BF869A02F5C8";
paths = (
{
closed = 1;
nodes = (
"203 -440 OFFCURVE",
"246 -323 OFFCURVE",
"246 -126 CURVE SMOOTH",
"246 821 LINE",
"182 821 LINE",
"182 -88 LINE SMOOTH",
"182 -259 OFFCURVE",
"168 -376 OFFCURVE",
"50 -376 CURVE SMOOTH",
"-6 -376 OFFCURVE",
"-24 -362 OFFCURVE",
"-38 -349 CURVE",
"-78 -403 LINE",
"-61 -419 OFFCURVE",
"-13 -440 OFFCURVE",
"51 -440 CURVE SMOOTH"
);
},
{
closed = 1;
nodes = (
"258 1197 OFFCURVE",
"286 1226 OFFCURVE",
"286 1262 CURVE SMOOTH",
"286 1298 OFFCURVE",
"258 1328 OFFCURVE",
"221 1328 CURVE SMOOTH",
"184 1328 OFFCURVE",
"155 1298 OFFCURVE",
"155 1262 CURVE SMOOTH",
"155 1226 OFFCURVE",
"184 1197 OFFCURVE",
"221 1197 CURVE SMOOTH"
);
}
);
width = 427;
}
);
leftKerningGroup = j;
rightKerningGroup = j;
unicode = 006A;
},
{
glyphname = jdotless;
lastChange = "2020-04-11 19:54:09 +0000";
layers = (
{
anchors = (
{
name = bottom;
position = "{214, -416}";
},
{
name = top;
position = "{214, 821}";
}
);
layerId = "9D4C2422-5CE9-4C2E-AAC7-BF869A02F5C8";
paths = (
{
closed = 1;
nodes = (
"203 -440 OFFCURVE",
"246 -323 OFFCURVE",
"246 -126 CURVE SMOOTH",
"246 821 LINE",
"182 821 LINE",
"182 -88 LINE SMOOTH",
"182 -259 OFFCURVE",
"168 -376 OFFCURVE",
"50 -376 CURVE SMOOTH",
"-6 -376 OFFCURVE",
"-24 -362 OFFCURVE",
"-38 -349 CURVE",
"-78 -403 LINE",
"-61 -419 OFFCURVE",
"-13 -440 OFFCURVE",
"51 -440 CURVE SMOOTH"
);
}
);
width = 427;
},
{
anchors = (
{
name = bottom;
position = "{290, -416}";
},
{
name = top;
position = "{290, 821}";
}
);
layerId = "C45C3DCC-6617-4D42-8E57-0A4EECAD9C2E";
paths = (
{
closed = 1;
nodes = (
"360 -440 OFFCURVE",
"474 -282 OFFCURVE",
"474 -91 CURVE SMOOTH",
"474 821 LINE",
"80 821 LINE",
"80 -40 LINE SMOOTH",
"80 -94 OFFCURVE",
"46 -114 OFFCURVE",
"16 -114 CURVE SMOOTH",
"-5 -114 OFFCURVE",
"-30 -109 OFFCURVE",
"-54 -91 CURVE",
"-168 -381 LINE",
"-120 -408 OFFCURVE",
"-32 -440 OFFCURVE",
"109 -440 CURVE SMOOTH"
);
}
);
width = 579;
}
);
leftKerningGroup = jdotless;
rightKerningGroup = jdotless;
unicode = 0237;
},
{
glyphname = k;
lastChange = "2020-04-11 19:54:09 +0000";
layers = (
{
anchors = (
{
name = bottom;
position = "{558, 0}";
},
{
name = top;
position = "{558, 1440}";
}
);
layerId = "C45C3DCC-6617-4D42-8E57-0A4EECAD9C2E";
paths = (
{
closed = 1;
nodes = (
"434 563 LINE",
"434 1376 LINE",
"40 1376 LINE",
"40 0 LINE",
"434 0 LINE",
"434 307 LINE",
"707 0 LINE",
"1154 0 LINE",
"744 429 LINE",
"1107 821 LINE",
"670 821 LINE"
);
}
);
width = 1138;
},
{
anchors = (
{
name = bottom;
position = "{336, 0}";
},
{
name = top;
position = "{336, 1440}";
}
);
layerId = "9D4C2422-5CE9-4C2E-AAC7-BF869A02F5C8";
paths = (
{
closed = 1;
nodes = (
"160 462 LINE",
"160 1376 LINE",
"96 1376 LINE",
"96 0 LINE",
"160 0 LINE",
"160 392 LINE",
"595 0 LINE",
"691 0 LINE",
"218 430 LINE",
"672 821 LINE",
"576 821 LINE"
);
}
);
width = 723;
}
);
leftKerningGroup = h;
rightKerningGroup = k;
unicode = 006B;
},
{
glyphname = kgreenlandic;
lastChange = "2020-04-11 19:54:09 +0000";
layers = (
{
anchors = (
{
name = bottom;
position = "{410, 0}";
},
{
name = top;
position = "{410, 821}";
}
);
layerId = "9D4C2422-5CE9-4C2E-AAC7-BF869A02F5C8";
paths = (
{
closed = 1;
nodes = (
"669 821 LINE",
"586 821 LINE",
"214 430 LINE",
"214 821 LINE",
"150 821 LINE",
"150 0 LINE",
"214 0 LINE",
"214 406 LINE",
"616 0 LINE",
"701 0 LINE",
"285 424 LINE"
);
}
);
width = 734;
},
{
anchors = (
{
name = bottom;
position = "{618, 0}";
},
{
name = top;
position = "{566, 821}";
}
);
layerId = "C45C3DCC-6617-4D42-8E57-0A4EECAD9C2E";
paths = (
{
closed = 1;
nodes = (
"1066 821 LINE",
"630 821 LINE",
"416 542 LINE",
"416 821 LINE",
"29 821 LINE",
"29 0 LINE",
"416 0 LINE",
"416 274 LINE",
"664 0 LINE",
"1125 0 LINE",
"715 411 LINE"
);
}
);
width = 1158;
}
);
leftKerningGroup = h;
rightKerningGroup = k;
unicode = 0138;
},
{
glyphname = l;
lastChange = "2020-04-11 19:54:09 +0000";
layers = (
{
anchors = (
{
name = bottom;
position = "{262, 0}";
},
{
name = center;
position = "{246, 1045}";
},
{
name = top;
position = "{246, 1440}";
},
{
name = topright;
position = "{490, 1440}";
}
);
layerId = "C45C3DCC-6617-4D42-8E57-0A4EECAD9C2E";
paths = (
{
closed = 1;
nodes = (
"458 1376 LINE",
"64 1376 LINE",
"64 0 LINE",
"458 0 LINE"
);
}
);
width = 547;
},
{
anchors = (
{
name = bottom;
position = "{166, 0}";
},
{
name = center;
position = "{166, 901}";
},
{
name = top;
position = "{166, 1440}";
},
{
name = topright;
position = "{264, 1440}";
}
);
layerId = "9D4C2422-5CE9-4C2E-AAC7-BF869A02F5C8";
paths = (
{
closed = 1;
nodes = (
"200 1376 LINE",
"134 1376 LINE",
"134 0 LINE",
"200 0 LINE"
);
}
);
width = 373;
}
);
leftKerningGroup = h;
rightKerningGroup = l;
unicode = 006C;
},
{
glyphname = lslash;
lastChange = "2020-04-11 19:54:09 +0000";
layers = (
{
layerId = "C45C3DCC-6617-4D42-8E57-0A4EECAD9C2E";
paths = (
{
closed = 1;
nodes = (
"488 0 LINE",
"488 739 LINE",
"613 837 LINE",
"613 1131 LINE",
"488 1034 LINE",
"488 1376 LINE",
"126 1376 LINE",
"126 750 LINE",
"-6 645 LINE",
"-6 350 LINE",
"126 456 LINE",
"126 0 LINE"
);
}
);
width = 630;
},
{
layerId = "9D4C2422-5CE9-4C2E-AAC7-BF869A02F5C8";
paths = (
{
closed = 1;
nodes = (
"229 0 LINE",
"229 661 LINE",
"344 750 LINE",
"344 858 LINE",
"229 768 LINE",
"229 1376 LINE",
"163 1376 LINE",
"163 715 LINE",
"74 645 LINE",
"74 538 LINE",
"163 608 LINE",
"163 0 LINE"
);
}
);
width = 458;
}
);
leftKerningGroup = lslash;
rightKerningGroup = lslash;
unicode = 0142;
},
{
glyphname = m;
lastChange = "2020-04-11 19:54:09 +0000";
layers = (
{
anchors = (
{
name = bottom;
position = "{824, 0}";
},
{
name = top;
position = "{824, 821}";
}
);
layerId = "C45C3DCC-6617-4D42-8E57-0A4EECAD9C2E";
paths = (
{
closed = 1;
nodes = (
"1155 845 OFFCURVE",
"1027 771 OFFCURVE",
"1002 709 CURVE",
"952 797 OFFCURVE",
"885 845 OFFCURVE",
"742 845 CURVE SMOOTH",
"611 845 OFFCURVE",
"480 771 OFFCURVE",
"454 710 CURVE",
"454 821 LINE",
"64 821 LINE",
"64 0 LINE",
"454 0 LINE",
"454 432 LINE SMOOTH",
"454 501 OFFCURVE",
"488 571 OFFCURVE",
"573 571 CURVE SMOOTH",
"658 571 OFFCURVE",
"670 502 OFFCURVE",
"670 432 CURVE SMOOTH",
"670 0 LINE",
"1029 0 LINE",
"1029 432 LINE SMOOTH",
"1029 501 OFFCURVE",
"1061 571 OFFCURVE",
"1146 571 CURVE SMOOTH",
"1230 571 OFFCURVE",
"1245 502 OFFCURVE",
"1245 432 CURVE SMOOTH",
"1245 0 LINE",
"1632 0 LINE",
"1632 485 LINE SMOOTH",
"1632 736 OFFCURVE",
"1486 845 OFFCURVE",
"1298 845 CURVE SMOOTH"
);
}
);
width = 1696;
},
{
anchors = (
{
name = bottom;
position = "{693, 0}";
},
{
name = top;
position = "{693, 821}";
}
);
layerId = "9D4C2422-5CE9-4C2E-AAC7-BF869A02F5C8";
paths = (
{
closed = 1;
nodes = (
"834 845 OFFCURVE",
"728 731 OFFCURVE",
"699 632 CURVE",
"690 707 OFFCURVE",
"616 845 OFFCURVE",
"464 845 CURVE SMOOTH",
"317 845 OFFCURVE",
"222 750 OFFCURVE",
"203 688 CURVE",
"203 821 LINE",
"139 821 LINE",
"139 0 LINE",
"203 0 LINE",
"203 448 LINE SMOOTH",
"203 696 OFFCURVE",
"334 779 OFFCURVE",
"450 779 CURVE SMOOTH",
"574 779 OFFCURVE",
"664 680 OFFCURVE",
"664 448 CURVE SMOOTH",
"664 0 LINE",
"728 0 LINE",
"728 448 LINE SMOOTH",
"728 690 OFFCURVE",
"866 779 OFFCURVE",
"981 779 CURVE SMOOTH",
"1136 779 OFFCURVE",
"1190 680 OFFCURVE",
"1190 448 CURVE SMOOTH",
"1190 0 LINE",
"1254 0 LINE",
"1254 474 LINE SMOOTH",
"1254 725 OFFCURVE",
"1166 845 OFFCURVE",
"986 845 CURVE SMOOTH"
);
}
);
width = 1424;
}
);
leftKerningGroup = n;
rightKerningGroup = n;
unicode = 006D;
},
{
glyphname = n;
lastChange = "2020-04-11 19:54:09 +0000";
layers = (
{
anchors = (
{
name = bottom;
position = "{555, 0}";
},
{
name = top;
position = "{555, 821}";
}
);
layerId = "C45C3DCC-6617-4D42-8E57-0A4EECAD9C2E";
paths = (
{
closed = 1;
nodes = (
"578 845 OFFCURVE",
"467 781 OFFCURVE",
"442 718 CURVE",
"442 821 LINE",
"48 821 LINE",
"48 0 LINE",
"442 0 LINE",
"442 432 LINE SMOOTH",
"442 517 OFFCURVE",
"499 571 OFFCURVE",
"570 571 CURVE SMOOTH",
"640 571 OFFCURVE",
"686 517 OFFCURVE",
"686 432 CURVE SMOOTH",
"686 0 LINE",
"1080 0 LINE",
"1080 493 LINE SMOOTH",
"1080 744 OFFCURVE",
"888 845 OFFCURVE",
"707 845 CURVE SMOOTH"
);
}
);
width = 1152;
},
{
anchors = (
{
name = bottom;
position = "{442, 0}";
},
{
name = top;
position = "{442, 821}";
}
);
layerId = "9D4C2422-5CE9-4C2E-AAC7-BF869A02F5C8";
paths = (
{
closed = 1;
nodes = (
"339 845 OFFCURVE",
"210 725 OFFCURVE",
"198 653 CURVE",
"198 821 LINE",
"134 821 LINE",
"134 0 LINE",
"198 0 LINE",
"198 464 LINE SMOOTH",
"198 642 OFFCURVE",
"347 781 OFFCURVE",
"491 781 CURVE SMOOTH",
"635 781 OFFCURVE",
"739 702 OFFCURVE",
"739 501 CURVE SMOOTH",
"739 0 LINE",
"805 0 LINE",
"805 522 LINE SMOOTH",
"805 750 OFFCURVE",
"643 845 OFFCURVE",
"493 845 CURVE SMOOTH"
);
}
);
width = 954;
}
);
leftKerningGroup = n;
rightKerningGroup = n;
unicode = 006E;
},
{
glyphname = eng;
lastChange = "2020-04-11 19:54:09 +0000";
layers = (
{
components = (
{
name = n;
}
);
layerId = "C45C3DCC-6617-4D42-8E57-0A4EECAD9C2E";
paths = (
{
closed = 1;
nodes = (
"1080 -30 LINE SMOOTH",
"1080 -200 OFFCURVE",
"950 -440 OFFCURVE",
"699 -440 CURVE SMOOTH",
"542 -440 OFFCURVE",
"477 -405 OFFCURVE",
"438 -381 CURVE",
"560 -96 LINE",
"573 -104 OFFCURVE",
"600 -114 OFFCURVE",
"626 -114 CURVE SMOOTH",
"656 -114 OFFCURVE",
"686 -94 OFFCURVE",
"686 -24 CURVE SMOOTH",
"686 0 LINE",
"1080 0 LINE"
);
}
);
width = 1152;
},
{
components = (
{
name = n;
}
);
layerId = "9D4C2422-5CE9-4C2E-AAC7-BF869A02F5C8";
paths = (
{
closed = 1;
nodes = (
"805 -126 LINE SMOOTH",
"805 -291 OFFCURVE",
"766 -424 OFFCURVE",
"610 -424 CURVE SMOOTH",
"534 -424 OFFCURVE",
"485 -397 OFFCURVE",
"483 -394 CURVE",
"520 -328 LINE",
"534 -342 OFFCURVE",
"571 -360 OFFCURVE",
"621 -360 CURVE SMOOTH",
"739 -360 OFFCURVE",
"739 -211 OFFCURVE",
"739 -72 CURVE SMOOTH",
"739 0 LINE",
"805 0 LINE"
);
}
);
width = 954;
}
);
leftKerningGroup = n;
rightKerningGroup = j;
unicode = 014B;
},
{
glyphname = o;
lastChange = "2020-04-11 19:54:09 +0000";
layers = (
{
anchors = (
{
name = bottom;
position = "{510, -186}";
},
{
name = center;
position = "{510, 597}";
},
{
name = ogonek;
position = "{918, 16}";
},
{
name = top;
position = "{510, 821}";
},
{
name = topright;
position = "{747, 789}";
}
);
layerId = "C45C3DCC-6617-4D42-8E57-0A4EECAD9C2E";
paths = (
{
closed = 1;
nodes = (
"794 -24 OFFCURVE",
"989 152 OFFCURVE",
"989 408 CURVE SMOOTH",
"989 664 OFFCURVE",
"794 845 OFFCURVE",
"514 845 CURVE SMOOTH",
"234 845 OFFCURVE",
"32 664 OFFCURVE",
"32 408 CURVE SMOOTH",
"32 152 OFFCURVE",
"234 -24 OFFCURVE",
"514 -24 CURVE SMOOTH"
);
},
{
closed = 1;
nodes = (
"448 296 OFFCURVE",
"408 339 OFFCURVE",
"408 410 CURVE SMOOTH",
"408 480 OFFCURVE",
"448 525 OFFCURVE",
"514 525 CURVE SMOOTH",
"579 525 OFFCURVE",
"618 480 OFFCURVE",
"618 410 CURVE SMOOTH",
"618 339 OFFCURVE",
"579 296 OFFCURVE",
"514 296 CURVE SMOOTH"
);
}
);
width = 1053;
},
{
anchors = (
{
name = bottom;
position = "{469, -102}";
},
{
name = center;
position = "{469, 514}";
},
{
name = ogonek;
position = "{822, 16}";
},
{
name = top;
position = "{469, 821}";
},
{
name = topright;
position = "{678, 781}";
}
);
layerId = "9D4C2422-5CE9-4C2E-AAC7-BF869A02F5C8";
paths = (
{
closed = 1;
nodes = (
"710 -24 OFFCURVE",
"880 168 OFFCURVE",
"880 408 CURVE SMOOTH",
"880 648 OFFCURVE",
"710 845 OFFCURVE",
"470 845 CURVE SMOOTH",
"230 845 OFFCURVE",
"58 648 OFFCURVE",
"58 408 CURVE SMOOTH",
"58 168 OFFCURVE",
"230 -24 OFFCURVE",
"470 -24 CURVE SMOOTH"
);
},
{
closed = 1;
nodes = (
"262 40 OFFCURVE",
"122 200 OFFCURVE",
"122 408 CURVE SMOOTH",
"122 616 OFFCURVE",
"262 781 OFFCURVE",
"470 781 CURVE SMOOTH",
"678 781 OFFCURVE",
"816 616 OFFCURVE",
"816 408 CURVE SMOOTH",
"816 200 OFFCURVE",
"678 40 OFFCURVE",
"470 40 CURVE SMOOTH"
);
}
);
width = 978;
}
);
leftKerningGroup = o;
rightKerningGroup = o;
unicode = 006F;
},
{
glyphname = oslash;
lastChange = "2020-04-11 19:54:09 +0000";
layers = (
{
components = (
{
name = o;
}
);
layerId = "C45C3DCC-6617-4D42-8E57-0A4EECAD9C2E";
paths = (
{
closed = 1;
nodes = (
"38 29 LINE",
"134 -53 LINE",
"970 798 LINE",
"874 880 LINE"
);
}
);
width = 1026;
},
{
components = (
{
name = o;
}
);
layerId = "9D4C2422-5CE9-4C2E-AAC7-BF869A02F5C8";
paths = (
{
closed = 1;
nodes = (
"42 21 LINE",
"86 -21 LINE",
"902 806 LINE",
"858 848 LINE"
);
}
);
width = 978;
}
);
leftKerningGroup = o;
rightKerningGroup = o;
unicode = 00F8;
},
{
glyphname = p;
lastChange = "2020-04-11 19:54:09 +0000";
layers = (
{
anchors = (
{
name = bottom;
position = "{579, 0}";
},
{
name = top;
position = "{579, 821}";
}
);
layerId = "C45C3DCC-6617-4D42-8E57-0A4EECAD9C2E";
paths = (
{
closed = 1;
nodes = (
"453 115 LINE",
"474 78 OFFCURVE",
"554 -24 OFFCURVE",
"717 -24 CURVE SMOOTH",
"963 -24 OFFCURVE",
"1110 184 OFFCURVE",
"1110 410 CURVE SMOOTH",
"1110 635 OFFCURVE",
"979 845 OFFCURVE",
"733 845 CURVE SMOOTH",
"592 845 OFFCURVE",
"491 776 OFFCURVE",
"456 725 CURVE",
"456 821 LINE",
"64 821 LINE",
"64 -416 LINE",
"453 -416 LINE"
);
},
{
closed = 1;
nodes = (
"725 341 OFFCURVE",
"670 280 OFFCURVE",
"590 280 CURVE SMOOTH",
"510 280 OFFCURVE",
"456 341 OFFCURVE",
"456 410 CURVE SMOOTH",
"456 478 OFFCURVE",
"510 541 OFFCURVE",
"590 541 CURVE SMOOTH",
"670 541 OFFCURVE",
"725 478 OFFCURVE",
"725 410 CURVE SMOOTH"
);
}
);
width = 1174;
},
{
anchors = (
{
name = bottom;
position = "{491, 0}";
},
{
name = top;
position = "{491, 821}";
}
);
layerId = "9D4C2422-5CE9-4C2E-AAC7-BF869A02F5C8";
paths = (
{
closed = 1;
nodes = (
"195 182 LINE",
"202 122 OFFCURVE",
"338 -24 OFFCURVE",
"539 -24 CURVE SMOOTH",
"758 -24 OFFCURVE",
"939 130 OFFCURVE",
"939 410 CURVE SMOOTH",
"939 690 OFFCURVE",
"758 845 OFFCURVE",
"539 845 CURVE SMOOTH",
"339 845 OFFCURVE",
"205 706 OFFCURVE",
"198 638 CURVE",
"198 821 LINE",
"130 821 LINE",
"130 -416 LINE",
"195 -416 LINE"
);
},
{
closed = 1;
nodes = (
"874 178 OFFCURVE",
"717 40 OFFCURVE",
"546 40 CURVE SMOOTH",
"355 40 OFFCURVE",
"198 182 OFFCURVE",
"198 410 CURVE SMOOTH",
"198 637 OFFCURVE",
"355 781 OFFCURVE",
"546 781 CURVE SMOOTH",
"717 781 OFFCURVE",
"874 642 OFFCURVE",
"874 410 CURVE SMOOTH"
);
}
);
width = 1021;
}
);
leftKerningGroup = p;
rightKerningGroup = o;
unicode = 0070;
},
{
glyphname = thorn;
lastChange = "2020-04-11 19:54:09 +0000";
layers = (
{
components = (
{
name = b;
}
);
layerId = "C45C3DCC-6617-4D42-8E57-0A4EECAD9C2E";
paths = (
{
closed = 1;
nodes = (
"64 -416 LINE",
"453 -416 LINE",
"453 0 LINE",
"64 0 LINE"
);
}
);
width = 1165;
},
{
components = (
{
name = b;
}
);
layerId = "9D4C2422-5CE9-4C2E-AAC7-BF869A02F5C8";
paths = (
{
closed = 1;
nodes = (
"120 -416 LINE",
"184 -416 LINE",
"184 0 LINE",
"120 0 LINE"
);
}
);
width = 989;
}
);
leftKerningGroup = h;
rightKerningGroup = o;
unicode = 00FE;
},
{
glyphname = r;
lastChange = "2020-04-11 19:54:09 +0000";
layers = (
{
anchors = (
{
name = bottom;
position = "{406, 0}";
},
{
name = top;
position = "{406, 821}";
}
);
layerId = "C45C3DCC-6617-4D42-8E57-0A4EECAD9C2E";
paths = (
{
closed = 1;
nodes = (
"421 384 LINE SMOOTH",
"421 450 OFFCURVE",
"459 533 OFFCURVE",
"576 533 CURVE SMOOTH",
"648 533 OFFCURVE",
"698 498 OFFCURVE",
"715 472 CURVE",
"866 790 LINE",
"832 814 OFFCURVE",
"758 845 OFFCURVE",
"683 845 CURVE SMOOTH",
"515 845 OFFCURVE",
"437 747 OFFCURVE",
"416 704 CURVE",
"421 704 LINE",
"421 821 LINE",
"27 821 LINE",
"27 0 LINE",
"421 0 LINE"
);
}
);
width = 858;
},
{
anchors = (
{
name = bottom;
position = "{317, 0}";
},
{
name = top;
position = "{317, 821}";
}
);
layerId = "9D4C2422-5CE9-4C2E-AAC7-BF869A02F5C8";
paths = (
{
closed = 1;
nodes = (
"203 486 LINE SMOOTH",
"203 600 OFFCURVE",
"299 781 OFFCURVE",
"440 781 CURVE SMOOTH",
"507 781 OFFCURVE",
"555 760 OFFCURVE",
"574 746 CURVE",
"605 803 LINE",
"586 821 OFFCURVE",
"530 845 OFFCURVE",
"453 845 CURVE SMOOTH",
"304 845 OFFCURVE",
"203 720 OFFCURVE",
"198 667 CURVE",
"203 667 LINE",
"203 821 LINE",
"141 821 LINE",
"141 0 LINE",
"203 0 LINE"
);
}
);
width = 621;
}
);
leftKerningGroup = n;
rightKerningGroup = r;
unicode = 0072;
},
{
glyphname = s;
lastChange = "2020-04-11 19:54:09 +0000";
layers = (
{
anchors = (
{
name = bottom;
position = "{438, 0}";
},
{
name = top;
position = "{438, 821}";
}
);
layerId = "C45C3DCC-6617-4D42-8E57-0A4EECAD9C2E";
paths = (
{
closed = 1;
nodes = (
"275 845 OFFCURVE",
"78 765 OFFCURVE",
"78 587 CURVE SMOOTH",
"78 402 OFFCURVE",
"246 341 OFFCURVE",
"339 323 CURVE SMOOTH",
"416 309 OFFCURVE",
"448 296 OFFCURVE",
"448 275 CURVE SMOOTH",
"448 256 OFFCURVE",
"418 246 OFFCURVE",
"352 246 CURVE SMOOTH",
"272 246 OFFCURVE",
"184 293 OFFCURVE",
"149 320 CURVE",
"32 67 LINE",
"61 45 OFFCURVE",
"179 -24 OFFCURVE",
"392 -24 CURVE SMOOTH",
"574 -24 OFFCURVE",
"834 21 OFFCURVE",
"834 277 CURVE SMOOTH",
"834 453 OFFCURVE",
"672 510 OFFCURVE",
"562 530 CURVE SMOOTH",
"485 542 OFFCURVE",
"450 555 OFFCURVE",
"450 576 CURVE SMOOTH",
"450 597 OFFCURVE",
"483 603 OFFCURVE",
"528 603 CURVE SMOOTH",
"610 603 OFFCURVE",
"686 565 OFFCURVE",
"710 549 CURVE",
"830 776 LINE",
"808 792 OFFCURVE",
"661 845 OFFCURVE",
"480 845 CURVE SMOOTH"
);
}
);
width = 898;
},
{
anchors = (
{
name = bottom;
position = "{360, 0}";
},
{
name = top;
position = "{360, 821}";
}
);
layerId = "9D4C2422-5CE9-4C2E-AAC7-BF869A02F5C8";
paths = (
{
closed = 1;
nodes = (
"224 845 OFFCURVE",
"98 758 OFFCURVE",
"98 635 CURVE SMOOTH",
"98 501 OFFCURVE",
"211 438 OFFCURVE",
"354 402 CURVE SMOOTH",
"466 373 OFFCURVE",
"576 336 OFFCURVE",
"576 218 CURVE SMOOTH",
"576 112 OFFCURVE",
"475 40 OFFCURVE",
"341 40 CURVE SMOOTH",
"230 40 OFFCURVE",
"146 88 OFFCURVE",
"112 125 CURVE",
"66 66 LINE",
"109 27 OFFCURVE",
"213 -24 OFFCURVE",
"336 -24 CURVE SMOOTH",
"507 -24 OFFCURVE",
"645 58 OFFCURVE",
"645 218 CURVE SMOOTH",
"645 368 OFFCURVE",
"538 419 OFFCURVE",
"390 458 CURVE SMOOTH",
"258 493 OFFCURVE",
"166 542 OFFCURVE",
"166 634 CURVE SMOOTH",
"166 728 OFFCURVE",
"261 781 OFFCURVE",
"379 781 CURVE SMOOTH",
"467 781 OFFCURVE",
"541 742 OFFCURVE",
"571 714 CURVE",
"614 766 LINE",
"573 800 OFFCURVE",
"480 845 OFFCURVE",
"379 845 CURVE SMOOTH"
);
}
);
width = 758;
}
);
leftKerningGroup = s;
rightKerningGroup = s;
unicode = 0073;
},
{
glyphname = germandbls;
lastChange = "2020-04-11 19:54:09 +0000";
layers = (
{
anchors = (
{
name = bottom;
position = "{558, 0}";
},
{
name = top;
position = "{558, 821}";
}
);
layerId = "C45C3DCC-6617-4D42-8E57-0A4EECAD9C2E";
paths = (
{
closed = 1;
nodes = (
"600 -24 LINE",
"885 -24 OFFCURVE",
"1122 170 OFFCURVE",
"1122 422 CURVE SMOOTH",
"1122 600 OFFCURVE",
"1030 701 OFFCURVE",
"904 741 CURVE",
"1000 790 OFFCURVE",
"1059 888 OFFCURVE",
"1059 1006 CURVE SMOOTH",
"1059 1258 OFFCURVE",
"883 1400 OFFCURVE",
"598 1400 CURVE SMOOTH",
"315 1400 OFFCURVE",
"117 1224 OFFCURVE",
"117 896 CURVE SMOOTH",
"117 0 LINE",
"478 0 LINE",
"478 934 LINE SMOOTH",
"478 1035 OFFCURVE",
"528 1098 OFFCURVE",
"605 1098 CURVE SMOOTH",
"686 1098 OFFCURVE",
"722 1054 OFFCURVE",
"722 984 CURVE SMOOTH",
"722 906 OFFCURVE",
"650 867 OFFCURVE",
"600 867 CURVE",
"600 600 LINE",
"678 600 OFFCURVE",
"738 555 OFFCURVE",
"738 453 CURVE SMOOTH",
"738 349 OFFCURVE",
"667 302 OFFCURVE",
"600 302 CURVE"
);
}
);
width = 1202;
},
{
anchors = (
{
name = bottom;
position = "{402, 0}";
},
{
name = top;
position = "{402, 821}";
}
);
layerId = "9D4C2422-5CE9-4C2E-AAC7-BF869A02F5C8";
paths = (
{
closed = 1;
nodes = (
"362 -24 LINE",
"646 -24 OFFCURVE",
"813 115 OFFCURVE",
"813 368 CURVE SMOOTH",
"813 574 OFFCURVE",
"637 710 OFFCURVE",
"506 726 CURVE",
"606 744 OFFCURVE",
"766 877 OFFCURVE",
"766 1069 CURVE SMOOTH",
"766 1288 OFFCURVE",
"635 1400 OFFCURVE",
"450 1400 CURVE SMOOTH",
"246 1400 OFFCURVE",
"96 1235 OFFCURVE",
"96 995 CURVE",
"96 0 LINE",
"160 0 LINE",
"160 986 LINE SMOOTH",
"160 1160 OFFCURVE",
"254 1336 OFFCURVE",
"450 1336 CURVE SMOOTH",
"581 1336 OFFCURVE",
"699 1274 OFFCURVE",
"699 1077 CURVE SMOOTH",
"699 888 OFFCURVE",
"574 752 OFFCURVE",
"362 752 CURVE",
"362 688 LINE",
"603 688 OFFCURVE",
"747 571 OFFCURVE",
"747 365 CURVE SMOOTH",
"747 194 OFFCURVE",
"632 40 OFFCURVE",
"362 40 CURVE"
);
}
);
width = 926;
}
);
leftKerningGroup = h;
rightKerningGroup = germandbls;
unicode = 00DF;
},
{
glyphname = t;
lastChange = "2020-04-11 19:54:09 +0000";
layers = (
{
anchors = (
{
name = bottom;
position = "{416, -8}";
},
{
name = center;
position = "{304, 597}";
},
{
name = top;
position = "{339, 1035}";
},
{
name = topright;
position = "{645, 821}";
}
);
layerId = "C45C3DCC-6617-4D42-8E57-0A4EECAD9C2E";
paths = (
{
closed = 1;
nodes = (
"0 501 LINE",
"125 501 LINE",
"125 288 LINE SMOOTH",
"125 77 OFFCURVE",
"258 -24 OFFCURVE",
"448 -24 CURVE SMOOTH",
"606 -24 OFFCURVE",
"738 32 OFFCURVE",
"755 46 CURVE",
"627 323 LINE",
"622 317 OFFCURVE",
"594 299 OFFCURVE",
"568 299 CURVE SMOOTH",
"518 299 OFFCURVE",
"514 347 OFFCURVE",
"514 395 CURVE SMOOTH",
"514 501 LINE",
"680 501 LINE",
"680 821 LINE",
"514 821 LINE",
"514 1158 LINE",
"125 1158 LINE",
"125 821 LINE",
"0 821 LINE"
);
}
);
width = 771;
},
{
anchors = (
{
name = bottom;
position = "{408, -8}";
},
{
name = center;
position = "{264, 514}";
},
{
name = top;
position = "{285, 1085}";
},
{
name = topright;
position = "{507, 821}";
}
);
layerId = "9D4C2422-5CE9-4C2E-AAC7-BF869A02F5C8";
paths = (
{
closed = 1;
nodes = (
"53 757 LINE",
"232 757 LINE",
"232 186 LINE SMOOTH",
"232 38 OFFCURVE",
"310 -24 OFFCURVE",
"408 -24 CURVE SMOOTH",
"491 -24 OFFCURVE",
"536 13 OFFCURVE",
"546 24 CURVE",
"507 77 LINE",
"502 70 OFFCURVE",
"472 40 OFFCURVE",
"410 40 CURVE SMOOTH",
"349 40 OFFCURVE",
"296 80 OFFCURVE",
"296 202 CURVE SMOOTH",
"296 757 LINE",
"530 757 LINE",
"530 821 LINE",
"296 821 LINE",
"296 1158 LINE",
"232 1158 LINE",
"232 821 LINE",
"53 821 LINE"
);
}
);
width = 608;
}
);
leftKerningGroup = t;
rightKerningGroup = t;
unicode = 0074;
},
{
glyphname = tbar;
lastChange = "2020-04-11 19:54:09 +0000";
layers = (
{
components = (
{
name = t;
}
);
layerId = "C45C3DCC-6617-4D42-8E57-0A4EECAD9C2E";
paths = (
{
closed = 1;
nodes = (
"0 341 LINE",
"678 341 LINE",
"678 472 LINE",
"0 472 LINE"
);
}
);
width = 752;
},
{
components = (
{
name = t;
}
);
layerId = "9D4C2422-5CE9-4C2E-AAC7-BF869A02F5C8";
paths = (
{
closed = 1;
nodes = (
"54 485 LINE",
"531 485 LINE",
"531 549 LINE",
"54 549 LINE"
);
}
);
width = 608;
}
);
leftKerningGroup = t;
rightKerningGroup = t;
unicode = 0167;
},
{
glyphname = u;
lastChange = "2020-04-11 19:54:09 +0000";
layers = (
{
anchors = (
{
name = bottom;
position = "{560, 0}";
},
{
name = ogonek;
position = "{1010, 16}";
},
{
name = top;
position = "{560, 821}";
},
{
name = topright;
position = "{1066, 821}";
}
);
layerId = "C45C3DCC-6617-4D42-8E57-0A4EECAD9C2E";
paths = (
{
closed = 1;
nodes = (
"443 821 LINE",
"56 821 LINE",
"56 426 LINE SMOOTH",
"56 146 OFFCURVE",
"240 -24 OFFCURVE",
"560 -24 CURVE SMOOTH",
"882 -24 OFFCURVE",
"1066 146 OFFCURVE",
"1066 426 CURVE SMOOTH",
"1066 821 LINE",
"678 821 LINE",
"678 464 LINE SMOOTH",
"678 362 OFFCURVE",
"653 296 OFFCURVE",
"560 296 CURVE SMOOTH",
"469 296 OFFCURVE",
"443 362 OFFCURVE",
"443 464 CURVE SMOOTH"
);
}
);
width = 1146;
},
{
anchors = (
{
name = bottom;
position = "{461, 0}";
},
{
name = ogonek;
position = "{800, 16}";
},
{
name = top;
position = "{461, 821}";
},
{
name = topright;
position = "{805, 821}";
}
);
layerId = "9D4C2422-5CE9-4C2E-AAC7-BF869A02F5C8";
paths = (
{
closed = 1;
nodes = (
"181 821 LINE",
"117 821 LINE",
"117 362 LINE SMOOTH",
"117 142 OFFCURVE",
"240 -24 OFFCURVE",
"461 -24 CURVE SMOOTH",
"682 -24 OFFCURVE",
"805 142 OFFCURVE",
"805 362 CURVE SMOOTH",
"805 821 LINE",
"741 821 LINE",
"741 379 LINE SMOOTH",
"741 171 OFFCURVE",
"646 40 OFFCURVE",
"461 40 CURVE SMOOTH",
"275 40 OFFCURVE",
"181 171 OFFCURVE",
"181 379 CURVE SMOOTH"
);
}
);
width = 962;
}
);
leftKerningGroup = u;
rightKerningGroup = u;
unicode = 0075;
},
{
glyphname = v;
lastChange = "2020-04-11 19:54:09 +0000";
layers = (
{
anchors = (
{
name = bottom;
position = "{571, 0}";
},
{
name = top;
position = "{571, 821}";
}
);
layerId = "C45C3DCC-6617-4D42-8E57-0A4EECAD9C2E";
paths = (
{
closed = 1;
nodes = (
"341 0 LINE",
"802 0 LINE",
"1141 821 LINE",
"722 821 LINE",
"571 355 LINE",
"421 821 LINE",
"0 821 LINE"
);
}
);
width = 1165;
},
{
anchors = (
{
name = bottom;
position = "{432, 0}";
},
{
name = top;
position = "{432, 821}";
}
);
layerId = "9D4C2422-5CE9-4C2E-AAC7-BF869A02F5C8";
paths = (
{
closed = 1;
nodes = (
"394 0 LINE",
"470 0 LINE",
"827 821 LINE",
"758 821 LINE",
"432 64 LINE",
"104 821 LINE",
"35 821 LINE"
);
}
);
width = 904;
}
);
leftKerningGroup = v;
rightKerningGroup = v;
unicode = 0076;
},
{
glyphname = w;
lastChange = "2020-04-11 19:54:09 +0000";
layers = (
{
anchors = (
{
name = bottom;
position = "{765, 0}";
},
{
name = top;
position = "{765, 821}";
}
);
layerId = "C45C3DCC-6617-4D42-8E57-0A4EECAD9C2E";
paths = (
{
closed = 1;
nodes = (
"946 0 LINE",
"1293 0 LINE",
"1597 821 LINE",
"1179 821 LINE",
"1059 419 LINE",
"885 805 LINE",
"646 805 LINE",
"469 419 LINE",
"350 821 LINE",
"-67 821 LINE",
"238 0 LINE",
"586 0 LINE",
"765 379 LINE"
);
}
);
width = 1554;
},
{
anchors = (
{
name = bottom;
position = "{586, 0}";
},
{
name = top;
position = "{586, 821}";
}
);
layerId = "9D4C2422-5CE9-4C2E-AAC7-BF869A02F5C8";
paths = (
{
closed = 1;
nodes = (
"810 0 LINE",
"906 0 LINE",
"1088 821 LINE",
"1019 821 LINE",
"854 75 LINE",
"634 805 LINE",
"538 805 LINE",
"317 75 LINE",
"154 821 LINE",
"85 821 LINE",
"267 0 LINE",
"363 0 LINE",
"586 733 LINE"
);
}
);
width = 1211;
}
);
leftKerningGroup = w;
rightKerningGroup = w;
unicode = 0077;
},
{
glyphname = x;
lastChange = "2020-04-11 19:54:09 +0000";
layers = (
{
anchors = (
{
name = bottom;
position = "{563, 0}";
},
{
name = top;
position = "{563, 821}";
}
);
layerId = "C45C3DCC-6617-4D42-8E57-0A4EECAD9C2E";
paths = (
{
closed = 1;
nodes = (
"1077 821 LINE",
"685 821 LINE",
"573 661 LINE",
"470 821 LINE",
"34 821 LINE",
"344 413 LINE",
"0 0 LINE",
"400 0 LINE",
"547 202 LINE",
"693 0 LINE",
"1126 0 LINE",
"782 445 LINE"
);
}
);
width = 1142;
},
{
anchors = (
{
name = bottom;
position = "{451, 0}";
},
{
name = top;
position = "{451, 821}";
}
);
layerId = "9D4C2422-5CE9-4C2E-AAC7-BF869A02F5C8";
paths = (
{
closed = 1;
nodes = (
"819 821 LINE",
"736 821 LINE",
"451 474 LINE",
"168 821 LINE",
"85 821 LINE",
"408 429 LINE",
"48 0 LINE",
"131 0 LINE",
"451 389 LINE",
"773 0 LINE",
"856 0 LINE",
"494 429 LINE"
);
}
);
width = 942;
}
);
leftKerningGroup = x;
rightKerningGroup = x;
unicode = 0078;
},
{
glyphname = y;
lastChange = "2020-04-11 19:54:09 +0000";
layers = (
{
anchors = (
{
name = bottom;
position = "{539, 0}";
},
{
name = top;
position = "{539, 821}";
}
);
layerId = "C45C3DCC-6617-4D42-8E57-0A4EECAD9C2E";
paths = (
{
closed = 1;
nodes = (
"374 821 LINE",
"-16 821 LINE",
"330 0 LINE",
"138 -416 LINE",
"530 -416 LINE",
"1102 821 LINE",
"718 821 LINE",
"534 336 LINE"
);
}
);
width = 1102;
},
{
anchors = (
{
name = bottom;
position = "{398, 0}";
},
{
name = top;
position = "{398, 821}";
}
);
layerId = "9D4C2422-5CE9-4C2E-AAC7-BF869A02F5C8";
paths = (
{
closed = 1;
nodes = (
"101 821 LINE",
"30 821 LINE",
"365 0 LINE",
"181 -416 LINE",
"250 -416 LINE",
"795 821 LINE",
"725 821 LINE",
"402 70 LINE"
);
}
);
width = 835;
}
);
leftKerningGroup = y;
rightKerningGroup = y;
unicode = 0079;
},
{
glyphname = z;
lastChange = "2020-04-11 19:54:09 +0000";
layers = (
{
anchors = (
{
name = bottom;
position = "{459, 0}";
},
{
name = top;
position = "{459, 821}";
}
);
layerId = "C45C3DCC-6617-4D42-8E57-0A4EECAD9C2E";
paths = (
{
closed = 1;
nodes = (
"54 555 LINE",
"334 555 LINE",
"-19 0 LINE",
"894 0 LINE",
"894 267 LINE",
"581 267 LINE",
"934 821 LINE",
"54 821 LINE"
);
}
);
width = 938;
},
{
anchors = (
{
name = bottom;
position = "{378, 0}";
},
{
name = top;
position = "{378, 821}";
}
);
layerId = "9D4C2422-5CE9-4C2E-AAC7-BF869A02F5C8";
paths = (
{
closed = 1;
nodes = (
"83 757 LINE",
"595 757 LINE",
"35 0 LINE",
"706 0 LINE",
"706 64 LINE",
"157 64 LINE",
"717 821 LINE",
"83 821 LINE"
);
}
);
width = 794;
}
);
leftKerningGroup = z;
rightKerningGroup = z;
unicode = 007A;
},
{
glyphname = ordfeminine;
lastChange = "2020-04-11 19:54:09 +0000";
layers = (
{
layerId = "C45C3DCC-6617-4D42-8E57-0A4EECAD9C2E";
paths = (
{
closed = 1;
nodes = (
"104 938 OFFCURVE",
"202 806 OFFCURVE",
"355 806 CURVE SMOOTH",
"418 806 OFFCURVE",
"472 827 OFFCURVE",
"520 872 CURVE",
"522 872 LINE",
"522 821 LINE",
"733 821 LINE",
"733 1328 LINE",
"520 1328 LINE",
"520 1290 LINE",
"462 1333 OFFCURVE",
"413 1344 OFFCURVE",
"355 1344 CURVE SMOOTH",
"202 1344 OFFCURVE",
"104 1211 OFFCURVE",
"104 1074 CURVE SMOOTH"
);
},
{
closed = 1;
nodes = (
"336 1123 OFFCURVE",
"376 1165 OFFCURVE",
"432 1165 CURVE SMOOTH",
"483 1165 OFFCURVE",
"523 1126 OFFCURVE",
"523 1074 CURVE SMOOTH",
"523 1021 OFFCURVE",
"486 984 OFFCURVE",
"432 984 CURVE SMOOTH",
"370 984 OFFCURVE",
"336 1026 OFFCURVE",
"336 1074 CURVE SMOOTH"
);
}
);
width = 859;
},
{
layerId = "9D4C2422-5CE9-4C2E-AAC7-BF869A02F5C8";
paths = (
{
closed = 1;
nodes = (
"138 899 OFFCURVE",
"259 805 OFFCURVE",
"395 805 CURVE SMOOTH",
"504 805 OFFCURVE",
"571 875 OFFCURVE",
"571 899 CURVE",
"573 899 LINE",
"573 821 LINE",
"642 821 LINE",
"642 1328 LINE",
"571 1330 LINE",
"571 1253 LINE",
"570 1282 OFFCURVE",
"502 1344 OFFCURVE",
"395 1344 CURVE SMOOTH",
"259 1344 OFFCURVE",
"138 1250 OFFCURVE",
"138 1075 CURVE SMOOTH"
);
},
{
closed = 1;
nodes = (
"202 1202 OFFCURVE",
"290 1275 OFFCURVE",
"381 1275 CURVE SMOOTH",
"485 1275 OFFCURVE",
"574 1192 OFFCURVE",
"574 1075 CURVE SMOOTH",
"574 960 OFFCURVE",
"488 874 OFFCURVE",
"381 874 CURVE SMOOTH",
"291 874 OFFCURVE",
"202 947 OFFCURVE",
"202 1075 CURVE SMOOTH"
);
}
);
width = 818;
}
);
leftKerningGroup = ordfeminine;
rightKerningGroup = ordfeminine;
unicode = 00AA;
},
{
glyphname = ordmasculine;
lastChange = "2020-04-11 19:54:09 +0000";
layers = (
{
layerId = "C45C3DCC-6617-4D42-8E57-0A4EECAD9C2E";
paths = (
{
closed = 1;
nodes = (
"106 918 OFFCURVE",
"229 806 OFFCURVE",
"427 806 CURVE SMOOTH",
"616 806 OFFCURVE",
"744 918 OFFCURVE",
"744 1074 CURVE SMOOTH",
"744 1232 OFFCURVE",
"610 1344 OFFCURVE",
"427 1344 CURVE SMOOTH",
"242 1344 OFFCURVE",
"106 1232 OFFCURVE",
"106 1074 CURVE SMOOTH"
);
},
{
closed = 1;
nodes = (
"334 1125 OFFCURVE",
"371 1162 OFFCURVE",
"426 1162 CURVE SMOOTH",
"480 1162 OFFCURVE",
"517 1125 OFFCURVE",
"517 1074 CURVE SMOOTH",
"517 1024 OFFCURVE",
"483 987 OFFCURVE",
"426 987 CURVE SMOOTH",
"366 987 OFFCURVE",
"334 1024 OFFCURVE",
"334 1074 CURVE SMOOTH"
);
}
);
width = 874;
},
{
layerId = "9D4C2422-5CE9-4C2E-AAC7-BF869A02F5C8";
paths = (
{
closed = 1;
nodes = (
"136 918 OFFCURVE",
"259 806 OFFCURVE",
"403 806 CURVE SMOOTH",
"538 806 OFFCURVE",
"666 918 OFFCURVE",
"666 1074 CURVE SMOOTH",
"666 1232 OFFCURVE",
"531 1344 OFFCURVE",
"403 1344 CURVE SMOOTH",
"272 1344 OFFCURVE",
"136 1232 OFFCURVE",
"136 1074 CURVE SMOOTH"
);
},
{
closed = 1;
nodes = (
"208 1197 OFFCURVE",
"306 1283 OFFCURVE",
"402 1283 CURVE SMOOTH",
"498 1283 OFFCURVE",
"597 1197 OFFCURVE",
"597 1074 CURVE SMOOTH",
"597 954 OFFCURVE",
"502 866 OFFCURVE",
"402 866 CURVE SMOOTH",
"296 866 OFFCURVE",
"208 954 OFFCURVE",
"208 1074 CURVE SMOOTH"
);
}
);
width = 842;
}
);
leftKerningGroup = ordmasculine;
rightKerningGroup = ordmasculine;
unicode = 00BA;
},
{
glyphname = zero;
lastChange = "2020-04-11 19:54:09 +0000";
layers = (
{
layerId = "C45C3DCC-6617-4D42-8E57-0A4EECAD9C2E";
paths = (
{
closed = 1;
nodes = (
"27 163 OFFCURVE",
"286 -24 OFFCURVE",
"590 -24 CURVE SMOOTH",
"896 -24 OFFCURVE",
"1152 163 OFFCURVE",
"1152 659 CURVE SMOOTH",
"1152 1109 OFFCURVE",
"896 1344 OFFCURVE",
"590 1344 CURVE SMOOTH",
"286 1344 OFFCURVE",
"27 1109 OFFCURVE",
"27 659 CURVE SMOOTH"
);
},
{
closed = 1;
nodes = (
"414 870 OFFCURVE",
"467 1006 OFFCURVE",
"590 1006 CURVE SMOOTH",
"714 1006 OFFCURVE",
"765 870 OFFCURVE",
"765 659 CURVE SMOOTH",
"765 422 OFFCURVE",
"714 314 OFFCURVE",
"590 314 CURVE SMOOTH",
"467 314 OFFCURVE",
"414 421 OFFCURVE",
"414 659 CURVE SMOOTH"
);
}
);
width = 1203;
},
{
layerId = "9D4C2422-5CE9-4C2E-AAC7-BF869A02F5C8";
paths = (
{
closed = 1;
nodes = (
"86 190 OFFCURVE",
"330 -24 OFFCURVE",
"552 -24 CURVE SMOOTH",
"776 -24 OFFCURVE",
"1016 190 OFFCURVE",
"1016 659 CURVE SMOOTH",
"1016 1138 OFFCURVE",
"776 1344 OFFCURVE",
"552 1344 CURVE SMOOTH",
"330 1344 OFFCURVE",
"86 1138 OFFCURVE",
"86 659 CURVE SMOOTH"
);
},
{
closed = 1;
nodes = (
"154 1077 OFFCURVE",
"347 1280 OFFCURVE",
"552 1280 CURVE SMOOTH",
"757 1280 OFFCURVE",
"949 1078 OFFCURVE",
"949 659 CURVE SMOOTH",
"949 246 OFFCURVE",
"757 40 OFFCURVE",
"552 40 CURVE SMOOTH",
"347 40 OFFCURVE",
"154 246 OFFCURVE",
"154 659 CURVE SMOOTH"
);
}
);
width = 1142;
}
);
leftKerningGroup = zero;
rightKerningGroup = zero;
unicode = 0030;
},
{
glyphname = one;
lastChange = "2020-04-11 19:54:09 +0000";
layers = (
{
layerId = "C45C3DCC-6617-4D42-8E57-0A4EECAD9C2E";
paths = (
{
closed = 1;
nodes = (
"205 0 LINE",
"592 0 LINE",
"592 1320 LINE",
"421 1320 LINE",
"8 1094 LINE",
"8 730 LINE",
"205 826 LINE"
);
}
);
width = 686;
},
{
layerId = "9D4C2422-5CE9-4C2E-AAC7-BF869A02F5C8";
paths = (
{
closed = 1;
nodes = (
"312 0 LINE",
"376 0 LINE",
"376 1320 LINE",
"315 1320 LINE",
"67 1170 LINE",
"67 1101 LINE",
"312 1248 LINE"
);
}
);
width = 574;
}
);
leftKerningGroup = one;
rightKerningGroup = one;
unicode = 0031;
},
{
glyphname = two;
lastChange = "2020-04-11 19:54:09 +0000";
layers = (
{
layerId = "C45C3DCC-6617-4D42-8E57-0A4EECAD9C2E";
paths = (
{
closed = 1;
nodes = (
"658 1019 OFFCURVE",
"706 986 OFFCURVE",
"706 904 CURVE SMOOTH",
"706 691 OFFCURVE",
"91 312 OFFCURVE",
"77 304 CURVE",
"77 0 LINE",
"1083 0 LINE",
"1083 334 LINE",
"654 334 LINE",
"666 336 OFFCURVE",
"1094 550 OFFCURVE",
"1094 898 CURVE SMOOTH",
"1094 1051 OFFCURVE",
"1005 1344 OFFCURVE",
"574 1344 CURVE SMOOTH",
"133 1344 OFFCURVE",
"21 1006 OFFCURVE",
"13 957 CURVE",
"341 805 LINE",
"346 822 OFFCURVE",
"427 1019 OFFCURVE",
"574 1019 CURVE SMOOTH"
);
}
);
width = 1174;
},
{
layerId = "9D4C2422-5CE9-4C2E-AAC7-BF869A02F5C8";
paths = (
{
closed = 1;
nodes = (
"710 1280 OFFCURVE",
"818 1198 OFFCURVE",
"818 962 CURVE SMOOTH",
"818 658 OFFCURVE",
"261 202 OFFCURVE",
"85 59 CURVE",
"85 0 LINE",
"874 0 LINE",
"874 64 LINE",
"197 64 LINE",
"278 130 OFFCURVE",
"885 629 OFFCURVE",
"885 963 CURVE SMOOTH",
"885 1235 OFFCURVE",
"736 1344 OFFCURVE",
"518 1344 CURVE SMOOTH",
"211 1344 OFFCURVE",
"77 1078 OFFCURVE",
"72 1061 CURVE",
"134 1037 LINE",
"138 1048 OFFCURVE",
"261 1280 OFFCURVE",
"518 1280 CURVE SMOOTH"
);
}
);
width = 1046;
}
);
leftKerningGroup = two;
rightKerningGroup = two;
unicode = 0032;
},
{
glyphname = three;
lastChange = "2020-04-11 19:54:09 +0000";
layers = (
{
layerId = "C45C3DCC-6617-4D42-8E57-0A4EECAD9C2E";
paths = (
{
closed = 1;
nodes = (
"358 872 LINE",
"374 944 OFFCURVE",
"434 1038 OFFCURVE",
"536 1038 CURVE SMOOTH",
"606 1038 OFFCURVE",
"650 992 OFFCURVE",
"650 933 CURVE SMOOTH",
"650 869 OFFCURVE",
"606 827 OFFCURVE",
"541 827 CURVE SMOOTH",
"507 827 LINE",
"507 557 LINE",
"533 557 LINE",
"611 557 OFFCURVE",
"670 515 OFFCURVE",
"670 437 CURVE SMOOTH",
"670 357 OFFCURVE",
"616 307 OFFCURVE",
"533 307 CURVE SMOOTH",
"440 307 OFFCURVE",
"379 421 OFFCURVE",
"360 506 CURVE",
"5 333 LINE",
"45 179 OFFCURVE",
"214 -24 OFFCURVE",
"534 -24 CURVE SMOOTH",
"829 -24 OFFCURVE",
"1051 160 OFFCURVE",
"1051 424 CURVE SMOOTH",
"1051 590 OFFCURVE",
"944 701 OFFCURVE",
"858 718 CURVE",
"925 742 OFFCURVE",
"994 842 OFFCURVE",
"994 962 CURVE SMOOTH",
"994 1200 OFFCURVE",
"789 1344 OFFCURVE",
"539 1344 CURVE SMOOTH",
"243 1344 OFFCURVE",
"85 1158 OFFCURVE",
"50 1019 CURVE"
);
}
);
width = 1104;
},
{
layerId = "9D4C2422-5CE9-4C2E-AAC7-BF869A02F5C8";
paths = (
{
closed = 1;
nodes = (
"178 1126 LINE",
"179 1131 OFFCURVE",
"245 1280 OFFCURVE",
"467 1280 CURVE SMOOTH",
"677 1280 OFFCURVE",
"778 1157 OFFCURVE",
"778 1002 CURVE SMOOTH",
"778 826 OFFCURVE",
"630 723 OFFCURVE",
"472 723 CURVE SMOOTH",
"438 723 LINE",
"438 661 LINE",
"464 661 LINE",
"642 661 OFFCURVE",
"808 573 OFFCURVE",
"808 370 CURVE SMOOTH",
"808 190 OFFCURVE",
"686 40 OFFCURVE",
"464 40 CURVE SMOOTH",
"272 40 OFFCURVE",
"158 158 OFFCURVE",
"125 248 CURVE",
"67 213 LINE",
"106 110 OFFCURVE",
"238 -24 OFFCURVE",
"466 -24 CURVE SMOOTH",
"715 -24 OFFCURVE",
"877 150 OFFCURVE",
"877 370 CURVE SMOOTH",
"877 571 OFFCURVE",
"723 686 OFFCURVE",
"598 694 CURVE",
"723 710 OFFCURVE",
"843 834 OFFCURVE",
"843 1005 CURVE SMOOTH",
"843 1186 OFFCURVE",
"723 1344 OFFCURVE",
"470 1344 CURVE SMOOTH",
"219 1344 OFFCURVE",
"122 1179 OFFCURVE",
"114 1155 CURVE"
);
}
);
width = 1000;
}
);
leftKerningGroup = three;
rightKerningGroup = three;
unicode = 0033;
},
{
glyphname = four;
lastChange = "2020-04-11 19:54:09 +0000";
layers = (
{
layerId = "C45C3DCC-6617-4D42-8E57-0A4EECAD9C2E";
paths = (
{
closed = 1;
nodes = (
"459 1320 LINE",
"-10 581 LINE",
"-10 278 LINE",
"526 278 LINE",
"526 0 LINE",
"912 0 LINE",
"912 278 LINE",
"1066 278 LINE",
"1066 613 LINE",
"912 613 LINE",
"912 1320 LINE"
);
},
{
closed = 1;
nodes = (
"373 613 LINE",
"523 851 LINE",
"526 851 LINE",
"526 613 LINE"
);
}
);
width = 1098;
},
{
layerId = "9D4C2422-5CE9-4C2E-AAC7-BF869A02F5C8";
paths = (
{
closed = 1;
nodes = (
"630 1320 LINE",
"53 339 LINE",
"53 278 LINE",
"618 278 LINE",
"618 0 LINE",
"682 0 LINE",
"682 278 LINE",
"832 278 LINE",
"832 342 LINE",
"682 342 LINE",
"682 1320 LINE"
);
},
{
closed = 1;
nodes = (
"133 342 LINE",
"618 1166 LINE",
"618 1166 LINE",
"618 342 LINE"
);
}
);
width = 930;
}
);
leftKerningGroup = four;
rightKerningGroup = four;
unicode = 0034;
},
{
glyphname = five;
lastChange = "2020-04-11 19:54:09 +0000";
layers = (
{
layerId = "C45C3DCC-6617-4D42-8E57-0A4EECAD9C2E";
paths = (
{
closed = 1;
nodes = (
"16 286 LINE",
"77 120 OFFCURVE",
"229 -24 OFFCURVE",
"523 -24 CURVE SMOOTH",
"806 -24 OFFCURVE",
"1032 162 OFFCURVE",
"1032 467 CURVE SMOOTH",
"1032 768 OFFCURVE",
"818 888 OFFCURVE",
"627 888 CURVE SMOOTH",
"546 888 OFFCURVE",
"472 862 OFFCURVE",
"461 850 CURVE",
"488 986 LINE",
"966 986 LINE",
"966 1320 LINE",
"166 1320 LINE",
"45 624 LINE",
"360 507 LINE",
"374 533 OFFCURVE",
"422 584 OFFCURVE",
"507 584 CURVE SMOOTH",
"594 584 OFFCURVE",
"642 528 OFFCURVE",
"642 443 CURVE SMOOTH",
"642 357 OFFCURVE",
"594 296 OFFCURVE",
"507 296 CURVE SMOOTH",
"422 296 OFFCURVE",
"374 336 OFFCURVE",
"346 427 CURVE"
);
}
);
width = 1096;
},
{
layerId = "9D4C2422-5CE9-4C2E-AAC7-BF869A02F5C8";
paths = (
{
closed = 1;
nodes = (
"110 184 LINE",
"122 155 OFFCURVE",
"221 -24 OFFCURVE",
"485 -24 CURVE SMOOTH",
"765 -24 OFFCURVE",
"906 170 OFFCURVE",
"904 432 CURVE SMOOTH",
"902 696 OFFCURVE",
"742 834 OFFCURVE",
"539 834 CURVE SMOOTH",
"347 834 OFFCURVE",
"256 728 OFFCURVE",
"248 707 CURVE",
"328 1256 LINE",
"853 1256 LINE",
"853 1320 LINE",
"266 1320 LINE",
"158 594 LINE",
"226 576 LINE",
"258 659 OFFCURVE",
"363 770 OFFCURVE",
"533 770 CURVE SMOOTH",
"714 770 OFFCURVE",
"837 651 OFFCURVE",
"840 432 CURVE SMOOTH",
"843 194 OFFCURVE",
"706 40 OFFCURVE",
"485 40 CURVE SMOOTH",
"264 40 OFFCURVE",
"181 198 OFFCURVE",
"170 224 CURVE"
);
}
);
width = 1037;
}
);
leftKerningGroup = five;
rightKerningGroup = five;
unicode = 0035;
},
{
glyphname = six;
lastChange = "2020-04-11 19:54:09 +0000";
layers = (
{
layerId = "C45C3DCC-6617-4D42-8E57-0A4EECAD9C2E";
paths = (
{
closed = 1;
nodes = (
"613 893 OFFCURVE",
"598 886 OFFCURVE",
"590 880 CURVE",
"978 1320 LINE",
"528 1320 LINE",
"221 950 LINE SMOOTH",
"131 843 OFFCURVE",
"43 693 OFFCURVE",
"43 459 CURVE SMOOTH",
"43 149 OFFCURVE",
"275 -24 OFFCURVE",
"558 -24 CURVE SMOOTH",
"840 -24 OFFCURVE",
"1067 173 OFFCURVE",
"1067 451 CURVE SMOOTH",
"1067 733 OFFCURVE",
"848 893 OFFCURVE",
"653 893 CURVE"
);
},
{
closed = 1;
nodes = (
"472 288 OFFCURVE",
"405 355 OFFCURVE",
"405 438 CURVE SMOOTH",
"405 520 OFFCURVE",
"472 587 OFFCURVE",
"555 587 CURVE SMOOTH",
"637 587 OFFCURVE",
"704 520 OFFCURVE",
"704 438 CURVE SMOOTH",
"704 355 OFFCURVE",
"637 288 OFFCURVE",
"555 288 CURVE SMOOTH"
);
}
);
width = 1142;
},
{
layerId = "9D4C2422-5CE9-4C2E-AAC7-BF869A02F5C8";
paths = (
{
closed = 1;
nodes = (
"398 843 OFFCURVE",
"296 794 OFFCURVE",
"256 749 CURVE",
"714 1320 LINE",
"632 1320 LINE",
"246 832 LINE SMOOTH",
"155 717 OFFCURVE",
"83 602 OFFCURVE",
"83 427 CURVE SMOOTH",
"83 165 OFFCURVE",
"269 -24 OFFCURVE",
"517 -24 CURVE SMOOTH",
"757 -24 OFFCURVE",
"958 160 OFFCURVE",
"958 408 CURVE SMOOTH",
"958 656 OFFCURVE",
"770 843 OFFCURVE",
"533 843 CURVE SMOOTH"
);
},
{
closed = 1;
nodes = (
"317 38 OFFCURVE",
"150 205 OFFCURVE",
"150 411 CURVE SMOOTH",
"150 616 OFFCURVE",
"317 782 OFFCURVE",
"523 782 CURVE SMOOTH",
"728 782 OFFCURVE",
"894 616 OFFCURVE",
"894 411 CURVE SMOOTH",
"894 205 OFFCURVE",
"728 38 OFFCURVE",
"523 38 CURVE SMOOTH"
);
}
);
width = 1080;
}
);
leftKerningGroup = six;
rightKerningGroup = six;
unicode = 0036;
},
{
glyphname = seven;
lastChange = "2020-04-11 19:54:09 +0000";
layers = (
{
layerId = "C45C3DCC-6617-4D42-8E57-0A4EECAD9C2E";
paths = (
{
closed = 1;
nodes = (
"93 986 LINE",
"658 986 LINE",
"77 0 LINE",
"502 0 LINE",
"1109 1066 LINE",
"1109 1320 LINE",
"93 1320 LINE"
);
}
);
width = 1125;
},
{
layerId = "9D4C2422-5CE9-4C2E-AAC7-BF869A02F5C8";
paths = (
{
closed = 1;
nodes = (
"128 1256 LINE",
"822 1256 LINE",
"107 0 LINE",
"182 0 LINE",
"899 1262 LINE",
"899 1320 LINE",
"128 1320 LINE"
);
}
);
width = 997;
}
);
leftKerningGroup = seven;
rightKerningGroup = seven;
unicode = 0037;
},
{
glyphname = eight;
lastChange = "2020-04-11 19:54:09 +0000";
layers = (
{
layerId = "C45C3DCC-6617-4D42-8E57-0A4EECAD9C2E";
paths = (
{
closed = 1;
nodes = (
"826 -24 OFFCURVE",
"1074 134 OFFCURVE",
"1074 371 CURVE SMOOTH",
"1074 547 OFFCURVE",
"979 645 OFFCURVE",
"850 712 CURVE",
"947 776 OFFCURVE",
"1011 846 OFFCURVE",
"1011 992 CURVE SMOOTH",
"1011 1211 OFFCURVE",
"814 1344 OFFCURVE",
"558 1344 CURVE SMOOTH",
"309 1344 OFFCURVE",
"99 1211 OFFCURVE",
"99 992 CURVE SMOOTH",
"99 846 OFFCURVE",
"166 776 OFFCURVE",
"267 712 CURVE",
"136 645 OFFCURVE",
"43 547 OFFCURVE",
"43 371 CURVE SMOOTH",
"43 134 OFFCURVE",
"294 -24 OFFCURVE",
"560 -24 CURVE SMOOTH"
);
},
{
closed = 1;
nodes = (
"496 310 OFFCURVE",
"445 362 OFFCURVE",
"445 424 CURVE SMOOTH",
"445 486 OFFCURVE",
"496 538 OFFCURVE",
"558 538 CURVE SMOOTH",
"621 538 OFFCURVE",
"672 486 OFFCURVE",
"672 424 CURVE SMOOTH",
"672 362 OFFCURVE",
"621 310 OFFCURVE",
"558 310 CURVE SMOOTH"
);
},
{
closed = 1;
nodes = (
"499 830 OFFCURVE",
"450 880 OFFCURVE",
"450 941 CURVE SMOOTH",
"450 1000 OFFCURVE",
"499 1050 OFFCURVE",
"560 1050 CURVE SMOOTH",
"619 1050 OFFCURVE",
"669 1000 OFFCURVE",
"669 941 CURVE SMOOTH",
"669 880 OFFCURVE",
"619 830 OFFCURVE",
"560 830 CURVE SMOOTH"
);
}
);
width = 1139;
},
{
layerId = "9D4C2422-5CE9-4C2E-AAC7-BF869A02F5C8";
paths = (
{
closed = 1;
nodes = (
"758 -24 OFFCURVE",
"912 149 OFFCURVE",
"912 357 CURVE SMOOTH",
"912 562 OFFCURVE",
"786 670 OFFCURVE",
"651 712 CURVE",
"754 752 OFFCURVE",
"853 842 OFFCURVE",
"853 1014 CURVE SMOOTH",
"853 1206 OFFCURVE",
"709 1344 OFFCURVE",
"517 1344 CURVE SMOOTH",
"325 1344 OFFCURVE",
"179 1206 OFFCURVE",
"179 1014 CURVE SMOOTH",
"179 842 OFFCURVE",
"286 747 OFFCURVE",
"382 712 CURVE",
"246 670 OFFCURVE",
"122 562 OFFCURVE",
"122 357 CURVE SMOOTH",
"122 149 OFFCURVE",
"278 -24 OFFCURVE",
"518 -24 CURVE SMOOTH"
);
},
{
closed = 1;
nodes = (
"334 40 OFFCURVE",
"190 178 OFFCURVE",
"190 358 CURVE SMOOTH",
"190 539 OFFCURVE",
"334 677 OFFCURVE",
"517 677 CURVE SMOOTH",
"698 677 OFFCURVE",
"843 539 OFFCURVE",
"843 358 CURVE SMOOTH",
"843 178 OFFCURVE",
"698 40 OFFCURVE",
"517 40 CURVE SMOOTH"
);
},
{
closed = 1;
nodes = (
"368 741 OFFCURVE",
"246 862 OFFCURVE",
"246 1011 CURVE SMOOTH",
"246 1158 OFFCURVE",
"368 1280 OFFCURVE",
"517 1280 CURVE SMOOTH",
"664 1280 OFFCURVE",
"786 1158 OFFCURVE",
"786 1011 CURVE SMOOTH",
"786 862 OFFCURVE",
"664 741 OFFCURVE",
"517 741 CURVE SMOOTH"
);
}
);
width = 1075;
}
);
leftKerningGroup = eight;
rightKerningGroup = eight;
unicode = 0038;
},
{
glyphname = fraction;
lastChange = "2020-04-11 19:54:09 +0000";
layers = (
{
layerId = "C45C3DCC-6617-4D42-8E57-0A4EECAD9C2E";
paths = (
{
closed = 1;
nodes = (
"-264 0 LINE",
"-32 0 LINE",
"736 1320 LINE",
"504 1320 LINE"
);
}
);
width = 462;
},
{
layerId = "9D4C2422-5CE9-4C2E-AAC7-BF869A02F5C8";
paths = (
{
closed = 1;
nodes = (
"-240 0 LINE",
"-194 0 LINE",
"574 1320 LINE",
"528 1320 LINE"
);
}
);
width = 398;
}
);
leftKerningGroup = fraction;
rightKerningGroup = fraction;
unicode = 2044;
},
{
glyphname = period;
lastChange = "2020-04-11 19:54:09 +0000";
layers = (
{
layerId = "C45C3DCC-6617-4D42-8E57-0A4EECAD9C2E";
paths = (
{
closed = 1;
nodes = (
"405 -24 OFFCURVE",
"501 72 OFFCURVE",
"501 190 CURVE SMOOTH",
"501 309 OFFCURVE",
"405 405 OFFCURVE",
"286 405 CURVE SMOOTH",
"168 405 OFFCURVE",
"72 309 OFFCURVE",
"72 190 CURVE SMOOTH",
"72 72 OFFCURVE",
"168 -24 OFFCURVE",
"286 -24 CURVE SMOOTH"
);
}
);
width = 598;
},
{
layerId = "9D4C2422-5CE9-4C2E-AAC7-BF869A02F5C8";
paths = (
{
closed = 1;
nodes = (
"347 -24 OFFCURVE",
"389 18 OFFCURVE",
"389 70 CURVE SMOOTH",
"389 125 OFFCURVE",
"347 166 OFFCURVE",
"294 166 CURVE SMOOTH",
"242 166 OFFCURVE",
"200 125 OFFCURVE",
"200 70 CURVE SMOOTH",
"200 18 OFFCURVE",
"242 -24 OFFCURVE",
"294 -24 CURVE SMOOTH"
);
}
);
width = 630;
}
);
leftKerningGroup = period;
rightKerningGroup = period;
unicode = 002E;
},
{
glyphname = comma;
lastChange = "2020-04-11 19:54:09 +0000";
layers = (
{
layerId = "C45C3DCC-6617-4D42-8E57-0A4EECAD9C2E";
paths = (
{
closed = 1;
nodes = (
"173 402 OFFCURVE",
"77 307 OFFCURVE",
"77 192 CURVE SMOOTH",
"77 62 OFFCURVE",
"165 -11 OFFCURVE",
"254 -11 CURVE SMOOTH",
"283 -11 OFFCURVE",
"299 -8 OFFCURVE",
"312 0 CURVE",
"280 -98 OFFCURVE",
"171 -187 OFFCURVE",
"98 -227 CURVE",
"189 -334 LINE",
"350 -245 OFFCURVE",
"494 -35 OFFCURVE",
"494 163 CURVE SMOOTH",
"494 323 OFFCURVE",
"400 402 OFFCURVE",
"286 402 CURVE SMOOTH"
);
}
);
width = 598;
},
{
layerId = "9D4C2422-5CE9-4C2E-AAC7-BF869A02F5C8";
paths = (
{
closed = 1;
nodes = (
"181 176 OFFCURVE",
"136 133 OFFCURVE",
"136 67 CURVE SMOOTH",
"136 21 OFFCURVE",
"178 -29 OFFCURVE",
"235 -30 CURVE SMOOTH",
"250 -30 OFFCURVE",
"266 -27 OFFCURVE",
"283 -19 CURVE",
"270 -85 OFFCURVE",
"195 -139 OFFCURVE",
"141 -163 CURVE",
"194 -210 LINE",
"283 -162 OFFCURVE",
"363 -67 OFFCURVE",
"363 56 CURVE SMOOTH",
"363 123 OFFCURVE",
"310 176 OFFCURVE",
"245 176 CURVE SMOOTH"
);
}
);
width = 531;
}
);
leftKerningGroup = period;
rightKerningGroup = period;
unicode = 002C;
},
{
glyphname = exclam;
lastChange = "2020-04-11 19:54:09 +0000";
layers = (
{
layerId = "C45C3DCC-6617-4D42-8E57-0A4EECAD9C2E";
paths = (
{
closed = 1;
nodes = (
"419 475 LINE",
"496 1376 LINE",
"77 1376 LINE",
"155 475 LINE"
);
},
{
closed = 1;
nodes = (
"406 -24 OFFCURVE",
"502 72 OFFCURVE",
"502 190 CURVE SMOOTH",
"502 309 OFFCURVE",
"406 406 OFFCURVE",
"286 406 CURVE SMOOTH",
"168 406 OFFCURVE",
"72 309 OFFCURVE",
"72 190 CURVE SMOOTH",
"72 72 OFFCURVE",
"170 -24 OFFCURVE",
"286 -24 CURVE SMOOTH"
);
}
);
width = 598;
},
{
layerId = "9D4C2422-5CE9-4C2E-AAC7-BF869A02F5C8";
paths = (
{
closed = 1;
nodes = (
"318 312 LINE",
"338 1376 LINE",
"254 1376 LINE",
"272 312 LINE"
);
},
{
closed = 1;
nodes = (
"347 -24 OFFCURVE",
"389 18 OFFCURVE",
"389 70 CURVE SMOOTH",
"389 125 OFFCURVE",
"347 166 OFFCURVE",
"294 166 CURVE SMOOTH",
"242 166 OFFCURVE",
"200 125 OFFCURVE",
"200 70 CURVE SMOOTH",
"200 18 OFFCURVE",
"242 -24 OFFCURVE",
"294 -24 CURVE SMOOTH"
);
}
);
width = 630;
}
);
leftKerningGroup = exclam;
rightKerningGroup = exclam;
unicode = 0021;
},
{
glyphname = question;
lastChange = "2020-04-11 19:54:09 +0000";
layers = (
{
layerId = "C45C3DCC-6617-4D42-8E57-0A4EECAD9C2E";
paths = (
{
closed = 1;
nodes = (
"621 475 LINE",
"621 522 LINE SMOOTH",
"621 603 OFFCURVE",
"645 658 OFFCURVE",
"717 698 CURVE SMOOTH",
"787 738 OFFCURVE",
"947 835 OFFCURVE",
"947 1013 CURVE SMOOTH",
"947 1221 OFFCURVE",
"746 1344 OFFCURVE",
"490 1344 CURVE SMOOTH",
"114 1344 OFFCURVE",
"-5 1061 OFFCURVE",
"-10 1021 CURVE",
"309 896 LINE",
"328 949 OFFCURVE",
"362 1022 OFFCURVE",
"438 1022 CURVE SMOOTH",
"499 1022 OFFCURVE",
"526 1002 OFFCURVE",
"526 950 CURVE SMOOTH",
"526 893 OFFCURVE",
"472 853 OFFCURVE",
"410 821 CURVE SMOOTH",
"334 782 OFFCURVE",
"285 715 OFFCURVE",
"285 622 CURVE SMOOTH",
"285 475 LINE"
);
},
{
closed = 1;
nodes = (
"579 -24 OFFCURVE",
"677 72 OFFCURVE",
"677 190 CURVE SMOOTH",
"677 310 OFFCURVE",
"579 406 OFFCURVE",
"459 406 CURVE SMOOTH",
"342 406 OFFCURVE",
"245 310 OFFCURVE",
"245 190 CURVE SMOOTH",
"245 72 OFFCURVE",
"342 -24 OFFCURVE",
"459 -24 CURVE SMOOTH"
);
}
);
width = 994;
},
{
layerId = "9D4C2422-5CE9-4C2E-AAC7-BF869A02F5C8";
paths = (
{
closed = 1;
nodes = (
"454 312 LINE",
"454 563 LINE SMOOTH",
"454 637 OFFCURVE",
"462 659 OFFCURVE",
"514 693 CURVE SMOOTH",
"662 792 OFFCURVE",
"781 896 OFFCURVE",
"781 1058 CURVE SMOOTH",
"781 1227 OFFCURVE",
"650 1344 OFFCURVE",
"427 1344 CURVE SMOOTH",
"202 1344 OFFCURVE",
"77 1178 OFFCURVE",
"66 1118 CURVE",
"125 1088 LINE",
"144 1160 OFFCURVE",
"251 1280 OFFCURVE",
"426 1280 CURVE SMOOTH",
"598 1280 OFFCURVE",
"717 1206 OFFCURVE",
"717 1058 CURVE SMOOTH",
"717 906 OFFCURVE",
"582 802 OFFCURVE",
"482 739 CURVE SMOOTH",
"422 702 OFFCURVE",
"390 677 OFFCURVE",
"390 603 CURVE SMOOTH",
"390 312 LINE"
);
},
{
closed = 1;
nodes = (
"474 -24 OFFCURVE",
"515 18 OFFCURVE",
"515 70 CURVE SMOOTH",
"515 125 OFFCURVE",
"474 166 OFFCURVE",
"422 166 CURVE SMOOTH",
"370 166 OFFCURVE",
"328 125 OFFCURVE",
"328 70 CURVE SMOOTH",
"328 18 OFFCURVE",
"370 -24 OFFCURVE",
"422 -24 CURVE SMOOTH"
);
}
);
width = 891;
}
);
leftKerningGroup = question;
rightKerningGroup = question;
unicode = 003F;
},
{
glyphname = bullet;
lastChange = "2020-04-11 19:54:09 +0000";
layers = (
{
layerId = "C45C3DCC-6617-4D42-8E57-0A4EECAD9C2E";
paths = (
{
closed = 1;
nodes = (
"373 946 OFFCURVE",
"206 776 OFFCURVE",
"206 570 CURVE SMOOTH",
"206 365 OFFCURVE",
"373 197 OFFCURVE",
"579 197 CURVE SMOOTH",
"786 197 OFFCURVE",
"955 363 OFFCURVE",
"955 570 CURVE SMOOTH",
"955 778 OFFCURVE",
"786 946 OFFCURVE",
"579 946 CURVE SMOOTH"
);
}
);
width = 1186;
},
{
layerId = "9D4C2422-5CE9-4C2E-AAC7-BF869A02F5C8";
paths = (
{
closed = 1;
nodes = (
"373 717 OFFCURVE",
"309 653 OFFCURVE",
"309 570 CURVE SMOOTH",
"309 490 OFFCURVE",
"373 426 OFFCURVE",
"453 426 CURVE SMOOTH",
"536 426 OFFCURVE",
"600 490 OFFCURVE",
"600 570 CURVE SMOOTH",
"600 653 OFFCURVE",
"536 717 OFFCURVE",
"453 717 CURVE SMOOTH"
);
}
);
width = 949;
}
);
leftKerningGroup = bullet;
rightKerningGroup = bullet;
unicode = 2022;
},
{
glyphname = asterisk;
lastChange = "2020-04-11 19:54:09 +0000";
layers = (
{
layerId = "C45C3DCC-6617-4D42-8E57-0A4EECAD9C2E";
paths = (
{
closed = 1;
nodes = (
"482 1384 LINE",
"314 1384 LINE",
"314 1206 LINE",
"139 1258 LINE",
"90 1106 LINE",
"277 1046 LINE",
"150 906 LINE",
"293 803 LINE",
"398 941 LINE",
"507 805 LINE",
"648 906 LINE",
"520 1046 LINE",
"706 1106 LINE",
"656 1258 LINE",
"482 1206 LINE"
);
}
);
width = 821;
},
{
layerId = "9D4C2422-5CE9-4C2E-AAC7-BF869A02F5C8";
paths = (
{
closed = 1;
nodes = (
"438 1357 LINE",
"376 1357 LINE",
"374 1141 LINE",
"170 1211 LINE",
"150 1152 LINE",
"358 1080 LINE",
"227 902 LINE",
"277 869 LINE",
"406 1042 LINE",
"526 867 LINE",
"576 901 LINE",
"456 1080 LINE",
"664 1152 LINE",
"643 1211 LINE",
"440 1141 LINE"
);
}
);
width = 853;
}
);
leftKerningGroup = asterisk;
rightKerningGroup = asterisk;
unicode = 002A;
},
{
glyphname = numbersign;
lastChange = "2020-04-11 19:54:09 +0000";
layers = (
{
layerId = "C45C3DCC-6617-4D42-8E57-0A4EECAD9C2E";
paths = (
{
closed = 1;
nodes = (
"136 0 LINE",
"395 0 LINE",
"744 1320 LINE",
"485 1320 LINE"
);
},
{
closed = 1;
nodes = (
"584 0 LINE",
"843 0 LINE",
"1192 1320 LINE",
"933 1320 LINE"
);
},
{
closed = 1;
nodes = (
"184 749 LINE",
"1176 749 LINE",
"1250 997 LINE",
"258 997 LINE"
);
},
{
closed = 1;
nodes = (
"80 325 LINE",
"1072 325 LINE",
"1146 573 LINE",
"154 573 LINE"
);
}
);
width = 1373;
},
{
layerId = "9D4C2422-5CE9-4C2E-AAC7-BF869A02F5C8";
paths = (
{
closed = 1;
nodes = (
"234 0 LINE",
"288 0 LINE",
"637 1320 LINE",
"582 1320 LINE"
);
},
{
closed = 1;
nodes = (
"576 0 LINE",
"630 0 LINE",
"979 1320 LINE",
"925 1320 LINE"
);
},
{
closed = 1;
nodes = (
"240 858 LINE",
"1059 858 LINE",
"1078 915 LINE",
"259 915 LINE"
);
},
{
closed = 1;
nodes = (
"136 408 LINE",
"955 408 LINE",
"974 464 LINE",
"155 464 LINE"
);
}
);
width = 1214;
}
);
leftKerningGroup = numbersign;
rightKerningGroup = numbersign;
unicode = 0023;
},
{
glyphname = slash;
lastChange = "2020-04-11 19:54:09 +0000";
layers = (
{
layerId = "C45C3DCC-6617-4D42-8E57-0A4EECAD9C2E";
paths = (
{
closed = 1;
nodes = (
"16 -192 LINE",
"318 -192 LINE",
"978 1376 LINE",
"675 1376 LINE"
);
}
);
width = 1018;
},
{
layerId = "9D4C2422-5CE9-4C2E-AAC7-BF869A02F5C8";
paths = (
{
closed = 1;
nodes = (
"69 -192 LINE",
"141 -192 LINE",
"800 1376 LINE",
"728 1376 LINE"
);
}
);
width = 922;
}
);
leftKerningGroup = slash;
rightKerningGroup = slash;
unicode = 002F;
},
{
glyphname = backslash;
lastChange = "2020-04-11 19:54:09 +0000";
layers = (
{
layerId = "C45C3DCC-6617-4D42-8E57-0A4EECAD9C2E";
paths = (
{
closed = 1;
nodes = (
"318 1376 LINE",
"16 1376 LINE",
"675 0 LINE",
"978 0 LINE"
);
}
);
width = 1018;
},
{
layerId = "9D4C2422-5CE9-4C2E-AAC7-BF869A02F5C8";
paths = (
{
closed = 1;
nodes = (
"154 1376 LINE",
"80 1376 LINE",
"739 0 LINE",
"813 0 LINE"
);
}
);
width = 922;
}
);
leftKerningGroup = backslash;
rightKerningGroup = backslash;
unicode = 005C;
},
{
glyphname = parenleft;
lastChange = "2020-04-11 19:54:09 +0000";
layers = (
{
layerId = "C45C3DCC-6617-4D42-8E57-0A4EECAD9C2E";
paths = (
{
closed = 1;
nodes = (
"586 -331 LINE",
"504 -218 OFFCURVE",
"397 80 OFFCURVE",
"397 475 CURVE SMOOTH",
"397 893 OFFCURVE",
"522 1197 OFFCURVE",
"614 1310 CURVE",
"390 1403 LINE",
"250 1250 OFFCURVE",
"64 891 OFFCURVE",
"64 475 CURVE SMOOTH",
"64 70 OFFCURVE",
"232 -275 OFFCURVE",
"358 -424 CURVE"
);
}
);
width = 685;
},
{
layerId = "9D4C2422-5CE9-4C2E-AAC7-BF869A02F5C8";
paths = (
{
closed = 1;
nodes = (
"429 -350 LINE",
"326 -221 OFFCURVE",
"189 93 OFFCURVE",
"189 475 CURVE SMOOTH",
"189 882 OFFCURVE",
"328 1213 OFFCURVE",
"432 1349 CURVE",
"376 1392 LINE",
"267 1243 OFFCURVE",
"122 891 OFFCURVE",
"122 475 CURVE SMOOTH",
"122 70 OFFCURVE",
"269 -259 OFFCURVE",
"381 -397 CURVE"
);
}
);
width = 573;
}
);
leftKerningGroup = parenleft;
rightKerningGroup = parenleft;
unicode = 0028;
},
{
glyphname = braceleft;
lastChange = "2020-04-11 19:54:09 +0000";
layers = (
{
layerId = "C45C3DCC-6617-4D42-8E57-0A4EECAD9C2E";
paths = (
{
closed = 1;
nodes = (
"78 365 LINE",
"133 365 OFFCURVE",
"184 342 OFFCURVE",
"184 269 CURVE SMOOTH",
"184 -126 LINE SMOOTH",
"184 -259 OFFCURVE",
"262 -416 OFFCURVE",
"467 -416 CURVE SMOOTH",
"650 -416 LINE",
"650 -136 LINE",
"573 -136 LINE SMOOTH",
"514 -136 OFFCURVE",
"485 -107 OFFCURVE",
"485 -43 CURVE SMOOTH",
"485 309 LINE SMOOTH",
"485 392 OFFCURVE",
"462 442 OFFCURVE",
"363 480 CURVE",
"458 517 OFFCURVE",
"485 560 OFFCURVE",
"485 651 CURVE SMOOTH",
"485 1003 LINE SMOOTH",
"485 1067 OFFCURVE",
"514 1096 OFFCURVE",
"573 1096 CURVE SMOOTH",
"650 1096 LINE",
"650 1376 LINE",
"467 1376 LINE SMOOTH",
"262 1376 OFFCURVE",
"184 1219 OFFCURVE",
"184 1086 CURVE SMOOTH",
"184 691 LINE SMOOTH",
"184 618 OFFCURVE",
"133 595 OFFCURVE",
"78 595 CURVE"
);
}
);
width = 754;
},
{
layerId = "9D4C2422-5CE9-4C2E-AAC7-BF869A02F5C8";
paths = (
{
closed = 1;
nodes = (
"126 448 LINE",
"235 448 OFFCURVE",
"259 374 OFFCURVE",
"259 301 CURVE SMOOTH",
"259 -206 LINE SMOOTH",
"259 -342 OFFCURVE",
"293 -416 OFFCURVE",
"434 -416 CURVE SMOOTH",
"509 -416 LINE",
"509 -352 LINE",
"434 -352 LINE SMOOTH",
"341 -352 OFFCURVE",
"325 -302 OFFCURVE",
"325 -243 CURVE SMOOTH",
"325 309 LINE SMOOTH",
"325 397 OFFCURVE",
"283 469 OFFCURVE",
"208 478 CURVE",
"283 486 OFFCURVE",
"325 562 OFFCURVE",
"325 651 CURVE SMOOTH",
"325 1203 LINE SMOOTH",
"325 1280 OFFCURVE",
"358 1312 OFFCURVE",
"434 1312 CURVE SMOOTH",
"509 1312 LINE",
"509 1376 LINE",
"434 1376 LINE SMOOTH",
"293 1376 OFFCURVE",
"259 1302 OFFCURVE",
"259 1166 CURVE SMOOTH",
"259 659 LINE SMOOTH",
"259 586 OFFCURVE",
"235 514 OFFCURVE",
"126 514 CURVE"
);
}
);
width = 674;
}
);
leftKerningGroup = braceleft;
rightKerningGroup = braceleft;
unicode = 007B;
},
{
glyphname = bracketleft;
lastChange = "2020-04-11 19:54:09 +0000";
layers = (
{
layerId = "C45C3DCC-6617-4D42-8E57-0A4EECAD9C2E";
paths = (
{
closed = 1;
nodes = (
"648 -416 LINE",
"648 -144 LINE",
"378 -144 LINE",
"378 1104 LINE",
"648 1104 LINE",
"648 1376 LINE",
"75 1376 LINE",
"75 -416 LINE"
);
}
);
width = 747;
},
{
layerId = "9D4C2422-5CE9-4C2E-AAC7-BF869A02F5C8";
paths = (
{
closed = 1;
nodes = (
"483 -416 LINE",
"483 -352 LINE",
"192 -352 LINE",
"192 1312 LINE",
"483 1312 LINE",
"483 1376 LINE",
"128 1376 LINE",
"128 -416 LINE"
);
}
);
width = 651;
}
);
leftKerningGroup = bracketleft;
rightKerningGroup = bracketleft;
unicode = 005B;
},
{
glyphname = hyphen;
lastChange = "2020-04-11 19:54:09 +0000";
layers = (
{
layerId = "C45C3DCC-6617-4D42-8E57-0A4EECAD9C2E";
paths = (
{
closed = 1;
nodes = (
"619 288 LINE",
"619 621 LINE",
"104 621 LINE",
"104 288 LINE"
);
}
);
width = 747;
},
{
layerId = "9D4C2422-5CE9-4C2E-AAC7-BF869A02F5C8";
paths = (
{
closed = 1;
nodes = (
"627 426 LINE",
"627 486 LINE",
"112 486 LINE",
"112 426 LINE"
);
}
);
width = 779;
}
);
leftKerningGroup = hyphen;
rightKerningGroup = hyphen;
unicode = 002D;
},
{
glyphname = endash;
lastChange = "2020-04-11 19:54:09 +0000";
layers = (
{
layerId = "C45C3DCC-6617-4D42-8E57-0A4EECAD9C2E";
paths = (
{
closed = 1;
nodes = (
"891 288 LINE",
"891 621 LINE",
"-10 621 LINE",
"-10 288 LINE"
);
}
);
width = 904;
},
{
layerId = "9D4C2422-5CE9-4C2E-AAC7-BF869A02F5C8";
paths = (
{
closed = 1;
nodes = (
"790 426 LINE",
"790 486 LINE",
"26 486 LINE",
"26 426 LINE"
);
}
);
width = 856;
}
);
leftKerningGroup = hyphen;
rightKerningGroup = hyphen;
unicode = 2013;
},
{
glyphname = emdash;
lastChange = "2020-04-11 19:54:09 +0000";
layers = (
{
layerId = "C45C3DCC-6617-4D42-8E57-0A4EECAD9C2E";
paths = (
{
closed = 1;
nodes = (
"1787 288 LINE",
"1787 621 LINE",
"-42 621 LINE",
"-42 288 LINE"
);
}
);
width = 1768;
},
{
layerId = "9D4C2422-5CE9-4C2E-AAC7-BF869A02F5C8";
paths = (
{
closed = 1;
nodes = (
"1491 426 LINE",
"1491 486 LINE",
"43 486 LINE",
"43 426 LINE"
);
}
);
width = 1576;
}
);
leftKerningGroup = hyphen;
rightKerningGroup = hyphen;
unicode = 2014;
},
{
glyphname = underscore;
lastChange = "2020-04-11 19:54:09 +0000";
layers = (
{
layerId = "C45C3DCC-6617-4D42-8E57-0A4EECAD9C2E";
paths = (
{
closed = 1;
nodes = (
"851 -222 LINE",
"851 -10 LINE",
"3 -10 LINE",
"3 -222 LINE"
);
}
);
width = 861;
},
{
layerId = "9D4C2422-5CE9-4C2E-AAC7-BF869A02F5C8";
paths = (
{
closed = 1;
nodes = (
"763 -126 LINE",
"763 -64 LINE",
"27 -64 LINE",
"27 -126 LINE"
);
}
);
width = 797;
}
);
leftKerningGroup = underscore;
rightKerningGroup = underscore;
unicode = 005F;
},
{
glyphname = quotesinglbase;
lastChange = "2020-04-11 19:54:09 +0000";
layers = (
{
layerId = "C45C3DCC-6617-4D42-8E57-0A4EECAD9C2E";
paths = (
{
closed = 1;
nodes = (
"157 402 OFFCURVE",
"61 307 OFFCURVE",
"61 192 CURVE SMOOTH",
"61 62 OFFCURVE",
"149 -11 OFFCURVE",
"238 -11 CURVE SMOOTH",
"267 -11 OFFCURVE",
"283 -8 OFFCURVE",
"296 0 CURVE",
"264 -98 OFFCURVE",
"155 -187 OFFCURVE",
"82 -227 CURVE",
"173 -334 LINE",
"334 -245 OFFCURVE",
"478 -35 OFFCURVE",
"478 163 CURVE SMOOTH",
"478 323 OFFCURVE",
"384 402 OFFCURVE",
"270 402 CURVE SMOOTH"
);
}
);
width = 506;
},
{
layerId = "9D4C2422-5CE9-4C2E-AAC7-BF869A02F5C8";
paths = (
{
closed = 1;
nodes = (
"165 176 OFFCURVE",
"120 133 OFFCURVE",
"120 67 CURVE SMOOTH",
"120 21 OFFCURVE",
"162 -30 OFFCURVE",
"219 -30 CURVE SMOOTH",
"234 -30 OFFCURVE",
"250 -27 OFFCURVE",
"267 -19 CURVE",
"254 -85 OFFCURVE",
"179 -139 OFFCURVE",
"125 -163 CURVE",
"178 -210 LINE",
"267 -162 OFFCURVE",
"347 -67 OFFCURVE",
"347 56 CURVE SMOOTH",
"347 123 OFFCURVE",
"294 176 OFFCURVE",
"229 176 CURVE SMOOTH"
);
}
);
width = 459;
}
);
leftKerningGroup = period;
rightKerningGroup = period;
unicode = 201A;
},
{
glyphname = quoteleft;
lastChange = "2020-04-11 19:54:09 +0000";
layers = (
{
layerId = "C45C3DCC-6617-4D42-8E57-0A4EECAD9C2E";
paths = (
{
closed = 1;
nodes = (
"387 704 OFFCURVE",
"477 786 OFFCURVE",
"477 918 CURVE SMOOTH",
"477 1046 OFFCURVE",
"397 1099 OFFCURVE",
"326 1099 CURVE SMOOTH",
"296 1099 OFFCURVE",
"259 1094 OFFCURVE",
"245 1080 CURVE",
"245 1184 OFFCURVE",
"387 1272 OFFCURVE",
"432 1294 CURVE",
"347 1358 LINE",
"198 1294 OFFCURVE",
"67 1152 OFFCURVE",
"67 950 CURVE SMOOTH",
"67 787 OFFCURVE",
"155 704 OFFCURVE",
"272 704 CURVE SMOOTH"
);
}
);
width = 506;
},
{
layerId = "9D4C2422-5CE9-4C2E-AAC7-BF869A02F5C8";
paths = (
{
closed = 1;
nodes = (
"283 923 OFFCURVE",
"336 971 OFFCURVE",
"336 1045 CURVE SMOOTH",
"336 1099 OFFCURVE",
"293 1141 OFFCURVE",
"238 1141 CURVE SMOOTH",
"205 1141 OFFCURVE",
"173 1125 OFFCURVE",
"163 1109 CURVE",
"166 1162 OFFCURVE",
"222 1240 OFFCURVE",
"274 1259 CURVE",
"237 1317 LINE",
"174 1280 OFFCURVE",
"83 1198 OFFCURVE",
"83 1064 CURVE SMOOTH",
"83 976 OFFCURVE",
"138 923 OFFCURVE",
"210 923 CURVE SMOOTH"
);
}
);
width = 424;
}
);
leftKerningGroup = quotedblleft;
rightKerningGroup = quotedblleft;
unicode = 2018;
},
{
glyphname = guillemetleft;
lastChange = "2020-04-11 19:54:09 +0000";
layers = (
{
layerId = "C45C3DCC-6617-4D42-8E57-0A4EECAD9C2E";
paths = (
{
closed = 1;
nodes = (
"334 445 LINE",
"541 714 LINE",
"354 862 LINE",
"29 445 LINE",
"354 29 LINE",
"541 176 LINE"
);
},
{
closed = 1;
nodes = (
"747 445 LINE",
"954 714 LINE",
"766 862 LINE",
"442 445 LINE",
"766 29 LINE",
"954 176 LINE"
);
}
);
width = 1040;
},
{
layerId = "9D4C2422-5CE9-4C2E-AAC7-BF869A02F5C8";
paths = (
{
closed = 1;
nodes = (
"144 445 LINE",
"403 768 LINE",
"365 797 LINE",
"86 445 LINE",
"365 91 LINE",
"403 123 LINE"
);
},
{
closed = 1;
nodes = (
"509 445 LINE",
"768 768 LINE",
"728 797 LINE",
"451 445 LINE",
"728 91 LINE",
"768 123 LINE"
);
}
);
width = 928;
}
);
leftKerningGroup = guillemetleft;
rightKerningGroup = guillemetleft;
unicode = 00AB;
},
{
glyphname = guilsinglleft;
lastChange = "2020-04-11 19:54:09 +0000";
layers = (
{
layerId = "C45C3DCC-6617-4D42-8E57-0A4EECAD9C2E";
paths = (
{
closed = 1;
nodes = (
"341 445 LINE",
"547 714 LINE",
"360 862 LINE",
"35 445 LINE",
"360 29 LINE",
"547 176 LINE"
);
}
);
width = 640;
},
{
layerId = "9D4C2422-5CE9-4C2E-AAC7-BF869A02F5C8";
paths = (
{
closed = 1;
nodes = (
"141 445 LINE",
"400 768 LINE",
"362 797 LINE",
"83 445 LINE",
"362 91 LINE",
"400 123 LINE"
);
}
);
width = 557;
}
);
leftKerningGroup = guillemotleft;
rightKerningGroup = guillemotleft;
unicode = 2039;
},
{
glyphname = quotedbl;
lastChange = "2020-04-11 19:54:09 +0000";
layers = (
{
layerId = "C45C3DCC-6617-4D42-8E57-0A4EECAD9C2E";
paths = (
{
closed = 1;
nodes = (
"142 1366 OFFCURVE",
"62 1299 OFFCURVE",
"62 1230 CURVE SMOOTH",
"62 1222 LINE SMOOTH",
"62 1162 OFFCURVE",
"118 891 OFFCURVE",
"160 704 CURVE",
"254 704 LINE",
"312 891 OFFCURVE",
"387 1162 OFFCURVE",
"387 1222 CURVE SMOOTH",
"387 1230 LINE SMOOTH",
"387 1299 OFFCURVE",
"307 1366 OFFCURVE",
"224 1366 CURVE SMOOTH"
);
},
{
closed = 1;
nodes = (
"530 1366 OFFCURVE",
"450 1299 OFFCURVE",
"450 1230 CURVE SMOOTH",
"450 1222 LINE SMOOTH",
"450 1162 OFFCURVE",
"506 891 OFFCURVE",
"547 704 CURVE",
"642 704 LINE",
"699 891 OFFCURVE",
"774 1162 OFFCURVE",
"774 1222 CURVE SMOOTH",
"774 1230 LINE SMOOTH",
"774 1299 OFFCURVE",
"694 1366 OFFCURVE",
"611 1366 CURVE SMOOTH"
);
}
);
width = 861;
},
{
layerId = "9D4C2422-5CE9-4C2E-AAC7-BF869A02F5C8";
paths = (
{
closed = 1;
nodes = (
"155 1285 OFFCURVE",
"134 1248 OFFCURVE",
"134 1208 CURVE SMOOTH",
"134 1203 LINE SMOOTH",
"134 1171 OFFCURVE",
"150 1019 OFFCURVE",
"163 914 CURVE",
"218 914 LINE",
"238 1019 OFFCURVE",
"266 1171 OFFCURVE",
"266 1203 CURVE SMOOTH",
"266 1208 LINE SMOOTH",
"266 1246 OFFCURVE",
"246 1285 OFFCURVE",
"200 1285 CURVE SMOOTH"
);
},
{
closed = 1;
nodes = (
"419 1285 OFFCURVE",
"400 1248 OFFCURVE",
"400 1208 CURVE SMOOTH",
"400 1203 LINE SMOOTH",
"400 1171 OFFCURVE",
"416 1019 OFFCURVE",
"429 914 CURVE",
"482 914 LINE",
"502 1019 OFFCURVE",
"531 1171 OFFCURVE",
"531 1203 CURVE SMOOTH",
"531 1208 LINE SMOOTH",
"531 1248 OFFCURVE",
"512 1285 OFFCURVE",
"466 1285 CURVE SMOOTH"
);
}
);
width = 707;
}
);
leftKerningGroup = quotedbl;
rightKerningGroup = quotedbl;
unicode = 0022;
},
{
glyphname = quotesingle;
lastChange = "2020-04-11 19:54:09 +0000";
layers = (
{
layerId = "C45C3DCC-6617-4D42-8E57-0A4EECAD9C2E";
paths = (
{
closed = 1;
nodes = (
"158 1366 OFFCURVE",
"78 1307 OFFCURVE",
"78 1182 CURVE SMOOTH",
"78 1019 OFFCURVE",
"133 838 OFFCURVE",
"176 704 CURVE",
"270 704 LINE",
"328 838 OFFCURVE",
"403 1016 OFFCURVE",
"403 1182 CURVE SMOOTH",
"403 1307 OFFCURVE",
"323 1366 OFFCURVE",
"240 1366 CURVE SMOOTH"
);
}
);
width = 506;
},
{
layerId = "9D4C2422-5CE9-4C2E-AAC7-BF869A02F5C8";
paths = (
{
closed = 1;
nodes = (
"147 1285 OFFCURVE",
"126 1248 OFFCURVE",
"126 1208 CURVE SMOOTH",
"126 1178 OFFCURVE",
"139 1043 OFFCURVE",
"155 914 CURVE",
"210 914 LINE",
"237 1048 OFFCURVE",
"258 1174 OFFCURVE",
"258 1208 CURVE SMOOTH",
"258 1246 OFFCURVE",
"238 1285 OFFCURVE",
"192 1285 CURVE SMOOTH"
);
}
);
width = 424;
}
);
leftKerningGroup = quotedbl;
rightKerningGroup = quotesingle;
unicode = 0027;
},
{
glyphname = cent;
lastChange = "2020-04-11 19:54:09 +0000";
layers = (
{
components = (
{
name = c;
}
);
layerId = "C45C3DCC-6617-4D42-8E57-0A4EECAD9C2E";
paths = (
{
closed = 1;
nodes = (
"400 790 LINE",
"614 790 LINE",
"614 1018 LINE",
"400 1018 LINE"
);
},
{
closed = 1;
nodes = (
"400 -206 LINE",
"614 -206 LINE",
"614 21 LINE",
"400 21 LINE"
);
}
);
width = 867;
},
{
components = (
{
name = c;
}
);
layerId = "9D4C2422-5CE9-4C2E-AAC7-BF869A02F5C8";
paths = (
{
closed = 1;
nodes = (
"427 790 LINE",
"486 790 LINE",
"486 1018 LINE",
"427 1018 LINE"
);
},
{
closed = 1;
nodes = (
"427 -206 LINE",
"486 -206 LINE",
"486 21 LINE",
"427 21 LINE"
);
}
);
width = 811;
}
);
leftKerningGroup = o;
rightKerningGroup = c;
unicode = 00A2;
},
{
glyphname = colonsign;
lastChange = "2020-06-16 20:47:42 +0000";
layers = (
{
components = (
{
name = C.ss01;
}
);
layerId = "9D4C2422-5CE9-4C2E-AAC7-BF869A02F5C8";
paths = (
{
closed = 1;
nodes = (
"216 -192 LINE",
"288 -192 LINE",
"947 1376 LINE",
"875 1376 LINE"
);
},
{
closed = 1;
nodes = (
"69 -192 LINE",
"141 -192 LINE",
"800 1376 LINE",
"728 1376 LINE"
);
}
);
width = 1056;
},
{
components = (
{
name = C.ss01;
}
);
layerId = "C45C3DCC-6617-4D42-8E57-0A4EECAD9C2E";
paths = (
{
closed = 1;
nodes = (
"459 -192 LINE",
"688 -192 LINE",
"1348 1376 LINE",
"1118 1376 LINE"
);
},
{
closed = 1;
nodes = (
"153 -182 LINE",
"382 -182 LINE",
"1042 1386 LINE",
"812 1386 LINE"
);
}
);
width = 1206;
}
);
unicode = 20A1;
},
{
glyphname = currency;
lastChange = "2020-04-11 19:54:09 +0000";
layers = (
{
components = (
{
alignment = -1;
name = o;
transform = "{1, 0, 0, 1, 0, 160}";
}
);
layerId = "9D4C2422-5CE9-4C2E-AAC7-BF869A02F5C8";
paths = (
{
closed = 1;
nodes = (
"717 864 LINE",
"760 821 LINE",
"920 982 LINE",
"878 1024 LINE"
);
},
{
closed = 1;
nodes = (
"13 158 LINE",
"54 117 LINE",
"216 277 LINE",
"173 320 LINE"
);
},
{
closed = 1;
nodes = (
"13 982 LINE",
"173 821 LINE",
"216 864 LINE",
"54 1024 LINE"
);
},
{
closed = 1;
nodes = (
"717 277 LINE",
"878 117 LINE",
"920 158 LINE",
"760 320 LINE"
);
}
);
width = 938;
},
{
components = (
{
alignment = -1;
name = o;
transform = "{1, 0, 0, 1, 32, 160}";
}
);
layerId = "C45C3DCC-6617-4D42-8E57-0A4EECAD9C2E";
paths = (
{
closed = 1;
nodes = (
"744 912 LINE",
"894 760 LINE",
"1056 922 LINE",
"904 1072 LINE"
);
},
{
closed = 1;
nodes = (
"38 206 LINE",
"190 56 LINE",
"350 216 LINE",
"200 368 LINE"
);
},
{
closed = 1;
nodes = (
"38 922 LINE",
"200 760 LINE",
"350 912 LINE",
"190 1072 LINE"
);
},
{
closed = 1;
nodes = (
"744 216 LINE",
"904 56 LINE",
"1056 206 LINE",
"894 368 LINE"
);
}
);
width = 1085;
}
);
unicode = 00A4;
},
{
glyphname = dollar;
lastChange = "2020-04-11 19:54:09 +0000";
layers = (
{
components = (
{
name = S;
}
);
layerId = "C45C3DCC-6617-4D42-8E57-0A4EECAD9C2E";
paths = (
{
closed = 1;
nodes = (
"458 1307 LINE",
"672 1307 LINE",
"672 1534 LINE",
"458 1534 LINE"
);
},
{
closed = 1;
nodes = (
"458 -206 LINE",
"672 -206 LINE",
"672 21 LINE",
"458 21 LINE"
);
}
);
width = 1163;
},
{
components = (
{
name = S;
}
);
layerId = "9D4C2422-5CE9-4C2E-AAC7-BF869A02F5C8";
paths = (
{
closed = 1;
nodes = (
"483 1307 LINE",
"542 1307 LINE",
"542 1534 LINE",
"483 1534 LINE"
);
},
{
closed = 1;
nodes = (
"483 -206 LINE",
"542 -206 LINE",
"542 21 LINE",
"483 21 LINE"
);
}
);
width = 1003;
}
);
leftKerningGroup = dollar;
rightKerningGroup = dollar;
unicode = 0024;
},
{
glyphname = euro;
lastChange = "2020-04-11 19:54:09 +0000";
layers = (
{
components = (
{
alignment = -1;
name = C;
transform = "{1, 0, 0, 1, 58, 0}";
}
);
layerId = "C45C3DCC-6617-4D42-8E57-0A4EECAD9C2E";
paths = (
{
closed = 1;
nodes = (
"8 691 LINE",
"1003 691 LINE",
"1003 893 LINE",
"8 893 LINE"
);
},
{
closed = 1;
nodes = (
"8 424 LINE",
"1003 424 LINE",
"1003 626 LINE",
"8 626 LINE"
);
}
);
width = 1315;
},
{
components = (
{
alignment = -1;
name = C;
transform = "{1, 0, 0, 1, 75, 0}";
}
);
layerId = "9D4C2422-5CE9-4C2E-AAC7-BF869A02F5C8";
paths = (
{
closed = 1;
nodes = (
"34 762 LINE",
"1029 762 LINE",
"1029 822 LINE",
"34 822 LINE"
);
},
{
closed = 1;
nodes = (
"34 494 LINE",
"1029 494 LINE",
"1029 555 LINE",
"34 555 LINE"
);
}
);
width = 1299;
}
);
leftKerningGroup = euro;
rightKerningGroup = euro;
unicode = 20AC;
},
{
glyphname = florin;
lastChange = "2020-04-11 19:54:09 +0000";
layers = (
{
layerId = "9D4C2422-5CE9-4C2E-AAC7-BF869A02F5C8";
paths = (
{
closed = 1;
nodes = (
"3 -427 OFFCURVE",
"142 -354 OFFCURVE",
"178 -94 CURVE",
"299 758 LINE",
"558 758 LINE",
"568 821 LINE",
"309 821 LINE",
"341 1054 LINE SMOOTH",
"374 1298 OFFCURVE",
"472 1339 OFFCURVE",
"555 1339 CURVE SMOOTH",
"632 1339 OFFCURVE",
"667 1309 OFFCURVE",
"675 1301 CURVE",
"714 1357 LINE",
"707 1363 OFFCURVE",
"661 1400 OFFCURVE",
"570 1400 CURVE SMOOTH",
"454 1400 OFFCURVE",
"315 1326 OFFCURVE",
"280 1067 CURVE SMOOTH",
"246 821 LINE",
"51 821 LINE",
"42 758 LINE",
"237 758 LINE",
"117 -82 LINE",
"83 -325 OFFCURVE",
"-14 -366 OFFCURVE",
"-98 -366 CURVE SMOOTH",
"-174 -366 OFFCURVE",
"-210 -336 OFFCURVE",
"-218 -328 CURVE",
"-256 -384 LINE",
"-250 -390 OFFCURVE",
"-203 -427 OFFCURVE",
"-112 -427 CURVE SMOOTH"
);
}
);
width = 610;
},
{
layerId = "C45C3DCC-6617-4D42-8E57-0A4EECAD9C2E";
paths = (
{
closed = 1;
nodes = (
"189 -435 OFFCURVE",
"402 -294 OFFCURVE",
"434 -62 CURVE",
"512 501 LINE",
"662 501 LINE",
"707 821 LINE",
"557 821 LINE",
"581 995 LINE SMOOTH",
"589 1050 OFFCURVE",
"626 1069 OFFCURVE",
"654 1069 CURVE SMOOTH",
"685 1069 OFFCURVE",
"704 1051 OFFCURVE",
"707 1048 CURVE",
"882 1349 LINE",
"875 1357 OFFCURVE",
"782 1400 OFFCURVE",
"635 1400 CURVE SMOOTH",
"437 1400 OFFCURVE",
"224 1259 OFFCURVE",
"192 1027 CURVE SMOOTH",
"163 821 LINE",
"50 821 LINE",
"5 501 LINE",
"118 501 LINE",
"45 -30 LINE",
"37 -85 OFFCURVE",
"0 -104 OFFCURVE",
"-29 -104 CURVE SMOOTH",
"-59 -104 OFFCURVE",
"-78 -86 OFFCURVE",
"-82 -83 CURVE",
"-256 -384 LINE",
"-250 -392 OFFCURVE",
"-157 -435 OFFCURVE",
"-10 -435 CURVE SMOOTH"
);
}
);
width = 742;
}
);
unicode = 0192;
},
{
glyphname = franc;
lastChange = "2020-04-11 19:54:09 +0000";
layers = (
{
components = (
{
name = F;
}
);
layerId = "9D4C2422-5CE9-4C2E-AAC7-BF869A02F5C8";
paths = (
{
closed = 1;
nodes = (
"-19 331 LINE",
"509 331 LINE",
"509 395 LINE",
"-19 395 LINE"
);
}
);
width = 867;
},
{
components = (
{
name = F;
}
);
layerId = "C45C3DCC-6617-4D42-8E57-0A4EECAD9C2E";
paths = (
{
closed = 1;
nodes = (
"-19 165 LINE",
"707 165 LINE",
"707 395 LINE",
"-19 395 LINE"
);
}
);
width = 995;
}
);
unicode = 20A3;
},
{
glyphname = lira;
lastChange = "2020-04-11 19:54:09 +0000";
layers = (
{
layerId = "9D4C2422-5CE9-4C2E-AAC7-BF869A02F5C8";
paths = (
{
closed = 1;
nodes = (
"354 491 OFFCURVE",
"373 429 OFFCURVE",
"373 350 CURVE SMOOTH",
"373 283 OFFCURVE",
"354 226 OFFCURVE",
"349 211 CURVE",
"240 211 OFFCURVE",
"123 90 OFFCURVE",
"114 0 CURVE",
"181 0 LINE",
"184 43 OFFCURVE",
"256 155 OFFCURVE",
"368 155 CURVE SMOOTH",
"533 155 OFFCURVE",
"613 -24 OFFCURVE",
"811 -24 CURVE SMOOTH",
"952 -24 OFFCURVE",
"1038 88 OFFCURVE",
"1064 173 CURVE",
"1005 198 LINE",
"994 130 OFFCURVE",
"934 40 OFFCURVE",
"813 40 CURVE SMOOTH",
"662 40 OFFCURVE",
"550 190 OFFCURVE",
"410 205 CURVE",
"414 219 OFFCURVE",
"435 282 OFFCURVE",
"435 350 CURVE SMOOTH",
"435 422 OFFCURVE",
"421 472 OFFCURVE",
"381 579 CURVE SMOOTH",
"362 619 OFFCURVE",
"274 842 OFFCURVE",
"274 971 CURVE SMOOTH",
"274 1173 OFFCURVE",
"400 1282 OFFCURVE",
"603 1282 CURVE SMOOTH",
"790 1282 OFFCURVE",
"909 1160 OFFCURVE",
"946 1069 CURVE",
"1002 1102 LINE",
"957 1206 OFFCURVE",
"818 1346 OFFCURVE",
"603 1346 CURVE SMOOTH",
"323 1346 OFFCURVE",
"210 1171 OFFCURVE",
"210 973 CURVE SMOOTH",
"210 819 OFFCURVE",
"304 598 OFFCURVE",
"314 579 CURVE SMOOTH"
);
},
{
closed = 1;
nodes = (
"114 642 LINE",
"816 642 LINE",
"816 704 LINE",
"114 704 LINE"
);
},
{
closed = 1;
nodes = (
"114 437 LINE",
"816 437 LINE",
"816 499 LINE",
"114 499 LINE"
);
}
);
width = 1190;
},
{
layerId = "C45C3DCC-6617-4D42-8E57-0A4EECAD9C2E";
paths = (
{
closed = 1;
nodes = (
"298 550 OFFCURVE",
"344 443 OFFCURVE",
"344 389 CURVE SMOOTH",
"344 350 OFFCURVE",
"338 333 OFFCURVE",
"320 306 CURVE",
"168 306 OFFCURVE",
"46 184 OFFCURVE",
"46 0 CURVE",
"315 0 LINE",
"326 16 OFFCURVE",
"352 38 OFFCURVE",
"384 38 CURVE SMOOTH",
"536 38 OFFCURVE",
"624 -24 OFFCURVE",
"824 -24 CURVE SMOOTH",
"1026 -24 OFFCURVE",
"1138 118 OFFCURVE",
"1165 227 CURVE",
"856 338 LINE",
"854 333 OFFCURVE",
"830 264 OFFCURVE",
"771 264 CURVE SMOOTH",
"701 264 OFFCURVE",
"653 286 OFFCURVE",
"635 286 CURVE",
"642 296 OFFCURVE",
"662 352 OFFCURVE",
"662 402 CURVE SMOOTH",
"662 470 OFFCURVE",
"650 547 OFFCURVE",
"605 650 CURVE SMOOTH",
"582 701 OFFCURVE",
"536 822 OFFCURVE",
"536 909 CURVE SMOOTH",
"536 986 OFFCURVE",
"566 1042 OFFCURVE",
"638 1042 CURVE SMOOTH",
"725 1042 OFFCURVE",
"758 941 OFFCURVE",
"758 864 CURVE",
"1075 1021 LINE",
"1054 1160 OFFCURVE",
"917 1346 OFFCURVE",
"622 1346 CURVE SMOOTH",
"326 1346 OFFCURVE",
"158 1165 OFFCURVE",
"158 925 CURVE SMOOTH",
"158 803 OFFCURVE",
"200 714 OFFCURVE",
"238 650 CURVE SMOOTH"
);
},
{
closed = 1;
nodes = (
"72 627 LINE",
"840 627 LINE",
"840 774 LINE",
"72 774 LINE"
);
},
{
closed = 1;
nodes = (
"72 419 LINE",
"840 419 LINE",
"840 566 LINE",
"72 566 LINE"
);
}
);
width = 1238;
}
);
unicode = 20A4;
},
{
glyphname = liraTurkish;
lastChange = "2020-04-11 19:54:09 +0000";
layers = (
{
layerId = "9D4C2422-5CE9-4C2E-AAC7-BF869A02F5C8";
paths = (
{
closed = 1;
nodes = (
"126 0 LINE",
"256 0 LINE",
"666 0 OFFCURVE",
"790 224 OFFCURVE",
"790 427 CURVE",
"726 427 LINE",
"726 226 OFFCURVE",
"621 64 OFFCURVE",
"189 64 CURVE",
"189 1320 LINE",
"126 1320 LINE"
);
},
{
closed = 1;
nodes = (
"629 864 LINE",
"629 925 LINE",
"-21 710 LINE",
"-21 650 LINE"
);
},
{
closed = 1;
nodes = (
"629 653 LINE",
"629 714 LINE",
"-21 499 LINE",
"-21 438 LINE"
);
}
);
width = 864;
},
{
layerId = "C45C3DCC-6617-4D42-8E57-0A4EECAD9C2E";
paths = (
{
closed = 1;
nodes = (
"78 0 LINE",
"470 0 LINE",
"832 0 OFFCURVE",
"1053 155 OFFCURVE",
"1053 594 CURVE",
"731 594 LINE",
"731 390 OFFCURVE",
"616 336 OFFCURVE",
"466 336 CURVE",
"466 1320 LINE",
"78 1320 LINE"
);
},
{
closed = 1;
nodes = (
"781 997 LINE",
"781 1232 LINE",
"-29 968 LINE",
"-29 733 LINE"
);
},
{
closed = 1;
nodes = (
"781 658 LINE",
"781 893 LINE",
"-29 629 LINE",
"-29 394 LINE"
);
}
);
width = 1024;
}
);
unicode = 20BA;
},
{
glyphname = manat;
lastChange = "2020-04-11 19:54:09 +0000";
layers = (
{
layerId = "9D4C2422-5CE9-4C2E-AAC7-BF869A02F5C8";
paths = (
{
closed = 1;
nodes = (
"181 0 LINE",
"181 840 LINE SMOOTH",
"181 1048 OFFCURVE",
"275 1179 OFFCURVE",
"461 1179 CURVE SMOOTH",
"646 1179 OFFCURVE",
"741 1048 OFFCURVE",
"741 840 CURVE SMOOTH",
"741 0 LINE",
"805 0 LINE",
"805 858 LINE SMOOTH",
"805 1077 OFFCURVE",
"682 1243 OFFCURVE",
"461 1243 CURVE SMOOTH",
"240 1243 OFFCURVE",
"117 1077 OFFCURVE",
"117 858 CURVE SMOOTH",
"117 0 LINE"
);
},
{
closed = 1;
nodes = (
"488 0 LINE",
"488 1376 LINE",
"427 1376 LINE",
"427 0 LINE"
);
}
);
width = 962;
},
{
layerId = "C45C3DCC-6617-4D42-8E57-0A4EECAD9C2E";
paths = (
{
closed = 1;
nodes = (
"443 0 LINE",
"443 739 LINE SMOOTH",
"443 842 OFFCURVE",
"501 907 OFFCURVE",
"626 907 CURVE SMOOTH",
"749 907 OFFCURVE",
"806 842 OFFCURVE",
"806 739 CURVE SMOOTH",
"806 0 LINE",
"1194 0 LINE",
"1194 778 LINE SMOOTH",
"1194 1058 OFFCURVE",
"1010 1227 OFFCURVE",
"626 1227 CURVE SMOOTH",
"240 1227 OFFCURVE",
"56 1058 OFFCURVE",
"56 778 CURVE SMOOTH",
"56 0 LINE"
);
},
{
closed = 1;
nodes = (
"744 0 LINE",
"744 1376 LINE",
"512 1376 LINE",
"512 0 LINE"
);
}
);
width = 1274;
}
);
unicode = 20BC;
},
{
glyphname = peso;
lastChange = "2020-04-11 19:54:09 +0000";
layers = (
{
anchors = (
{
name = bottom;
position = "{469, 0}";
},
{
name = top;
position = "{469, 1320}";
}
);
layerId = "9D4C2422-5CE9-4C2E-AAC7-BF869A02F5C8";
paths = (
{
closed = 1;
nodes = (
"150 0 LINE",
"213 0 LINE",
"213 390 LINE",
"434 390 LINE SMOOTH",
"675 390 OFFCURVE",
"866 538 OFFCURVE",
"866 862 CURVE SMOOTH",
"866 1187 OFFCURVE",
"675 1320 OFFCURVE",
"434 1320 CURVE SMOOTH",
"150 1320 LINE"
);
},
{
closed = 1;
nodes = (
"213 1256 LINE",
"418 1256 LINE SMOOTH",
"627 1256 OFFCURVE",
"802 1155 OFFCURVE",
"802 862 CURVE SMOOTH",
"802 570 OFFCURVE",
"627 454 OFFCURVE",
"418 454 CURVE SMOOTH",
"213 454 LINE"
);
},
{
closed = 1;
nodes = (
"939 730 LINE",
"939 794 LINE",
"26 794 LINE",
"26 730 LINE"
);
},
{
closed = 1;
nodes = (
"939 915 LINE",
"939 979 LINE",
"26 979 LINE",
"26 915 LINE"
);
}
);
width = 978;
},
{
anchors = (
{
name = bottom;
position = "{541, 0}";
},
{
name = top;
position = "{541, 1320}";
}
);
layerId = "C45C3DCC-6617-4D42-8E57-0A4EECAD9C2E";
paths = (
{
closed = 1;
nodes = (
"61 0 LINE",
"448 0 LINE",
"448 277 LINE",
"614 277 LINE SMOOTH",
"872 277 OFFCURVE",
"1090 490 OFFCURVE",
"1090 808 CURVE SMOOTH",
"1090 1126 OFFCURVE",
"872 1320 OFFCURVE",
"614 1320 CURVE SMOOTH",
"61 1320 LINE"
);
},
{
closed = 1;
nodes = (
"448 1019 LINE",
"506 1019 LINE SMOOTH",
"594 1019 OFFCURVE",
"675 950 OFFCURVE",
"675 798 CURVE SMOOTH",
"675 646 OFFCURVE",
"594 578 OFFCURVE",
"506 578 CURVE SMOOTH",
"448 578 LINE"
);
},
{
closed = 1;
nodes = (
"1171 627 LINE",
"1171 778 LINE",
"-14 778 LINE",
"-14 627 LINE"
);
},
{
closed = 1;
nodes = (
"1171 821 LINE",
"1171 971 LINE",
"-14 971 LINE",
"-14 821 LINE"
);
}
);
width = 1154;
}
);
unicode = 20B1;
},
{
glyphname = rupeeIndian;
lastChange = "2020-04-11 19:54:09 +0000";
layers = (
{
layerId = "9D4C2422-5CE9-4C2E-AAC7-BF869A02F5C8";
paths = (
{
closed = 1;
nodes = (
"104 1256 LINE",
"418 1256 LINE SMOOTH",
"618 1256 OFFCURVE",
"750 1162 OFFCURVE",
"750 954 CURVE SMOOTH",
"750 746 OFFCURVE",
"618 646 OFFCURVE",
"418 646 CURVE SMOOTH",
"104 646 LINE",
"104 586 LINE",
"437 586 LINE SMOOTH",
"672 586 OFFCURVE",
"814 736 OFFCURVE",
"814 954 CURVE SMOOTH",
"814 1194 OFFCURVE",
"638 1320 OFFCURVE",
"438 1320 CURVE SMOOTH",
"104 1320 LINE"
);
},
{
closed = 1;
nodes = (
"920 1259 LINE",
"920 1320 LINE",
"104 1320 LINE",
"104 1259 LINE"
);
},
{
closed = 1;
nodes = (
"922 917 LINE",
"922 978 LINE",
"104 978 LINE",
"104 917 LINE"
);
},
{
closed = 1;
nodes = (
"707 0 LINE",
"800 0 LINE",
"154 629 LINE",
"104 586 LINE"
);
}
);
width = 1046;
},
{
layerId = "C45C3DCC-6617-4D42-8E57-0A4EECAD9C2E";
paths = (
{
closed = 1;
nodes = (
"154 1067 LINE",
"403 1067 LINE SMOOTH",
"538 1067 OFFCURVE",
"621 995 OFFCURVE",
"621 843 CURVE SMOOTH",
"621 691 OFFCURVE",
"534 619 OFFCURVE",
"400 619 CURVE SMOOTH",
"152 619 LINE",
"152 405 LINE",
"326 405 LINE",
"693 405 OFFCURVE",
"965 512 OFFCURVE",
"965 856 CURVE SMOOTH",
"965 1112 OFFCURVE",
"797 1320 OFFCURVE",
"557 1320 CURVE SMOOTH",
"154 1320 LINE"
);
},
{
closed = 1;
nodes = (
"1107 1093 LINE",
"1107 1320 LINE",
"154 1320 LINE",
"154 1093 LINE"
);
},
{
closed = 1;
nodes = (
"1107 728 LINE",
"1107 957 LINE",
"154 957 LINE",
"154 728 LINE"
);
},
{
closed = 1;
nodes = (
"555 0 LINE",
"992 0 LINE",
"448 546 LINE",
"152 405 LINE"
);
}
);
width = 1234;
}
);
unicode = 20B9;
},
{
glyphname = sterling;
lastChange = "2020-04-11 19:54:09 +0000";
layers = (
{
layerId = "C45C3DCC-6617-4D42-8E57-0A4EECAD9C2E";
paths = (
{
closed = 1;
nodes = (
"298 550 OFFCURVE",
"344 443 OFFCURVE",
"344 389 CURVE SMOOTH",
"344 350 OFFCURVE",
"338 333 OFFCURVE",
"320 306 CURVE",
"168 306 OFFCURVE",
"46 184 OFFCURVE",
"46 0 CURVE",
"315 0 LINE",
"326 16 OFFCURVE",
"352 38 OFFCURVE",
"384 38 CURVE SMOOTH",
"536 38 OFFCURVE",
"624 -24 OFFCURVE",
"824 -24 CURVE SMOOTH",
"1026 -24 OFFCURVE",
"1138 118 OFFCURVE",
"1165 227 CURVE",
"856 338 LINE",
"854 333 OFFCURVE",
"830 264 OFFCURVE",
"771 264 CURVE SMOOTH",
"701 264 OFFCURVE",
"653 286 OFFCURVE",
"635 286 CURVE",
"642 296 OFFCURVE",
"662 352 OFFCURVE",
"662 402 CURVE SMOOTH",
"662 470 OFFCURVE",
"650 547 OFFCURVE",
"605 650 CURVE SMOOTH",
"582 701 OFFCURVE",
"536 822 OFFCURVE",
"536 909 CURVE SMOOTH",
"536 986 OFFCURVE",
"566 1042 OFFCURVE",
"638 1042 CURVE SMOOTH",
"725 1042 OFFCURVE",
"758 941 OFFCURVE",
"758 864 CURVE",
"1075 1021 LINE",
"1054 1160 OFFCURVE",
"917 1346 OFFCURVE",
"622 1346 CURVE SMOOTH",
"326 1346 OFFCURVE",
"158 1165 OFFCURVE",
"158 925 CURVE SMOOTH",
"158 803 OFFCURVE",
"200 714 OFFCURVE",
"238 650 CURVE SMOOTH"
);
},
{
closed = 1;
nodes = (
"72 450 LINE",
"840 450 LINE",
"840 662 LINE",
"72 662 LINE"
);
}
);
width = 1238;
},
{
layerId = "9D4C2422-5CE9-4C2E-AAC7-BF869A02F5C8";
paths = (
{
closed = 1;
nodes = (
"354 491 OFFCURVE",
"373 429 OFFCURVE",
"373 350 CURVE SMOOTH",
"373 283 OFFCURVE",
"354 226 OFFCURVE",
"349 211 CURVE",
"240 211 OFFCURVE",
"123 90 OFFCURVE",
"114 0 CURVE",
"181 0 LINE",
"184 43 OFFCURVE",
"256 155 OFFCURVE",
"368 155 CURVE SMOOTH",
"533 155 OFFCURVE",
"613 -24 OFFCURVE",
"811 -24 CURVE SMOOTH",
"952 -24 OFFCURVE",
"1038 88 OFFCURVE",
"1064 173 CURVE",
"1005 198 LINE",
"994 130 OFFCURVE",
"934 40 OFFCURVE",
"813 40 CURVE SMOOTH",
"662 40 OFFCURVE",
"550 190 OFFCURVE",
"410 205 CURVE",
"414 219 OFFCURVE",
"435 282 OFFCURVE",
"435 350 CURVE SMOOTH",
"435 422 OFFCURVE",
"421 472 OFFCURVE",
"381 579 CURVE SMOOTH",
"362 619 OFFCURVE",
"274 842 OFFCURVE",
"274 971 CURVE SMOOTH",
"274 1173 OFFCURVE",
"400 1282 OFFCURVE",
"603 1282 CURVE SMOOTH",
"790 1282 OFFCURVE",
"909 1160 OFFCURVE",
"946 1069 CURVE",
"1002 1102 LINE",
"957 1206 OFFCURVE",
"818 1346 OFFCURVE",
"603 1346 CURVE SMOOTH",
"323 1346 OFFCURVE",
"210 1171 OFFCURVE",
"210 973 CURVE SMOOTH",
"210 819 OFFCURVE",
"304 598 OFFCURVE",
"314 579 CURVE SMOOTH"
);
},
{
closed = 1;
nodes = (
"114 546 LINE",
"816 546 LINE",
"816 608 LINE",
"114 608 LINE"
);
}
);
width = 1190;
}
);
leftKerningGroup = sterling;
rightKerningGroup = sterling;
unicode = 00A3;
},
{
glyphname = yen;
lastChange = "2020-04-11 19:54:09 +0000";
layers = (
{
components = (
{
name = Y;
}
);
layerId = "C45C3DCC-6617-4D42-8E57-0A4EECAD9C2E";
paths = (
{
closed = 1;
nodes = (
"83 509 LINE",
"1115 509 LINE",
"1115 739 LINE",
"83 739 LINE"
);
},
{
closed = 1;
nodes = (
"83 165 LINE",
"1115 165 LINE",
"1115 395 LINE",
"83 395 LINE"
);
}
);
width = 1266;
},
{
components = (
{
name = Y;
}
);
layerId = "9D4C2422-5CE9-4C2E-AAC7-BF869A02F5C8";
paths = (
{
closed = 1;
nodes = (
"74 514 LINE",
"912 514 LINE",
"912 576 LINE",
"74 576 LINE"
);
},
{
closed = 1;
nodes = (
"74 307 LINE",
"912 307 LINE",
"912 370 LINE",
"74 370 LINE"
);
}
);
width = 1026;
}
);
leftKerningGroup = yen;
rightKerningGroup = yen;
unicode = 00A5;
},
{
glyphname = plus;
lastChange = "2020-04-11 19:54:09 +0000";
layers = (
{
layerId = "C45C3DCC-6617-4D42-8E57-0A4EECAD9C2E";
paths = (
{
closed = 1;
nodes = (
"925 506 LINE",
"925 821 LINE",
"674 821 LINE",
"674 1074 LINE",
"357 1074 LINE",
"357 821 LINE",
"104 821 LINE",
"104 506 LINE",
"357 506 LINE",
"357 253 LINE",
"674 253 LINE",
"674 506 LINE"
);
}
);
width = 1053;
},
{
layerId = "9D4C2422-5CE9-4C2E-AAC7-BF869A02F5C8";
paths = (
{
closed = 1;
nodes = (
"933 634 LINE",
"933 694 LINE",
"554 694 LINE",
"554 1074 LINE",
"493 1074 LINE",
"493 694 LINE",
"112 694 LINE",
"112 634 LINE",
"493 634 LINE",
"493 253 LINE",
"554 253 LINE",
"554 634 LINE"
);
}
);
width = 1085;
}
);
leftKerningGroup = plus;
rightKerningGroup = plus;
unicode = 002B;
},
{
glyphname = minus;
lastChange = "2020-04-11 19:54:09 +0000";
layers = (
{
layerId = "C45C3DCC-6617-4D42-8E57-0A4EECAD9C2E";
paths = (
{
closed = 1;
nodes = (
"944 506 LINE",
"944 822 LINE",
"86 822 LINE",
"86 506 LINE"
);
}
);
width = 1053;
},
{
layerId = "9D4C2422-5CE9-4C2E-AAC7-BF869A02F5C8";
paths = (
{
closed = 1;
nodes = (
"973 629 LINE",
"973 690 LINE",
"-8 690 LINE",
"-8 629 LINE"
);
}
);
width = 1005;
}
);
leftKerningGroup = minus;
rightKerningGroup = minus;
unicode = 2212;
},
{
glyphname = multiply;
lastChange = "2020-04-11 19:54:09 +0000";
layers = (
{
layerId = "C45C3DCC-6617-4D42-8E57-0A4EECAD9C2E";
paths = (
{
closed = 1;
nodes = (
"955 880 LINE",
"731 1102 LINE",
"514 888 LINE",
"298 1102 LINE",
"75 882 LINE",
"290 664 LINE",
"75 450 LINE",
"298 224 LINE",
"515 442 LINE",
"734 224 LINE",
"955 446 LINE",
"738 662 LINE"
);
}
);
width = 1053;
},
{
layerId = "9D4C2422-5CE9-4C2E-AAC7-BF869A02F5C8";
paths = (
{
closed = 1;
nodes = (
"818 966 LINE",
"774 1010 LINE",
"474 707 LINE",
"171 1010 LINE",
"128 966 LINE",
"430 664 LINE",
"126 362 LINE",
"170 318 LINE",
"474 621 LINE",
"776 318 LINE",
"819 362 LINE",
"515 664 LINE"
);
}
);
width = 982;
}
);
leftKerningGroup = multiply;
rightKerningGroup = multiply;
unicode = 00D7;
},
{
glyphname = divide;
lastChange = "2020-04-11 19:54:09 +0000";
layers = (
{
layerId = "C45C3DCC-6617-4D42-8E57-0A4EECAD9C2E";
paths = (
{
closed = 1;
nodes = (
"430 1194 OFFCURVE",
"363 1126 OFFCURVE",
"363 1042 CURVE SMOOTH",
"363 960 OFFCURVE",
"430 893 OFFCURVE",
"512 893 CURVE SMOOTH",
"597 893 OFFCURVE",
"664 960 OFFCURVE",
"664 1042 CURVE SMOOTH",
"664 1126 OFFCURVE",
"597 1194 OFFCURVE",
"512 1194 CURVE SMOOTH"
);
},
{
closed = 1;
nodes = (
"944 506 LINE",
"944 822 LINE",
"86 822 LINE",
"86 506 LINE"
);
},
{
closed = 1;
nodes = (
"430 434 OFFCURVE",
"363 366 OFFCURVE",
"363 282 CURVE SMOOTH",
"363 200 OFFCURVE",
"430 133 OFFCURVE",
"512 133 CURVE SMOOTH",
"597 133 OFFCURVE",
"664 200 OFFCURVE",
"664 282 CURVE SMOOTH",
"664 366 OFFCURVE",
"597 434 OFFCURVE",
"512 434 CURVE SMOOTH"
);
}
);
width = 1053;
},
{
layerId = "9D4C2422-5CE9-4C2E-AAC7-BF869A02F5C8";
paths = (
{
closed = 1;
nodes = (
"442 1037 OFFCURVE",
"410 1005 OFFCURVE",
"410 963 CURVE SMOOTH",
"410 925 OFFCURVE",
"442 893 OFFCURVE",
"480 893 CURVE SMOOTH",
"522 893 OFFCURVE",
"554 925 OFFCURVE",
"554 963 CURVE SMOOTH",
"554 1003 OFFCURVE",
"522 1037 OFFCURVE",
"480 1037 CURVE SMOOTH"
);
},
{
closed = 1;
nodes = (
"843 629 LINE",
"843 690 LINE",
"122 690 LINE",
"122 629 LINE"
);
},
{
closed = 1;
nodes = (
"442 434 OFFCURVE",
"410 402 OFFCURVE",
"410 360 CURVE SMOOTH",
"410 322 OFFCURVE",
"443 291 OFFCURVE",
"480 291 CURVE SMOOTH",
"520 291 OFFCURVE",
"554 322 OFFCURVE",
"554 360 CURVE SMOOTH",
"554 402 OFFCURVE",
"522 434 OFFCURVE",
"480 434 CURVE SMOOTH"
);
}
);
width = 1005;
}
);
leftKerningGroup = divide;
rightKerningGroup = divide;
unicode = 00F7;
},
{
glyphname = equal;
lastChange = "2020-04-11 19:54:09 +0000";
layers = (
{
layerId = "C45C3DCC-6617-4D42-8E57-0A4EECAD9C2E";
paths = (
{
closed = 1;
nodes = (
"944 710 LINE",
"944 1027 LINE",
"86 1027 LINE",
"86 710 LINE"
);
},
{
closed = 1;
nodes = (
"944 298 LINE",
"944 614 LINE",
"86 614 LINE",
"86 298 LINE"
);
}
);
width = 1053;
},
{
layerId = "9D4C2422-5CE9-4C2E-AAC7-BF869A02F5C8";
paths = (
{
closed = 1;
nodes = (
"843 789 LINE",
"843 850 LINE",
"122 850 LINE",
"122 789 LINE"
);
},
{
closed = 1;
nodes = (
"843 482 LINE",
"843 542 LINE",
"122 542 LINE",
"122 482 LINE"
);
}
);
width = 1005;
}
);
leftKerningGroup = equal;
rightKerningGroup = equal;
unicode = 003D;
},
{
glyphname = notequal;
lastChange = "2020-04-11 19:54:09 +0000";
layers = (
{
components = (
{
name = equal;
transform = "{1, 0, 0, 1, 16, 0}";
}
);
layerId = "C45C3DCC-6617-4D42-8E57-0A4EECAD9C2E";
paths = (
{
closed = 1;
nodes = (
"918 1230 LINE",
"686 1230 LINE",
"35 91 LINE",
"267 91 LINE"
);
}
);
width = 1053;
},
{
components = (
{
name = equal;
transform = "{1, 0, 0, 1, 16, 0}";
}
);
layerId = "9D4C2422-5CE9-4C2E-AAC7-BF869A02F5C8";
paths = (
{
closed = 1;
nodes = (
"818 1149 LINE",
"749 1149 LINE",
"152 173 LINE",
"221 173 LINE"
);
}
);
width = 1085;
}
);
leftKerningGroup = notequal;
rightKerningGroup = notequal;
unicode = 2260;
},
{
glyphname = greater;
lastChange = "2020-04-11 19:54:09 +0000";
layers = (
{
layerId = "C45C3DCC-6617-4D42-8E57-0A4EECAD9C2E";
paths = (
{
closed = 1;
nodes = (
"986 525 LINE",
"986 806 LINE",
"82 1171 LINE",
"82 834 LINE",
"576 664 LINE",
"82 498 LINE",
"82 162 LINE"
);
}
);
width = 1099;
},
{
layerId = "9D4C2422-5CE9-4C2E-AAC7-BF869A02F5C8";
paths = (
{
closed = 1;
nodes = (
"907 627 LINE",
"907 704 LINE",
"112 1096 LINE",
"112 1027 LINE",
"858 666 LINE",
"112 304 LINE",
"112 237 LINE"
);
}
);
width = 1067;
}
);
leftKerningGroup = greater;
rightKerningGroup = greater;
unicode = 003E;
},
{
glyphname = asciitilde;
lastChange = "2020-04-11 19:54:09 +0000";
layers = (
{
layerId = "C45C3DCC-6617-4D42-8E57-0A4EECAD9C2E";
paths = (
{
closed = 1;
nodes = (
"845 843 LINE",
"816 803 OFFCURVE",
"757 752 OFFCURVE",
"701 752 CURVE SMOOTH",
"629 752 OFFCURVE",
"552 859 OFFCURVE",
"392 859 CURVE SMOOTH",
"262 859 OFFCURVE",
"133 726 OFFCURVE",
"72 626 CURVE",
"280 488 LINE",
"309 526 OFFCURVE",
"368 578 OFFCURVE",
"424 578 CURVE SMOOTH",
"496 578 OFFCURVE",
"579 470 OFFCURVE",
"734 470 CURVE SMOOTH",
"864 470 OFFCURVE",
"994 603 OFFCURVE",
"1054 704 CURVE"
);
}
);
width = 1150;
},
{
layerId = "9D4C2422-5CE9-4C2E-AAC7-BF869A02F5C8";
paths = (
{
closed = 1;
nodes = (
"963 763 LINE",
"934 694 OFFCURVE",
"862 605 OFFCURVE",
"765 605 CURVE SMOOTH",
"624 605 OFFCURVE",
"557 789 OFFCURVE",
"381 789 CURVE SMOOTH",
"251 789 OFFCURVE",
"152 677 OFFCURVE",
"112 594 CURVE",
"186 565 LINE",
"213 634 OFFCURVE",
"285 725 OFFCURVE",
"381 725 CURVE SMOOTH",
"523 725 OFFCURVE",
"590 541 OFFCURVE",
"762 541 CURVE SMOOTH",
"891 541 OFFCURVE",
"990 653 OFFCURVE",
"1030 736 CURVE"
);
}
);
width = 1182;
}
);
leftKerningGroup = asciitilde;
rightKerningGroup = asciitilde;
unicode = 007E;
},
{
glyphname = logicalnot;
lastChange = "2020-04-11 19:54:09 +0000";
layers = (
{
layerId = "9D4C2422-5CE9-4C2E-AAC7-BF869A02F5C8";
paths = (
{
closed = 1;
nodes = (
"112 486 LINE",
"112 426 LINE",
"566 426 LINE",
"566 198 LINE",
"627 198 LINE",
"627 486 LINE"
);
}
);
width = 779;
},
{
layerId = "C45C3DCC-6617-4D42-8E57-0A4EECAD9C2E";
paths = (
{
closed = 1;
nodes = (
"104 621 LINE",
"104 288 LINE",
"637 288 LINE",
"637 88 LINE",
"970 88 LINE",
"970 621 LINE"
);
}
);
width = 1120;
}
);
unicode = 00AC;
},
{
glyphname = asciicircum;
lastChange = "2020-04-11 19:54:09 +0000";
layers = (
{
layerId = "C45C3DCC-6617-4D42-8E57-0A4EECAD9C2E";
paths = (
{
closed = 1;
nodes = (
"494 1344 LINE",
"317 1344 LINE",
"-21 968 LINE",
"302 968 LINE",
"405 1085 LINE",
"510 968 LINE",
"832 968 LINE"
);
}
);
width = 834;
},
{
layerId = "9D4C2422-5CE9-4C2E-AAC7-BF869A02F5C8";
paths = (
{
closed = 1;
nodes = (
"448 1344 LINE",
"381 1344 LINE",
"69 968 LINE",
"147 968 LINE",
"414 1302 LINE",
"682 968 LINE",
"758 968 LINE"
);
}
);
width = 866;
}
);
leftKerningGroup = asciicircum;
rightKerningGroup = asciicircum;
unicode = 005E;
},
{
glyphname = micro;
lastChange = "2020-04-11 19:54:09 +0000";
layers = (
{
components = (
{
name = u;
}
);
layerId = "9D4C2422-5CE9-4C2E-AAC7-BF869A02F5C8";
paths = (
{
closed = 1;
nodes = (
"117 -392 LINE",
"181 -392 LINE",
"181 821 LINE",
"117 821 LINE"
);
}
);
width = 962;
},
{
components = (
{
name = u;
}
);
layerId = "C45C3DCC-6617-4D42-8E57-0A4EECAD9C2E";
paths = (
{
closed = 1;
nodes = (
"56 -392 LINE",
"443 -392 LINE",
"443 821 LINE",
"56 821 LINE"
);
}
);
width = 1146;
}
);
unicode = 00B5;
},
{
glyphname = percent;
lastChange = "2020-04-11 19:54:09 +0000";
layers = (
{
layerId = "C45C3DCC-6617-4D42-8E57-0A4EECAD9C2E";
paths = (
{
closed = 1;
nodes = (
"294 0 LINE",
"542 0 LINE",
"1390 1320 LINE",
"1142 1320 LINE"
);
},
{
closed = 1;
nodes = (
"32 843 OFFCURVE",
"187 680 OFFCURVE",
"424 680 CURVE SMOOTH",
"661 680 OFFCURVE",
"816 843 OFFCURVE",
"816 1029 CURVE SMOOTH",
"816 1218 OFFCURVE",
"661 1378 OFFCURVE",
"424 1378 CURVE SMOOTH",
"187 1378 OFFCURVE",
"32 1218 OFFCURVE",
"32 1029 CURVE SMOOTH"
);
},
{
closed = 1;
nodes = (
"294 1107 OFFCURVE",
"347 1168 OFFCURVE",
"424 1168 CURVE SMOOTH",
"501 1168 OFFCURVE",
"550 1107 OFFCURVE",
"550 1029 CURVE SMOOTH",
"550 950 OFFCURVE",
"501 893 OFFCURVE",
"424 893 CURVE SMOOTH",
"347 893 OFFCURVE",
"294 950 OFFCURVE",
"294 1029 CURVE SMOOTH"
);
},
{
closed = 1;
nodes = (
"864 106 OFFCURVE",
"1019 -58 OFFCURVE",
"1256 -58 CURVE SMOOTH",
"1493 -58 OFFCURVE",
"1648 106 OFFCURVE",
"1648 291 CURVE SMOOTH",
"1648 480 OFFCURVE",
"1493 640 OFFCURVE",
"1256 640 CURVE SMOOTH",
"1019 640 OFFCURVE",
"864 480 OFFCURVE",
"864 291 CURVE SMOOTH"
);
},
{
closed = 1;
nodes = (
"1126 370 OFFCURVE",
"1179 430 OFFCURVE",
"1256 430 CURVE SMOOTH",
"1333 430 OFFCURVE",
"1382 370 OFFCURVE",
"1382 291 CURVE SMOOTH",
"1382 213 OFFCURVE",
"1333 155 OFFCURVE",
"1256 155 CURVE SMOOTH",
"1179 155 OFFCURVE",
"1126 213 OFFCURVE",
"1126 291 CURVE SMOOTH"
);
}
);
width = 1680;
},
{
layerId = "9D4C2422-5CE9-4C2E-AAC7-BF869A02F5C8";
paths = (
{
closed = 1;
nodes = (
"253 0 LINE",
"318 0 LINE",
"1086 1320 LINE",
"1021 1320 LINE"
);
},
{
closed = 1;
nodes = (
"104 901 OFFCURVE",
"200 806 OFFCURVE",
"338 806 CURVE SMOOTH",
"467 806 OFFCURVE",
"568 901 OFFCURVE",
"568 1029 CURVE SMOOTH",
"568 1160 OFFCURVE",
"459 1253 OFFCURVE",
"338 1253 CURVE SMOOTH",
"210 1253 OFFCURVE",
"104 1160 OFFCURVE",
"104 1029 CURVE SMOOTH"
);
},
{
closed = 1;
nodes = (
"163 1133 OFFCURVE",
"237 1198 OFFCURVE",
"336 1198 CURVE SMOOTH",
"430 1198 OFFCURVE",
"509 1133 OFFCURVE",
"509 1029 CURVE SMOOTH",
"509 920 OFFCURVE",
"432 861 OFFCURVE",
"336 861 CURVE SMOOTH",
"232 861 OFFCURVE",
"163 922 OFFCURVE",
"163 1029 CURVE SMOOTH"
);
},
{
closed = 1;
nodes = (
"773 162 OFFCURVE",
"869 67 OFFCURVE",
"1006 67 CURVE SMOOTH",
"1136 67 OFFCURVE",
"1237 162 OFFCURVE",
"1237 290 CURVE SMOOTH",
"1237 421 OFFCURVE",
"1128 514 OFFCURVE",
"1006 514 CURVE SMOOTH",
"878 514 OFFCURVE",
"773 421 OFFCURVE",
"773 290 CURVE SMOOTH"
);
},
{
closed = 1;
nodes = (
"832 394 OFFCURVE",
"906 459 OFFCURVE",
"1005 459 CURVE SMOOTH",
"1099 459 OFFCURVE",
"1178 394 OFFCURVE",
"1178 290 CURVE SMOOTH",
"1178 181 OFFCURVE",
"1101 122 OFFCURVE",
"1005 122 CURVE SMOOTH",
"901 122 OFFCURVE",
"832 182 OFFCURVE",
"832 290 CURVE SMOOTH"
);
}
);
width = 1379;
}
);
leftKerningGroup = percent;
rightKerningGroup = percent;
unicode = 0025;
},
{
glyphname = perthousand;
lastChange = "2020-04-11 19:54:09 +0000";
layers = (
{
layerId = "C45C3DCC-6617-4D42-8E57-0A4EECAD9C2E";
paths = (
{
closed = 1;
nodes = (
"-6 259 LINE",
"109 99 LINE",
"1736 1098 LINE",
"1621 1258 LINE"
);
},
{
closed = 1;
nodes = (
"32 843 OFFCURVE",
"187 680 OFFCURVE",
"424 680 CURVE SMOOTH",
"661 680 OFFCURVE",
"816 843 OFFCURVE",
"816 1029 CURVE SMOOTH",
"816 1218 OFFCURVE",
"661 1378 OFFCURVE",
"424 1378 CURVE SMOOTH",
"187 1378 OFFCURVE",
"32 1218 OFFCURVE",
"32 1029 CURVE SMOOTH"
);
},
{
closed = 1;
nodes = (
"294 1107 OFFCURVE",
"347 1168 OFFCURVE",
"424 1168 CURVE SMOOTH",
"501 1168 OFFCURVE",
"550 1107 OFFCURVE",
"550 1029 CURVE SMOOTH",
"550 950 OFFCURVE",
"501 893 OFFCURVE",
"424 893 CURVE SMOOTH",
"347 893 OFFCURVE",
"294 950 OFFCURVE",
"294 1029 CURVE SMOOTH"
);
},
{
closed = 1;
nodes = (
"816 106 OFFCURVE",
"971 -58 OFFCURVE",
"1208 -58 CURVE SMOOTH",
"1445 -58 OFFCURVE",
"1600 106 OFFCURVE",
"1600 291 CURVE SMOOTH",
"1600 480 OFFCURVE",
"1445 640 OFFCURVE",
"1208 640 CURVE SMOOTH",
"971 640 OFFCURVE",
"816 480 OFFCURVE",
"816 291 CURVE SMOOTH"
);
},
{
closed = 1;
nodes = (
"1078 370 OFFCURVE",
"1131 430 OFFCURVE",
"1208 430 CURVE SMOOTH",
"1285 430 OFFCURVE",
"1334 370 OFFCURVE",
"1334 291 CURVE SMOOTH",
"1334 213 OFFCURVE",
"1285 155 OFFCURVE",
"1208 155 CURVE SMOOTH",
"1131 155 OFFCURVE",
"1078 213 OFFCURVE",
"1078 291 CURVE SMOOTH"
);
},
{
closed = 1;
nodes = (
"1648 106 OFFCURVE",
"1803 -58 OFFCURVE",
"2040 -58 CURVE SMOOTH",
"2277 -58 OFFCURVE",
"2432 106 OFFCURVE",
"2432 291 CURVE SMOOTH",
"2432 480 OFFCURVE",
"2277 640 OFFCURVE",
"2040 640 CURVE SMOOTH",
"1803 640 OFFCURVE",
"1648 480 OFFCURVE",
"1648 291 CURVE SMOOTH"
);
},
{
closed = 1;
nodes = (
"1910 370 OFFCURVE",
"1963 430 OFFCURVE",
"2040 430 CURVE SMOOTH",
"2117 430 OFFCURVE",
"2166 370 OFFCURVE",
"2166 291 CURVE SMOOTH",
"2166 213 OFFCURVE",
"2117 155 OFFCURVE",
"2040 155 CURVE SMOOTH",
"1963 155 OFFCURVE",
"1910 213 OFFCURVE",
"1910 291 CURVE SMOOTH"
);
}
);
width = 2464;
},
{
layerId = "9D4C2422-5CE9-4C2E-AAC7-BF869A02F5C8";
paths = (
{
closed = 1;
nodes = (
"16 296 LINE",
"46 256 LINE",
"1490 1208 LINE",
"1459 1248 LINE"
);
},
{
closed = 1;
nodes = (
"216 901 OFFCURVE",
"312 806 OFFCURVE",
"450 806 CURVE SMOOTH",
"579 806 OFFCURVE",
"680 901 OFFCURVE",
"680 1029 CURVE SMOOTH",
"680 1160 OFFCURVE",
"571 1253 OFFCURVE",
"450 1253 CURVE SMOOTH",
"322 1253 OFFCURVE",
"216 1160 OFFCURVE",
"216 1029 CURVE SMOOTH"
);
},
{
closed = 1;
nodes = (
"275 1133 OFFCURVE",
"349 1198 OFFCURVE",
"448 1198 CURVE SMOOTH",
"542 1198 OFFCURVE",
"621 1133 OFFCURVE",
"621 1029 CURVE SMOOTH",
"621 920 OFFCURVE",
"544 861 OFFCURVE",
"448 861 CURVE SMOOTH",
"344 861 OFFCURVE",
"275 922 OFFCURVE",
"275 1029 CURVE SMOOTH"
);
},
{
closed = 1;
nodes = (
"454 162 OFFCURVE",
"550 67 OFFCURVE",
"688 67 CURVE SMOOTH",
"818 67 OFFCURVE",
"918 162 OFFCURVE",
"918 290 CURVE SMOOTH",
"918 421 OFFCURVE",
"810 514 OFFCURVE",
"688 514 CURVE SMOOTH",
"560 514 OFFCURVE",
"454 421 OFFCURVE",
"454 290 CURVE SMOOTH"
);
},
{
closed = 1;
nodes = (
"514 394 OFFCURVE",
"587 459 OFFCURVE",
"686 459 CURVE SMOOTH",
"781 459 OFFCURVE",
"859 394 OFFCURVE",
"859 290 CURVE SMOOTH",
"859 181 OFFCURVE",
"782 122 OFFCURVE",
"686 122 CURVE SMOOTH",
"582 122 OFFCURVE",
"514 182 OFFCURVE",
"514 290 CURVE SMOOTH"
);
},
{
closed = 1;
nodes = (
"1040 162 OFFCURVE",
"1136 67 OFFCURVE",
"1274 67 CURVE SMOOTH",
"1403 67 OFFCURVE",
"1504 162 OFFCURVE",
"1504 290 CURVE SMOOTH",
"1504 421 OFFCURVE",
"1395 514 OFFCURVE",
"1274 514 CURVE SMOOTH",
"1146 514 OFFCURVE",
"1040 421 OFFCURVE",
"1040 290 CURVE SMOOTH"
);
},
{
closed = 1;
nodes = (
"1099 394 OFFCURVE",
"1173 459 OFFCURVE",
"1272 459 CURVE SMOOTH",
"1366 459 OFFCURVE",
"1445 394 OFFCURVE",
"1445 290 CURVE SMOOTH",
"1445 181 OFFCURVE",
"1368 122 OFFCURVE",
"1272 122 CURVE SMOOTH",
"1168 122 OFFCURVE",
"1099 182 OFFCURVE",
"1099 290 CURVE SMOOTH"
);
}
);
width = 1586;
}
);
leftKerningGroup = percent;
rightKerningGroup = percent;
unicode = 2030;
},
{
glyphname = at;
lastChange = "2020-04-11 19:54:09 +0000";
layers = (
{
layerId = "C45C3DCC-6617-4D42-8E57-0A4EECAD9C2E";
paths = (
{
closed = 1;
nodes = (
"1003 -24 OFFCURVE",
"1162 58 OFFCURVE",
"1210 120 CURVE",
"971 326 LINE",
"946 298 OFFCURVE",
"867 261 OFFCURVE",
"749 261 CURVE SMOOTH",
"506 261 OFFCURVE",
"336 437 OFFCURVE",
"336 661 CURVE SMOOTH",
"336 886 OFFCURVE",
"517 1083 OFFCURVE",
"765 1083 CURVE SMOOTH",
"1019 1083 OFFCURVE",
"1202 933 OFFCURVE",
"1202 723 CURVE SMOOTH",
"1202 642 OFFCURVE",
"1197 605 OFFCURVE",
"1144 605 CURVE SMOOTH",
"1091 605 OFFCURVE",
"1083 645 OFFCURVE",
"1083 685 CURVE",
"1083 952 LINE",
"850 952 LINE",
"850 907 LINE",
"784 963 OFFCURVE",
"722 970 OFFCURVE",
"669 970 CURVE SMOOTH",
"507 970 OFFCURVE",
"381 842 OFFCURVE",
"381 661 CURVE SMOOTH",
"381 477 OFFCURVE",
"525 323 OFFCURVE",
"701 323 CURVE SMOOTH",
"870 323 OFFCURVE",
"922 387 OFFCURVE",
"958 440 CURVE",
"995 400 OFFCURVE",
"1066 360 OFFCURVE",
"1141 360 CURVE SMOOTH",
"1304 360 OFFCURVE",
"1494 451 OFFCURVE",
"1494 707 CURVE SMOOTH",
"1494 1085 OFFCURVE",
"1139 1344 OFFCURVE",
"765 1344 CURVE SMOOTH",
"374 1344 OFFCURVE",
"45 1067 OFFCURVE",
"45 661 CURVE SMOOTH",
"45 254 OFFCURVE",
"358 -24 OFFCURVE",
"749 -24 CURVE SMOOTH"
);
},
{
closed = 1;
nodes = (
"726 573 OFFCURVE",
"691 608 OFFCURVE",
"691 653 CURVE SMOOTH",
"691 696 OFFCURVE",
"726 731 OFFCURVE",
"771 731 CURVE SMOOTH",
"814 731 OFFCURVE",
"850 696 OFFCURVE",
"850 653 CURVE SMOOTH",
"850 608 OFFCURVE",
"814 573 OFFCURVE",
"771 573 CURVE SMOOTH"
);
}
);
width = 1514;
},
{
layerId = "9D4C2422-5CE9-4C2E-AAC7-BF869A02F5C8";
paths = (
{
closed = 1;
nodes = (
"1003 -24 OFFCURVE",
"1187 98 OFFCURVE",
"1258 189 CURVE",
"1203 232 LINE",
"1142 149 OFFCURVE",
"979 37 OFFCURVE",
"757 37 CURVE SMOOTH",
"424 37 OFFCURVE",
"117 301 OFFCURVE",
"117 661 CURVE SMOOTH",
"117 1024 OFFCURVE",
"442 1283 OFFCURVE",
"781 1283 CURVE SMOOTH",
"1128 1283 OFFCURVE",
"1390 1029 OFFCURVE",
"1390 707 CURVE SMOOTH",
"1390 490 OFFCURVE",
"1248 400 OFFCURVE",
"1163 400 CURVE SMOOTH",
"1072 400 OFFCURVE",
"1058 488 OFFCURVE",
"1058 518 CURVE",
"1058 952 LINE",
"994 952 LINE",
"994 837 LINE",
"987 862 OFFCURVE",
"890 976 OFFCURVE",
"726 976 CURVE SMOOTH",
"512 976 OFFCURVE",
"386 829 OFFCURVE",
"386 650 CURVE SMOOTH",
"386 470 OFFCURVE",
"512 320 OFFCURVE",
"726 320 CURVE SMOOTH",
"880 320 OFFCURVE",
"994 416 OFFCURVE",
"1003 496 CURVE",
"1003 411 OFFCURVE",
"1043 347 OFFCURVE",
"1165 347 CURVE SMOOTH",
"1301 347 OFFCURVE",
"1454 478 OFFCURVE",
"1454 707 CURVE SMOOTH",
"1454 1085 OFFCURVE",
"1155 1344 OFFCURVE",
"781 1344 CURVE SMOOTH",
"390 1344 OFFCURVE",
"53 1067 OFFCURVE",
"53 661 CURVE SMOOTH",
"53 254 OFFCURVE",
"366 -24 OFFCURVE",
"757 -24 CURVE SMOOTH"
);
},
{
closed = 1;
nodes = (
"557 379 OFFCURVE",
"450 499 OFFCURVE",
"450 650 CURVE SMOOTH",
"450 803 OFFCURVE",
"566 917 OFFCURVE",
"726 917 CURVE SMOOTH",
"875 917 OFFCURVE",
"995 811 OFFCURVE",
"995 658 CURVE SMOOTH",
"995 507 OFFCURVE",
"898 379 OFFCURVE",
"726 379 CURVE SMOOTH"
);
}
);
width = 1546;
}
);
leftKerningGroup = at;
rightKerningGroup = at;
unicode = 0040;
},
{
glyphname = ampersand;
lastChange = "2020-04-11 19:54:09 +0000";
layers = (
{
layerId = "C45C3DCC-6617-4D42-8E57-0A4EECAD9C2E";
paths = (
{
closed = 1;
nodes = (
"16 104 OFFCURVE",
"250 -24 OFFCURVE",
"485 -24 CURVE SMOOTH",
"686 -24 OFFCURVE",
"805 37 OFFCURVE",
"907 107 CURVE",
"1010 0 LINE",
"1493 0 LINE",
"1202 304 LINE",
"1277 360 OFFCURVE",
"1355 446 OFFCURVE",
"1394 496 CURVE",
"1139 731 LINE",
"1058 629 OFFCURVE",
"984 563 OFFCURVE",
"950 542 CURVE",
"826 667 LINE",
"934 725 OFFCURVE",
"1077 851 OFFCURVE",
"1077 989 CURVE SMOOTH",
"1077 1190 OFFCURVE",
"944 1344 OFFCURVE",
"651 1344 CURVE SMOOTH",
"341 1344 OFFCURVE",
"192 1174 OFFCURVE",
"192 995 CURVE SMOOTH",
"192 853 OFFCURVE",
"269 763 OFFCURVE",
"338 733 CURVE",
"258 712 OFFCURVE",
"16 608 OFFCURVE",
"16 373 CURVE SMOOTH"
);
},
{
closed = 1;
nodes = (
"658 366 LINE",
"637 354 OFFCURVE",
"597 338 OFFCURVE",
"562 338 CURVE SMOOTH",
"499 338 OFFCURVE",
"461 357 OFFCURVE",
"461 411 CURVE SMOOTH",
"461 450 OFFCURVE",
"496 488 OFFCURVE",
"523 506 CURVE"
);
},
{
closed = 1;
nodes = (
"702 1056 OFFCURVE",
"726 1026 OFFCURVE",
"726 990 CURVE SMOOTH",
"726 939 OFFCURVE",
"646 882 OFFCURVE",
"632 874 CURVE",
"624 882 OFFCURVE",
"571 939 OFFCURVE",
"571 990 CURVE SMOOTH",
"571 1026 OFFCURVE",
"597 1056 OFFCURVE",
"650 1056 CURVE SMOOTH"
);
}
);
width = 1432;
},
{
layerId = "9D4C2422-5CE9-4C2E-AAC7-BF869A02F5C8";
paths = (
{
closed = 1;
nodes = (
"83 118 OFFCURVE",
"224 -24 OFFCURVE",
"448 -24 CURVE SMOOTH",
"674 -24 OFFCURVE",
"848 107 OFFCURVE",
"955 221 CURVE",
"1158 0 LINE",
"1245 0 LINE",
"995 267 LINE",
"1035 310 OFFCURVE",
"1110 426 OFFCURVE",
"1128 472 CURVE",
"1082 504 LINE",
"1042 419 OFFCURVE",
"987 341 OFFCURVE",
"957 304 CURVE",
"595 704 LINE",
"645 722 OFFCURVE",
"918 819 OFFCURVE",
"918 1074 CURVE SMOOTH",
"918 1229 OFFCURVE",
"798 1344 OFFCURVE",
"619 1344 CURVE SMOOTH",
"450 1344 OFFCURVE",
"309 1230 OFFCURVE",
"309 1074 CURVE SMOOTH",
"309 926 OFFCURVE",
"454 765 OFFCURVE",
"491 728 CURVE",
"411 702 OFFCURVE",
"83 594 OFFCURVE",
"83 309 CURVE SMOOTH"
);
},
{
closed = 1;
nodes = (
"920 261 LINE",
"834 163 OFFCURVE",
"646 34 OFFCURVE",
"446 34 CURVE SMOOTH",
"288 34 OFFCURVE",
"142 128 OFFCURVE",
"142 309 CURVE SMOOTH",
"142 563 OFFCURVE",
"461 664 OFFCURVE",
"531 682 CURVE"
);
},
{
closed = 1;
nodes = (
"757 1282 OFFCURVE",
"859 1192 OFFCURVE",
"859 1074 CURVE SMOOTH",
"859 856 OFFCURVE",
"635 768 OFFCURVE",
"557 747 CURVE",
"546 758 OFFCURVE",
"370 936 OFFCURVE",
"370 1074 CURVE SMOOTH",
"370 1174 OFFCURVE",
"459 1282 OFFCURVE",
"616 1282 CURVE SMOOTH"
);
}
);
width = 1294;
}
);
leftKerningGroup = ampersand;
rightKerningGroup = ampersand;
unicode = 0026;
},
{
glyphname = paragraph;
lastChange = "2020-04-11 19:54:09 +0000";
layers = (
{
layerId = "C45C3DCC-6617-4D42-8E57-0A4EECAD9C2E";
paths = (
{
closed = 1;
nodes = (
"1104 1320 LINE",
"419 1320 LINE SMOOTH",
"168 1320 OFFCURVE",
"-14 1139 OFFCURVE",
"-14 885 CURVE SMOOTH",
"-14 632 OFFCURVE",
"168 432 OFFCURVE",
"419 432 CURVE SMOOTH",
"608 432 LINE",
"608 0 LINE",
"813 0 LINE",
"813 1118 LINE",
"901 1118 LINE",
"901 0 LINE",
"1104 0 LINE"
);
}
);
width = 1173;
},
{
layerId = "9D4C2422-5CE9-4C2E-AAC7-BF869A02F5C8";
paths = (
{
closed = 1;
nodes = (
"757 1320 LINE",
"466 1320 LINE SMOOTH",
"189 1320 OFFCURVE",
"86 1139 OFFCURVE",
"86 994 CURVE SMOOTH",
"86 850 OFFCURVE",
"189 650 OFFCURVE",
"466 650 CURVE SMOOTH",
"520 650 LINE",
"520 0 LINE",
"574 0 LINE",
"574 1254 LINE",
"702 1254 LINE",
"702 0 LINE",
"757 0 LINE"
);
}
);
width = 941;
}
);
leftKerningGroup = paragraph;
rightKerningGroup = paragraph;
unicode = 00B6;
},
{
glyphname = section;
lastChange = "2020-04-11 19:54:09 +0000";
layers = (
{
layerId = "C45C3DCC-6617-4D42-8E57-0A4EECAD9C2E";
paths = (
{
closed = 1;
nodes = (
"752 -440 OFFCURVE",
"938 -301 OFFCURVE",
"938 -90 CURVE SMOOTH",
"938 40 OFFCURVE",
"888 134 OFFCURVE",
"784 195 CURVE",
"933 261 OFFCURVE",
"1024 360 OFFCURVE",
"1024 507 CURVE SMOOTH",
"1024 690 OFFCURVE",
"890 810 OFFCURVE",
"688 880 CURVE SMOOTH",
"496 947 OFFCURVE",
"491 978 OFFCURVE",
"491 1000 CURVE SMOOTH",
"491 1019 OFFCURVE",
"507 1035 OFFCURVE",
"542 1035 CURVE SMOOTH",
"582 1035 OFFCURVE",
"610 995 OFFCURVE",
"619 966 CURVE",
"954 1037 LINE",
"931 1170 OFFCURVE",
"803 1344 OFFCURVE",
"539 1344 CURVE SMOOTH",
"259 1344 OFFCURVE",
"96 1184 OFFCURVE",
"96 995 CURVE SMOOTH",
"96 875 OFFCURVE",
"158 773 OFFCURVE",
"254 704 CURVE",
"154 670 OFFCURVE",
"10 536 OFFCURVE",
"10 390 CURVE SMOOTH",
"10 219 OFFCURVE",
"101 101 OFFCURVE",
"304 32 CURVE SMOOTH",
"482 -29 OFFCURVE",
"531 -66 OFFCURVE",
"531 -93 CURVE SMOOTH",
"531 -123 OFFCURVE",
"509 -131 OFFCURVE",
"470 -131 CURVE SMOOTH",
"408 -131 OFFCURVE",
"374 -78 OFFCURVE",
"365 -38 CURVE",
"22 -125 LINE",
"45 -261 OFFCURVE",
"182 -440 OFFCURVE",
"470 -440 CURVE SMOOTH"
);
},
{
closed = 1;
nodes = (
"450 579 OFFCURVE",
"509 552 OFFCURVE",
"509 552 CURVE SMOOTH",
"587 515 OFFCURVE",
"672 467 OFFCURVE",
"672 422 CURVE SMOOTH",
"672 366 OFFCURVE",
"634 336 OFFCURVE",
"560 318 CURVE",
"550 325 OFFCURVE",
"525 338 OFFCURVE",
"520 339 CURVE SMOOTH",
"440 374 OFFCURVE",
"362 410 OFFCURVE",
"362 470 CURVE SMOOTH",
"362 518 OFFCURVE",
"394 563 OFFCURVE",
"450 579 CURVE"
);
}
);
width = 1064;
},
{
layerId = "9D4C2422-5CE9-4C2E-AAC7-BF869A02F5C8";
paths = (
{
closed = 1;
nodes = (
"787 -440 OFFCURVE",
"864 -243 OFFCURVE",
"864 -106 CURVE SMOOTH",
"864 6 OFFCURVE",
"806 104 OFFCURVE",
"706 162 CURVE",
"792 202 OFFCURVE",
"902 286 OFFCURVE",
"902 427 CURVE SMOOTH",
"902 605 OFFCURVE",
"749 678 OFFCURVE",
"552 758 CURVE SMOOTH",
"413 814 OFFCURVE",
"248 896 OFFCURVE",
"248 1075 CURVE SMOOTH",
"248 1198 OFFCURVE",
"368 1285 OFFCURVE",
"541 1285 CURVE SMOOTH",
"702 1285 OFFCURVE",
"795 1174 OFFCURVE",
"821 1091 CURVE",
"869 1126 LINE",
"840 1219 OFFCURVE",
"730 1344 OFFCURVE",
"538 1344 CURVE SMOOTH",
"306 1344 OFFCURVE",
"186 1211 OFFCURVE",
"186 1066 CURVE SMOOTH",
"186 912 OFFCURVE",
"280 840 OFFCURVE",
"378 771 CURVE",
"304 752 OFFCURVE",
"149 664 OFFCURVE",
"149 514 CURVE SMOOTH",
"149 368 OFFCURVE",
"258 290 OFFCURVE",
"464 210 CURVE SMOOTH",
"648 138 OFFCURVE",
"798 61 OFFCURVE",
"798 -114 CURVE SMOOTH",
"798 -256 OFFCURVE",
"723 -379 OFFCURVE",
"477 -379 CURVE SMOOTH",
"299 -379 OFFCURVE",
"198 -264 OFFCURVE",
"173 -178 CURVE",
"114 -206 LINE",
"150 -307 OFFCURVE",
"274 -440 OFFCURVE",
"477 -440 CURVE SMOOTH"
);
},
{
closed = 1;
nodes = (
"446 736 OFFCURVE",
"499 715 OFFCURVE",
"538 701 CURVE SMOOTH",
"699 637 OFFCURVE",
"840 554 OFFCURVE",
"840 432 CURVE SMOOTH",
"840 294 OFFCURVE",
"709 213 OFFCURVE",
"654 195 CURVE",
"618 210 OFFCURVE",
"550 238 OFFCURVE",
"448 280 CURVE SMOOTH",
"322 331 OFFCURVE",
"213 402 OFFCURVE",
"213 510 CURVE SMOOTH",
"213 642 OFFCURVE",
"339 710 OFFCURVE",
"440 739 CURVE"
);
}
);
width = 1096;
}
);
leftKerningGroup = section;
rightKerningGroup = section;
unicode = 00A7;
},
{
glyphname = copyright;
lastChange = "2020-04-11 19:54:09 +0000";
layers = (
{
layerId = "C45C3DCC-6617-4D42-8E57-0A4EECAD9C2E";
paths = (
{
closed = 1;
nodes = (
"45 283 OFFCURVE",
"352 -24 OFFCURVE",
"728 -24 CURVE SMOOTH",
"1106 -24 OFFCURVE",
"1413 283 OFFCURVE",
"1413 659 CURVE SMOOTH",
"1413 1037 OFFCURVE",
"1106 1344 OFFCURVE",
"728 1344 CURVE SMOOTH",
"352 1344 OFFCURVE",
"45 1037 OFFCURVE",
"45 659 CURVE SMOOTH"
);
},
{
closed = 1;
nodes = (
"266 915 OFFCURVE",
"474 1123 OFFCURVE",
"728 1123 CURVE SMOOTH",
"984 1123 OFFCURVE",
"1192 915 OFFCURVE",
"1192 659 CURVE SMOOTH",
"1192 405 OFFCURVE",
"984 197 OFFCURVE",
"728 197 CURVE SMOOTH",
"474 197 OFFCURVE",
"266 405 OFFCURVE",
"266 659 CURVE SMOOTH"
);
},
{
closed = 1;
nodes = (
"720 787 OFFCURVE",
"674 723 OFFCURVE",
"674 662 CURVE SMOOTH",
"674 598 OFFCURVE",
"720 534 OFFCURVE",
"787 534 CURVE SMOOTH",
"827 534 OFFCURVE",
"858 549 OFFCURVE",
"864 554 CURVE",
"949 381 LINE",
"949 381 OFFCURVE",
"861 328 OFFCURVE",
"739 328 CURVE SMOOTH",
"558 328 OFFCURVE",
"390 475 OFFCURVE",
"390 659 CURVE SMOOTH",
"390 846 OFFCURVE",
"558 997 OFFCURVE",
"739 997 CURVE SMOOTH",
"875 997 OFFCURVE",
"944 946 OFFCURVE",
"949 941 CURVE",
"867 771 LINE",
"867 771 OFFCURVE",
"816 787 OFFCURVE",
"787 787 CURVE SMOOTH"
);
}
);
width = 1482;
},
{
layerId = "9D4C2422-5CE9-4C2E-AAC7-BF869A02F5C8";
paths = (
{
closed = 1;
nodes = (
"53 283 OFFCURVE",
"360 -24 OFFCURVE",
"736 -24 CURVE SMOOTH",
"1114 -24 OFFCURVE",
"1421 283 OFFCURVE",
"1421 659 CURVE SMOOTH",
"1421 1037 OFFCURVE",
"1114 1344 OFFCURVE",
"736 1344 CURVE SMOOTH",
"360 1344 OFFCURVE",
"53 1037 OFFCURVE",
"53 659 CURVE SMOOTH"
);
},
{
closed = 1;
nodes = (
"106 1006 OFFCURVE",
"390 1291 OFFCURVE",
"736 1291 CURVE SMOOTH",
"1083 1291 OFFCURVE",
"1368 1006 OFFCURVE",
"1368 659 CURVE SMOOTH",
"1368 314 OFFCURVE",
"1083 29 OFFCURVE",
"736 29 CURVE SMOOTH",
"390 29 OFFCURVE",
"106 314 OFFCURVE",
"106 659 CURVE SMOOTH"
);
},
{
closed = 1;
nodes = (
"610 872 OFFCURVE",
"514 789 OFFCURVE",
"514 648 CURVE SMOOTH",
"514 504 OFFCURVE",
"613 426 OFFCURVE",
"742 426 CURVE SMOOTH",
"814 426 OFFCURVE",
"872 450 OFFCURVE",
"894 467 CURVE",
"918 419 LINE",
"885 398 OFFCURVE",
"814 371 OFFCURVE",
"741 371 CURVE SMOOTH",
"574 371 OFFCURVE",
"456 493 OFFCURVE",
"456 645 CURVE SMOOTH",
"456 805 OFFCURVE",
"574 925 OFFCURVE",
"741 925 CURVE SMOOTH",
"853 925 OFFCURVE",
"915 878 OFFCURVE",
"918 874 CURVE",
"893 822 LINE",
"870 843 OFFCURVE",
"813 872 OFFCURVE",
"739 872 CURVE SMOOTH"
);
}
);
width = 1514;
}
);
leftKerningGroup = copyright;
rightKerningGroup = copyright;
unicode = 00A9;
},
{
glyphname = registered;
lastChange = "2020-04-11 19:54:09 +0000";
layers = (
{
layerId = "C45C3DCC-6617-4D42-8E57-0A4EECAD9C2E";
paths = (
{
closed = 1;
nodes = (
"45 787 OFFCURVE",
"206 627 OFFCURVE",
"402 627 CURVE SMOOTH",
"602 627 OFFCURVE",
"762 787 OFFCURVE",
"762 984 CURVE SMOOTH",
"762 1182 OFFCURVE",
"602 1344 OFFCURVE",
"402 1344 CURVE SMOOTH",
"206 1344 OFFCURVE",
"45 1182 OFFCURVE",
"45 984 CURVE SMOOTH"
);
},
{
closed = 1;
nodes = (
"162 1118 OFFCURVE",
"270 1227 OFFCURVE",
"402 1227 CURVE SMOOTH",
"538 1227 OFFCURVE",
"645 1118 OFFCURVE",
"645 984 CURVE SMOOTH",
"645 851 OFFCURVE",
"538 744 OFFCURVE",
"402 744 CURVE SMOOTH",
"270 744 OFFCURVE",
"162 851 OFFCURVE",
"162 984 CURVE SMOOTH"
);
},
{
closed = 1;
nodes = (
"286 821 LINE",
"371 821 LINE",
"371 952 LINE",
"355 952 LINE",
"466 821 LINE",
"579 821 LINE",
"448 958 LINE",
"488 973 OFFCURVE",
"518 1003 OFFCURVE",
"518 1054 CURVE SMOOTH",
"518 1118 OFFCURVE",
"472 1152 OFFCURVE",
"410 1152 CURVE SMOOTH",
"286 1152 LINE"
);
},
{
closed = 1;
nodes = (
"371 1086 LINE",
"366 1086 LINE SMOOTH",
"386 1086 OFFCURVE",
"426 1088 OFFCURVE",
"426 1046 CURVE SMOOTH",
"426 1006 OFFCURVE",
"387 1011 OFFCURVE",
"365 1011 CURVE SMOOTH",
"371 1011 LINE"
);
}
);
width = 830;
},
{
layerId = "9D4C2422-5CE9-4C2E-AAC7-BF869A02F5C8";
paths = (
{
closed = 1;
nodes = (
"53 787 OFFCURVE",
"214 627 OFFCURVE",
"410 627 CURVE SMOOTH",
"610 627 OFFCURVE",
"770 787 OFFCURVE",
"770 984 CURVE SMOOTH",
"770 1182 OFFCURVE",
"610 1344 OFFCURVE",
"410 1344 CURVE SMOOTH",
"214 1344 OFFCURVE",
"53 1182 OFFCURVE",
"53 984 CURVE SMOOTH"
);
},
{
closed = 1;
nodes = (
"106 1154 OFFCURVE",
"243 1291 OFFCURVE",
"410 1291 CURVE SMOOTH",
"582 1291 OFFCURVE",
"717 1154 OFFCURVE",
"717 984 CURVE SMOOTH",
"717 814 OFFCURVE",
"582 680 OFFCURVE",
"410 680 CURVE SMOOTH",
"243 680 OFFCURVE",
"106 814 OFFCURVE",
"106 984 CURVE SMOOTH"
);
},
{
closed = 1;
nodes = (
"318 821 LINE",
"368 821 LINE",
"368 952 LINE",
"416 952 LINE",
"485 821 LINE",
"539 821 LINE",
"462 958 LINE",
"502 973 OFFCURVE",
"526 1003 OFFCURVE",
"526 1054 CURVE SMOOTH",
"526 1118 OFFCURVE",
"480 1152 OFFCURVE",
"418 1152 CURVE SMOOTH",
"318 1152 LINE"
);
},
{
closed = 1;
nodes = (
"368 1106 LINE",
"403 1106 LINE SMOOTH",
"443 1106 OFFCURVE",
"477 1101 OFFCURVE",
"477 1054 CURVE SMOOTH",
"477 1008 OFFCURVE",
"451 992 OFFCURVE",
"410 992 CURVE SMOOTH",
"368 992 LINE"
);
}
);
width = 862;
}
);
leftKerningGroup = registered;
rightKerningGroup = registered;
unicode = 00AE;
},
{
glyphname = trademark;
lastChange = "2020-04-11 19:54:09 +0000";
layers = (
{
layerId = "C45C3DCC-6617-4D42-8E57-0A4EECAD9C2E";
paths = (
{
closed = 1;
nodes = (
"11 1222 LINE",
"99 1222 LINE",
"99 907 LINE",
"216 907 LINE",
"216 1222 LINE",
"304 1222 LINE",
"304 1320 LINE",
"11 1320 LINE"
);
},
{
closed = 1;
nodes = (
"787 1320 LINE",
"672 1320 LINE",
"570 1112 LINE",
"466 1320 LINE",
"350 1320 LINE",
"314 907 LINE",
"427 907 LINE",
"446 1117 LINE",
"448 1117 LINE",
"544 910 LINE",
"595 910 LINE",
"693 1117 LINE",
"694 1117 LINE",
"710 907 LINE",
"826 907 LINE"
);
}
);
width = 862;
},
{
layerId = "9D4C2422-5CE9-4C2E-AAC7-BF869A02F5C8";
paths = (
{
closed = 1;
nodes = (
"56 1277 LINE",
"182 1277 LINE",
"182 907 LINE",
"224 907 LINE",
"224 1277 LINE",
"349 1277 LINE",
"349 1320 LINE",
"56 1320 LINE"
);
},
{
closed = 1;
nodes = (
"650 1320 LINE",
"589 1320 LINE",
"533 1003 LINE",
"474 1320 LINE",
"413 1320 LINE",
"376 907 LINE",
"418 907 LINE",
"445 1253 LINE",
"446 1253 LINE",
"499 910 LINE",
"566 910 LINE",
"618 1253 LINE",
"619 1253 LINE",
"646 907 LINE",
"688 907 LINE"
);
}
);
width = 787;
}
);
leftKerningGroup = trademark;
rightKerningGroup = trademark;
unicode = 2122;
},
{
glyphname = degree;
lastChange = "2020-04-11 19:54:09 +0000";
layers = (
{
layerId = "C45C3DCC-6617-4D42-8E57-0A4EECAD9C2E";
paths = (
{
closed = 1;
nodes = (
"99 1131 OFFCURVE",
"184 1056 OFFCURVE",
"306 1056 CURVE SMOOTH",
"426 1056 OFFCURVE",
"510 1131 OFFCURVE",
"510 1235 CURVE SMOOTH",
"510 1341 OFFCURVE",
"419 1414 OFFCURVE",
"306 1414 CURVE SMOOTH",
"190 1414 OFFCURVE",
"99 1341 OFFCURVE",
"99 1235 CURVE SMOOTH"
);
},
{
closed = 1;
nodes = (
"242 1275 OFFCURVE",
"270 1304 OFFCURVE",
"306 1304 CURVE SMOOTH",
"341 1304 OFFCURVE",
"370 1275 OFFCURVE",
"370 1235 CURVE SMOOTH",
"370 1198 OFFCURVE",
"342 1165 OFFCURVE",
"306 1165 CURVE SMOOTH",
"267 1165 OFFCURVE",
"242 1197 OFFCURVE",
"242 1235 CURVE SMOOTH"
);
}
);
width = 635;
},
{
layerId = "9D4C2422-5CE9-4C2E-AAC7-BF869A02F5C8";
paths = (
{
closed = 1;
nodes = (
"139 1162 OFFCURVE",
"192 1110 OFFCURVE",
"269 1110 CURVE SMOOTH",
"344 1110 OFFCURVE",
"398 1162 OFFCURVE",
"398 1235 CURVE SMOOTH",
"398 1310 OFFCURVE",
"341 1360 OFFCURVE",
"269 1360 CURVE SMOOTH",
"197 1360 OFFCURVE",
"139 1310 OFFCURVE",
"139 1235 CURVE SMOOTH"
);
},
{
closed = 1;
nodes = (
"184 1282 OFFCURVE",
"222 1317 OFFCURVE",
"269 1317 CURVE SMOOTH",
"317 1317 OFFCURVE",
"355 1282 OFFCURVE",
"355 1235 CURVE SMOOTH",
"355 1189 OFFCURVE",
"317 1152 OFFCURVE",
"269 1152 CURVE SMOOTH",
"219 1152 OFFCURVE",
"184 1189 OFFCURVE",
"184 1235 CURVE SMOOTH"
);
}
);
width = 578;
}
);
leftKerningGroup = degree;
rightKerningGroup = degree;
unicode = 00B0;
},
{
glyphname = bar;
lastChange = "2020-04-11 19:54:09 +0000";
layers = (
{
layerId = "C45C3DCC-6617-4D42-8E57-0A4EECAD9C2E";
paths = (
{
closed = 1;
nodes = (
"410 1424 LINE",
"61 1424 LINE",
"61 -258 LINE",
"410 -258 LINE"
);
}
);
width = 477;
},
{
layerId = "9D4C2422-5CE9-4C2E-AAC7-BF869A02F5C8";
paths = (
{
closed = 1;
nodes = (
"184 1408 LINE",
"123 1408 LINE",
"123 -242 LINE",
"184 -242 LINE"
);
}
);
width = 349;
}
);
leftKerningGroup = bar;
rightKerningGroup = bar;
unicode = 007C;
},
{
glyphname = brokenbar;
lastChange = "2020-04-11 19:54:09 +0000";
layers = (
{
layerId = "C45C3DCC-6617-4D42-8E57-0A4EECAD9C2E";
paths = (
{
closed = 1;
nodes = (
"386 1376 LINE",
"69 1376 LINE",
"69 845 LINE",
"386 845 LINE"
);
},
{
closed = 1;
nodes = (
"386 531 LINE",
"69 531 LINE",
"69 0 LINE",
"386 0 LINE"
);
}
);
width = 477;
},
{
layerId = "9D4C2422-5CE9-4C2E-AAC7-BF869A02F5C8";
paths = (
{
closed = 1;
nodes = (
"176 1376 LINE",
"131 1376 LINE",
"131 845 LINE",
"176 845 LINE"
);
},
{
closed = 1;
nodes = (
"176 531 LINE",
"131 531 LINE",
"131 0 LINE",
"176 0 LINE"
);
}
);
width = 349;
}
);
leftKerningGroup = brokenbar;
rightKerningGroup = brokenbar;
unicode = 00A6;
},
{
glyphname = numero;
lastChange = "2020-04-11 19:54:09 +0000";
layers = (
{
components = (
{
name = N;
},
{
alignment = -1;
name = o;
transform = "{1, 0, 0, 1, 1280, 483}";
}
);
layerId = "9D4C2422-5CE9-4C2E-AAC7-BF869A02F5C8";
paths = (
{
closed = 1;
nodes = (
"1330 0 LINE",
"2165 0 LINE",
"2165 66 LINE",
"1330 66 LINE"
);
}
);
width = 2258;
},
{
components = (
{
name = N;
},
{
alignment = -1;
name = o;
transform = "{1, 0, 0, 1, 1509, 486}";
}
);
layerId = "C45C3DCC-6617-4D42-8E57-0A4EECAD9C2E";
paths = (
{
closed = 1;
nodes = (
"1565 0 LINE",
"2477 0 LINE",
"2477 294 LINE",
"1565 294 LINE"
);
}
);
width = 2562;
}
);
unicode = 2116;
},
{
glyphname = dieresiscomb.case;
lastChange = "2020-06-16 19:41:24 +0000";
layers = (
{
anchors = (
{
name = _top;
position = "{352, 1320}";
},
{
name = top;
position = "{352, 1566}";
}
);
layerId = "9D4C2422-5CE9-4C2E-AAC7-BF869A02F5C8";
paths = (
{
closed = 1;
nodes = (
"122 1566 OFFCURVE",
"89 1531 OFFCURVE",
"89 1492 CURVE SMOOTH",
"89 1454 OFFCURVE",
"122 1419 OFFCURVE",
"162 1419 CURVE SMOOTH",
"201 1419 OFFCURVE",
"236 1452 OFFCURVE",
"236 1492 CURVE SMOOTH",
"236 1532 OFFCURVE",
"201 1566 OFFCURVE",
"162 1566 CURVE SMOOTH"
);
},
{
closed = 1;
nodes = (
"501 1566 OFFCURVE",
"468 1531 OFFCURVE",
"468 1492 CURVE SMOOTH",
"468 1454 OFFCURVE",
"501 1419 OFFCURVE",
"541 1419 CURVE SMOOTH",
"580 1419 OFFCURVE",
"615 1452 OFFCURVE",
"615 1492 CURVE SMOOTH",
"615 1532 OFFCURVE",
"580 1566 OFFCURVE",
"541 1566 CURVE SMOOTH"
);
}
);
width = 700;
},
{
anchors = (
{
name = _top;
position = "{455, 1320}";
},
{
name = top;
position = "{455, 1742}";
}
);
layerId = "C45C3DCC-6617-4D42-8E57-0A4EECAD9C2E";
paths = (
{
closed = 1;
nodes = (
"153 1742 OFFCURVE",
"76 1663 OFFCURVE",
"76 1567 CURVE SMOOTH",
"76 1471 OFFCURVE",
"153 1393 OFFCURVE",
"250 1393 CURVE SMOOTH",
"346 1393 OFFCURVE",
"423 1471 OFFCURVE",
"423 1567 CURVE SMOOTH",
"423 1663 OFFCURVE",
"346 1742 OFFCURVE",
"250 1742 CURVE SMOOTH"
);
},
{
closed = 1;
nodes = (
"564 1742 OFFCURVE",
"487 1663 OFFCURVE",
"487 1567 CURVE SMOOTH",
"487 1471 OFFCURVE",
"564 1393 OFFCURVE",
"661 1393 CURVE SMOOTH",
"757 1393 OFFCURVE",
"834 1471 OFFCURVE",
"834 1567 CURVE SMOOTH",
"834 1663 OFFCURVE",
"757 1742 OFFCURVE",
"661 1742 CURVE SMOOTH"
);
}
);
width = 900;
}
);
},
{
glyphname = dotaccentcomb.case;
lastChange = "2020-06-16 19:40:52 +0000";
layers = (
{
anchors = (
{
name = _top;
position = "{276, 1320}";
},
{
name = top;
position = "{276, 1566}";
}
);
layerId = "9D4C2422-5CE9-4C2E-AAC7-BF869A02F5C8";
paths = (
{
closed = 1;
nodes = (
"235 1566 OFFCURVE",
"202 1531 OFFCURVE",
"202 1492 CURVE SMOOTH",
"202 1454 OFFCURVE",
"235 1419 OFFCURVE",
"275 1419 CURVE SMOOTH",
"314 1419 OFFCURVE",
"349 1452 OFFCURVE",
"349 1492 CURVE SMOOTH",
"349 1532 OFFCURVE",
"314 1566 OFFCURVE",
"275 1566 CURVE SMOOTH"
);
}
);
width = 590;
},
{
anchors = (
{
name = _top;
position = "{267, 1320}";
},
{
name = top;
position = "{267, 1738}";
}
);
layerId = "C45C3DCC-6617-4D42-8E57-0A4EECAD9C2E";
paths = (
{
closed = 1;
nodes = (
"170 1738 OFFCURVE",
"93 1659 OFFCURVE",
"93 1563 CURVE SMOOTH",
"93 1467 OFFCURVE",
"170 1389 OFFCURVE",
"267 1389 CURVE SMOOTH",
"363 1389 OFFCURVE",
"440 1467 OFFCURVE",
"440 1563 CURVE SMOOTH",
"440 1659 OFFCURVE",
"363 1738 OFFCURVE",
"267 1738 CURVE SMOOTH"
);
}
);
width = 590;
}
);
},
{
glyphname = gravecomb.case;
lastChange = "2020-06-16 19:37:27 +0000";
layers = (
{
anchors = (
{
name = _top;
position = "{344, 1320}";
},
{
name = top;
position = "{344, 1651}";
}
);
layerId = "9D4C2422-5CE9-4C2E-AAC7-BF869A02F5C8";
paths = (
{
closed = 1;
nodes = (
"439 1425 LINE",
"151 1651 LINE",
"92 1576 LINE",
"400 1376 LINE"
);
}
);
width = 693;
},
{
anchors = (
{
name = _top;
position = "{312, 1320}";
},
{
name = top;
position = "{312, 1827}";
}
);
layerId = "C45C3DCC-6617-4D42-8E57-0A4EECAD9C2E";
paths = (
{
closed = 1;
nodes = (
"489 1526 LINE",
"149 1827 LINE",
"-27 1605 LINE",
"380 1376 LINE"
);
}
);
width = 693;
}
);
},
{
glyphname = acutecomb.case;
lastChange = "2020-06-16 19:37:53 +0000";
layers = (
{
anchors = (
{
name = _top;
position = "{337, 1320}";
},
{
name = top;
position = "{337, 1651}";
}
);
layerId = "9D4C2422-5CE9-4C2E-AAC7-BF869A02F5C8";
paths = (
{
closed = 1;
nodes = (
"571 1576 LINE",
"512 1651 LINE",
"224 1425 LINE",
"263 1376 LINE"
);
}
);
width = 693;
},
{
anchors = (
{
name = _top;
position = "{361, 1320}";
},
{
name = top;
position = "{361, 1827}";
}
);
layerId = "C45C3DCC-6617-4D42-8E57-0A4EECAD9C2E";
paths = (
{
closed = 1;
nodes = (
"679 1605 LINE",
"503 1827 LINE",
"163 1526 LINE",
"272 1376 LINE"
);
}
);
width = 693;
}
);
},
{
glyphname = hungarumlautcomb.case;
lastChange = "2020-06-16 19:43:27 +0000";
layers = (
{
anchors = (
{
name = _top;
position = "{363, 1320}";
},
{
name = top;
position = "{363, 1693}";
}
);
layerId = "9D4C2422-5CE9-4C2E-AAC7-BF869A02F5C8";
paths = (
{
closed = 1;
nodes = (
"352 1614 LINE",
"290 1693 LINE",
"28 1416 LINE",
"68 1378 LINE"
);
},
{
closed = 1;
nodes = (
"698 1614 LINE",
"636 1693 LINE",
"373 1416 LINE",
"413 1378 LINE"
);
}
);
width = 700;
},
{
anchors = (
{
name = _top;
position = "{378, 1320}";
},
{
name = top;
position = "{378, 1722}";
}
);
layerId = "C45C3DCC-6617-4D42-8E57-0A4EECAD9C2E";
paths = (
{
closed = 1;
nodes = (
"415 1584 LINE",
"258 1722 LINE",
"-24 1494 LINE",
"84 1386 LINE"
);
},
{
closed = 1;
nodes = (
"779 1584 LINE",
"622 1722 LINE",
"341 1494 LINE",
"448 1386 LINE"
);
}
);
width = 800;
}
);
},
{
glyphname = circumflexcomb.case;
lastChange = "2020-06-16 19:38:42 +0000";
layers = (
{
anchors = (
{
name = _top;
position = "{342, 1320}";
},
{
name = top;
position = "{342, 1660}";
}
);
layerId = "9D4C2422-5CE9-4C2E-AAC7-BF869A02F5C8";
paths = (
{
closed = 1;
nodes = (
"341 1559 LINE",
"548 1407 LINE",
"596 1473 LINE",
"341 1660 LINE",
"87 1474 LINE",
"136 1409 LINE"
);
}
);
width = 700;
},
{
anchors = (
{
name = _top;
position = "{363, 1320}";
},
{
name = top;
position = "{363, 1852}";
}
);
layerId = "C45C3DCC-6617-4D42-8E57-0A4EECAD9C2E";
paths = (
{
closed = 1;
nodes = (
"363 1582 LINE",
"621 1393 LINE",
"752 1567 LINE",
"363 1852 LINE",
"-27 1567 LINE",
"104 1393 LINE"
);
}
);
width = 700;
}
);
},
{
glyphname = caroncomb.case;
lastChange = "2020-06-16 19:44:10 +0000";
layers = (
{
anchors = (
{
name = _top;
position = "{308, 1320}";
},
{
name = top;
position = "{308, 1603}";
}
);
layerId = "9D4C2422-5CE9-4C2E-AAC7-BF869A02F5C8";
paths = (
{
closed = 1;
nodes = (
"308 1382 LINE",
"530 1545 LINE",
"489 1603 LINE",
"308 1472 LINE",
"129 1601 LINE",
"86 1544 LINE"
);
}
);
width = 600;
},
{
anchors = (
{
name = _top;
position = "{350, 1320}";
},
{
name = top;
position = "{350, 1757}";
}
);
layerId = "C45C3DCC-6617-4D42-8E57-0A4EECAD9C2E";
paths = (
{
closed = 1;
nodes = (
"351 1355 LINE",
"690 1604 LINE",
"576 1756 LINE",
"351 1591 LINE",
"125 1757 LINE",
"10 1605 LINE"
);
}
);
width = 700;
}
);
},
{
glyphname = brevecomb.case;
lastChange = "2020-06-16 19:40:33 +0000";
layers = (
{
anchors = (
{
name = _top;
position = "{304, 1320}";
},
{
name = top;
position = "{304, 1580}";
}
);
layerId = "9D4C2422-5CE9-4C2E-AAC7-BF869A02F5C8";
paths = (
{
closed = 1;
nodes = (
"451 1580 LINE",
"440 1525 OFFCURVE",
"392 1452 OFFCURVE",
"304 1452 CURVE SMOOTH",
"216 1452 OFFCURVE",
"166 1525 OFFCURVE",
"155 1580 CURVE",
"72 1559 LINE",
"80 1485 OFFCURVE",
"161 1380 OFFCURVE",
"304 1380 CURVE SMOOTH",
"448 1380 OFFCURVE",
"528 1489 OFFCURVE",
"536 1559 CURVE"
);
}
);
width = 600;
},
{
anchors = (
{
name = _top;
position = "{438, 1320}";
},
{
name = top;
position = "{438, 1722}";
}
);
layerId = "C45C3DCC-6617-4D42-8E57-0A4EECAD9C2E";
paths = (
{
closed = 1;
nodes = (
"590 1722 LINE",
"584 1655 OFFCURVE",
"538 1567 OFFCURVE",
"438 1567 CURVE SMOOTH",
"337 1567 OFFCURVE",
"293 1655 OFFCURVE",
"287 1722 CURVE",
"75 1669 LINE",
"96 1489 OFFCURVE",
"240 1384 OFFCURVE",
"438 1384 CURVE SMOOTH",
"641 1384 OFFCURVE",
"781 1495 OFFCURVE",
"800 1669 CURVE"
);
}
);
width = 800;
}
);
},
